<svg width="255" height="260" viewBox="0 0 255 260" fill="none" xmlns="http://www.w3.org/2000/svg">
<path d="M127.228 0.484884C128.27 0.282625 130.019 0.0694199 131.118 0.0140533C132.355 -0.0507161 134.441 0.110372 136.616 0.438126C139.465 0.867214 140.54 1.14983 142.376 1.94862C143.618 2.48946 145.462 3.4476 146.476 4.07675C147.487 4.70557 149.39 6.14919 150.702 7.28248C152.013 8.41838 154.122 10.6165 155.387 12.1694C156.653 13.7224 158.493 16.326 159.476 17.9553C160.46 19.5847 161.732 21.9257 162.302 23.1582C162.875 24.391 163.852 26.8305 164.478 28.5771C165.101 30.3233 165.892 32.8589 166.236 34.2089C166.581 35.559 167.092 37.9387 167.371 39.5C167.652 41.0615 168.02 43.7223 168.188 45.4126C168.353 47.1026 168.552 49.9829 168.627 51.807C168.704 53.6315 168.684 57.1983 168.584 59.7276C168.488 62.2573 168.253 65.589 168.067 67.1275C167.857 68.8401 167.819 70.27 167.966 70.8138C168.099 71.303 168.516 72.0122 168.896 72.389C169.275 72.7684 169.76 73.1001 169.976 73.124C170.192 73.1505 171.386 72.6182 172.632 71.9416C173.878 71.265 176.098 70.1267 177.568 69.409C179.038 68.6939 181.739 67.5065 183.574 66.7675C185.409 66.0311 188.33 64.9896 190.069 64.4528C191.808 63.916 194.574 63.1698 196.219 62.7984C197.864 62.4244 201.022 61.8875 203.237 61.6047C205.452 61.3192 208.821 61.0037 210.723 60.9043C213.776 60.743 215.035 60.8235 221.472 61.6086C228.125 62.4202 228.996 62.5799 231.423 63.4328C232.887 63.9481 235.094 64.8505 236.33 65.4382C237.566 66.0285 239.674 67.2596 241.016 68.172C242.357 69.0869 244.466 70.8043 245.701 71.9888C246.935 73.1733 248.457 74.8503 249.081 75.7116C249.704 76.5754 250.572 77.8576 251.006 78.5661C251.439 79.2745 252.175 80.7307 252.643 81.8053C253.108 82.8796 253.728 84.768 254.015 86.0027C254.304 87.2377 254.636 89.1199 254.756 90.1887C254.914 91.5951 254.835 93.2446 254.474 96.1645C254.115 99.0662 253.767 100.801 253.233 102.353C252.823 103.539 251.855 105.856 251.081 107.504C250.308 109.153 248.894 111.714 247.938 113.195C246.982 114.676 245.187 117.071 243.949 118.517C242.712 119.964 240.605 122.202 239.271 123.491C237.934 124.777 235.594 126.789 234.071 127.959C232.548 129.128 229.754 131.051 227.865 132.23C225.976 133.409 223.289 134.952 221.894 135.658C220.499 136.364 217.944 137.562 216.215 138.319C214.487 139.074 212.984 139.687 212.877 139.679C212.77 139.671 212.342 139.885 211.928 140.157C211.514 140.426 211.01 140.895 210.809 141.198C210.608 141.501 210.405 142.01 210.363 142.332C210.318 142.654 210.466 143.238 210.693 143.627C210.917 144.019 212.345 145.259 213.864 146.384C215.383 147.508 217.648 149.316 218.894 150.402C220.141 151.485 222.01 153.22 223.046 154.254C224.082 155.287 225.987 157.378 227.277 158.902C228.571 160.424 230.361 162.782 231.259 164.139C232.158 165.496 233.463 167.738 234.158 169.118C234.855 170.501 235.847 172.752 236.363 174.123C236.879 175.494 237.526 177.656 237.803 178.923C238.081 180.191 238.424 182.434 238.571 183.905C238.767 185.908 238.732 187.463 238.424 190.096C238.198 192.028 237.75 194.47 237.425 195.521C237.103 196.57 236.448 198.273 235.967 199.305C235.489 200.335 234.519 202.06 233.808 203.135C233.1 204.21 231.654 205.996 230.596 207.1C229.541 208.204 227.512 209.96 226.092 211.001C224.672 212.039 222.305 213.495 220.835 214.236C219.364 214.975 216.924 215.954 215.414 216.414C213.904 216.87 211.577 217.419 210.242 217.636C208.908 217.85 207.215 218.08 206.48 218.149C205.744 218.217 203.54 218.245 201.582 218.213C199.626 218.179 196.91 218.017 195.548 217.853C194.186 217.688 191.629 217.202 189.867 216.772C188.101 216.344 185.231 215.505 183.489 214.906C181.744 214.308 178.967 213.204 177.315 212.454C175.663 211.704 172.92 210.298 171.224 209.329C169.524 208.359 166.405 206.386 160.44 202.316L159.418 202.719C158.857 202.941 158.117 203.505 157.769 203.97C157.221 204.711 157.03 205.53 156.248 210.52C155.651 214.322 155.036 217.284 154.404 219.408C153.882 221.159 153.002 223.788 152.448 225.244C151.894 226.701 150.986 228.909 150.432 230.149C149.875 231.388 148.854 233.461 148.161 234.757C147.465 236.054 146.093 238.321 145.106 239.798C144.121 241.276 142.444 243.506 141.378 244.757C140.313 246.007 138.374 248.026 137.066 249.247C135.761 250.468 133.658 252.21 132.394 253.119C131.129 254.032 128.956 255.352 127.561 256.058C126.166 256.764 124.34 257.586 123.505 257.885C122.67 258.187 120.944 258.659 119.675 258.939C118.407 259.22 116.407 259.518 115.233 259.607C114.059 259.692 112.21 259.732 111.126 259.694C110.037 259.653 108.12 259.357 106.846 259.031C105.578 258.706 103.747 258.12 102.778 257.729C101.809 257.335 99.9631 256.395 98.6737 255.639C97.3845 254.881 95.1496 253.238 93.7045 251.986C92.2594 250.733 90.2553 248.738 89.2512 247.553C88.2445 246.367 86.6084 244.108 85.6152 242.533C84.622 240.958 83.3295 238.72 82.7455 237.557C82.1612 236.397 81.2669 234.383 80.76 233.087C80.2505 231.79 79.4312 229.251 78.9365 227.447C78.4419 225.642 77.8594 223.132 77.6442 221.872C77.4289 220.612 77.1418 218.495 77.0084 217.171C76.875 215.846 76.739 213.51 76.7073 211.982C76.6756 210.454 76.6965 207.722 76.7549 205.911C76.813 204.061 77.0986 201.261 77.4077 199.519C77.8832 196.829 77.9074 196.288 77.6 195.455C77.403 194.929 76.8874 194.242 75.6637 193.36L71.8713 194.651C69.786 195.362 67.2162 196.188 66.1624 196.484C65.1083 196.783 62.7156 197.371 60.8483 197.792C58.9807 198.215 56.0601 198.734 54.3642 198.943C52.6679 199.155 49.7812 199.397 47.9552 199.482C45.6509 199.588 42.9928 199.475 39.279 199.114C35.257 198.724 33.1616 198.398 30.8509 197.802C29.16 197.367 26.4703 196.501 24.8766 195.877C23.2829 195.253 20.9715 194.211 19.7435 193.559C18.5157 192.903 16.9051 191.966 16.1677 191.471C15.4303 190.976 13.9128 189.775 12.7956 188.801C11.6781 187.829 10.1221 186.317 9.33347 185.443C8.54253 184.567 7.32255 183.009 6.61943 181.977C5.9137 180.944 4.865 179.154 4.2888 177.992C3.71229 176.832 2.95504 175.014 2.60423 173.954C2.25081 172.894 1.82513 171.238 1.65315 170.271C1.48116 169.304 1.3282 167.385 1.31309 166.002C1.29549 164.38 1.50235 162.157 1.90041 159.733C2.34882 156.985 2.76552 155.335 3.45366 153.583C3.96967 152.265 4.96638 150.131 5.66985 148.836C6.37333 147.541 7.45447 145.774 8.07397 144.904C8.69607 144.035 9.89946 142.521 10.7526 141.534C11.6029 140.55 13.1152 138.952 14.1142 137.984C15.1102 137.018 17.1801 135.248 18.7138 134.057C20.2478 132.864 22.5936 131.216 23.9312 130.394C25.2689 129.573 27.944 128.105 29.8816 127.133C31.817 126.158 33.6299 125.168 33.9079 124.927C34.1856 124.689 34.524 124.15 34.6601 123.73C34.8262 123.217 34.7769 122.693 34.5134 122.127C34.2348 121.533 33.0212 120.504 30.3748 118.618C28.314 117.15 25.1222 114.668 23.2795 113.102C21.4367 111.537 18.8729 109.172 17.5818 107.848C16.2908 106.524 14.4331 104.521 13.4529 103.399C12.473 102.275 10.8772 100.248 9.90948 98.8956C8.9395 97.5401 7.49653 95.3445 6.70359 94.0107C5.91065 92.6769 4.8454 90.7628 4.33463 89.7569C3.82646 88.7514 2.95217 86.6811 2.39372 85.1594C1.83528 83.6378 1.10886 81.052 0.781481 79.4134C0.454105 77.7749 0.122066 75.3564 0.0407236 74.0386C-0.0690613 72.2207 0.0341682 70.7988 0.470759 68.1471C0.843792 65.8838 1.33651 63.8942 1.87157 62.5068C2.32575 61.3262 3.25022 59.4794 3.92977 58.4004C4.60672 57.321 5.88253 55.6046 6.76069 54.5869C7.63885 53.5693 9.25369 51.9975 10.3449 51.0958C11.4361 50.1942 13.3736 48.8575 14.6477 48.1236C15.9214 47.3923 18.0688 46.3693 19.4192 45.8535C20.7696 45.3377 23.1549 44.6584 24.7185 44.3431C26.2822 44.0279 28.5244 43.6955 29.6988 43.6019C30.8728 43.511 33.489 43.5125 35.5123 43.6077C37.5356 43.7029 40.6454 44.0319 42.4258 44.3404C44.2036 44.6485 47.2124 45.327 49.1121 45.8482C51.0114 46.372 53.9271 47.3139 55.5936 47.9465C57.2606 48.5766 60.4795 49.9757 62.7438 51.0569C65.0084 52.1355 68.3596 53.8996 70.1909 54.9778C72.0224 56.0534 74.7197 57.8059 76.1881 58.8686C77.6562 59.9339 80.1112 61.7439 81.64 62.8959C83.1691 64.0453 84.6002 65.0031 84.8144 65.0241C85.0288 65.0425 85.5457 64.8364 85.9596 64.565C86.3732 64.2961 86.8774 63.8269 87.0784 63.524C87.3213 63.1602 87.7162 60.7623 88.2515 56.4028C88.842 51.593 89.3395 48.6608 90.1067 45.4684C90.6841 43.0691 91.6193 39.7362 92.1869 38.0622C92.7571 36.3886 93.8256 33.6057 94.5632 31.8813C95.3035 30.1572 96.5711 27.5177 97.3815 26.0188C98.1918 24.5199 99.6755 22.0575 100.68 20.5456C101.685 19.0336 103.09 17.0661 103.802 16.1734C104.514 15.2807 105.906 13.6973 106.895 12.6563C107.885 11.6154 109.781 9.83772 111.107 8.70594C112.435 7.57188 114.873 5.81583 116.523 4.80045C118.361 3.66822 120.65 2.54641 122.429 1.90349C124.024 1.32536 126.185 0.687143 127.228 0.484884Z" fill="#0255E7"/>
<path d="M127.67 3.33704C129.004 3.1309 131.045 2.97464 132.206 2.98777C133.367 3.0035 134.61 3.03727 134.971 3.06577C135.33 3.09395 136.723 3.37068 138.067 3.68102C139.411 3.99396 141.189 4.51609 142.021 4.84542C142.853 5.17214 144.473 6.02896 145.619 6.74824C146.765 7.46752 148.565 8.79817 149.617 9.70402C150.669 10.6099 152.2 12.1294 153.016 13.0777C153.835 14.0264 155.254 15.9654 156.169 17.3854C157.086 18.8058 158.4 21.1071 159.09 22.4996C159.778 23.8918 160.865 26.4928 161.505 28.278C162.142 30.063 162.98 32.8105 163.368 34.3852C163.757 35.9599 164.311 38.6118 164.603 40.2829C164.892 41.9538 165.255 44.7618 165.406 46.5241C165.557 48.2863 165.705 51.5144 165.736 53.6977C165.766 55.8811 165.639 59.8468 165.454 62.5136C165.267 65.1801 164.942 68.1705 164.733 69.162C164.517 70.187 164.409 71.5396 164.487 72.3021C164.561 73.0377 164.81 73.9586 165.042 74.3517C165.283 74.759 165.435 75.602 165.334 77.571L166.477 76.866C167.369 76.3177 167.882 76.1904 168.808 76.2883C169.88 76.4014 170.366 76.2101 173.806 74.3287C175.902 73.1832 179.001 71.6245 180.693 70.8627C182.385 70.1009 185.508 68.8807 187.633 68.1509C189.758 67.4184 193.152 66.4243 195.173 65.938C197.193 65.4517 200.541 64.8324 202.609 64.5632C204.677 64.2914 208.222 64.008 210.483 63.929C213.424 63.8278 216.01 63.9286 219.557 64.2901C222.285 64.5643 225.558 65.0244 226.832 65.3076C228.105 65.5933 230.288 66.2206 231.682 66.7036C233.076 67.1839 235.171 68.054 236.334 68.6328C237.497 69.2141 239.221 70.1972 240.162 70.8226C241.103 71.4454 242.517 72.5147 243.306 73.1954C244.094 73.8787 245.408 75.1867 246.226 76.1008C247.044 77.0176 248.124 78.5293 248.626 79.4627C249.124 80.3957 249.843 82.0296 250.223 83.0933C250.6 84.1567 251.087 85.9998 251.308 87.1895C251.527 88.3788 251.741 90.2465 251.784 91.3429C251.834 92.6093 251.644 94.6994 251.26 97.0908C250.927 99.1582 250.356 101.701 249.99 102.747C249.621 103.79 248.753 105.826 248.061 107.266C247.371 108.705 246.023 111.097 245.067 112.578C244.113 114.059 242.513 116.241 241.514 117.426C240.515 118.611 238.293 120.888 236.58 122.487C234.864 124.086 231.989 126.409 230.188 127.646C228.386 128.886 225.805 130.54 224.451 131.32C223.097 132.102 220.473 133.457 218.621 134.334C216.769 135.211 213.757 136.493 211.928 137.182C210.099 137.872 208.372 138.595 208.091 138.793C207.811 138.988 207.485 139.466 207.367 139.85C207.203 140.385 206.863 140.639 205.918 140.928C205.238 141.135 204.675 141.364 204.667 141.434C204.658 141.505 205.148 141.863 205.759 142.229C206.605 142.737 206.874 143.066 206.903 143.624C206.925 144.026 207.125 144.576 207.348 144.844C207.572 145.112 209.122 146.301 210.795 147.484C212.466 148.667 214.647 150.274 215.642 151.057C216.636 151.836 218.411 153.37 219.585 154.463C220.759 155.558 222.614 157.41 223.704 158.58C224.795 159.752 226.595 161.939 227.7 163.443C228.808 164.945 230.195 167.065 230.78 168.154C231.365 169.243 232.199 170.949 232.632 171.948C233.064 172.947 233.774 174.933 234.211 176.369C234.645 177.804 235.182 180.364 235.401 182.063C235.68 184.227 235.732 186.09 235.57 188.292C235.433 190.183 235.087 192.455 234.702 193.998C234.352 195.408 233.584 197.573 232.997 198.808C232.409 200.044 231.365 201.876 230.673 202.882C229.981 203.886 228.555 205.555 227.506 206.588C226.454 207.621 224.699 209.044 223.608 209.75C222.517 210.456 220.807 211.404 219.806 211.854C218.804 212.304 216.722 213.055 215.174 213.523C213.627 213.988 211.002 214.553 209.339 214.772C207.676 214.993 205.243 215.199 203.931 215.228C202.564 215.258 199.27 215.002 196.209 214.623C192.382 214.151 190.078 213.736 188.064 213.156C186.52 212.71 184.06 211.914 182.599 211.386C181.139 210.858 178.873 209.943 177.564 209.351C176.254 208.763 174.126 207.709 172.83 207.008C171.533 206.31 168.662 204.531 166.444 203.054C164.226 201.576 162.085 200.138 161.683 199.856C161.267 199.565 160.338 199.271 159.521 199.171C158.656 199.067 157.902 198.819 157.615 198.548C157.355 198.3 156.997 198.076 156.818 198.049C156.618 198.019 156.45 198.352 156.381 198.912C156.315 199.456 155.956 200.183 155.491 200.718C155.063 201.21 154.62 201.958 154.505 202.38C154.392 202.802 153.919 205.774 153.453 208.988C152.863 213.058 152.319 215.834 151.657 218.146C151.134 219.971 150.321 222.545 149.852 223.869C149.38 225.193 148.437 227.542 147.755 229.093C147.072 230.645 145.889 233.054 145.123 234.45C144.357 235.846 142.952 238.141 141.999 239.549C141.047 240.956 139.436 243.078 138.418 244.261C137.401 245.444 135.59 247.295 134.398 248.375C133.204 249.451 131.132 251.02 129.795 251.86C128.458 252.697 126.482 253.759 125.408 254.222C124.334 254.685 122.655 255.292 121.674 255.573C120.694 255.852 118.684 256.255 117.204 256.464C115.096 256.763 113.725 256.774 110.855 256.52C107.78 256.245 106.82 256.058 104.853 255.355C103.565 254.893 101.814 254.149 100.96 253.701C100.106 253.253 98.5286 252.301 97.4537 251.585C96.379 250.866 94.6476 249.47 93.6069 248.476C92.5658 247.484 90.7453 245.372 89.5581 243.783C88.3712 242.193 86.7197 239.564 85.8835 237.937C85.0496 236.313 83.9507 233.919 83.4464 232.624C82.9396 231.328 82.1675 228.855 81.7267 227.129C81.2885 225.403 80.6943 222.537 80.4079 220.758C80.1189 218.979 79.8228 216.031 79.7458 214.204C79.6712 212.38 79.6506 209.405 79.7038 207.594C79.7608 205.58 80.0903 202.445 80.5487 199.508C81.2852 194.78 81.2879 194.693 80.8128 193.332C80.5492 192.573 80.3861 191.512 80.4493 190.976C80.5152 190.439 80.4807 189.989 80.3736 189.978C80.2668 189.965 79.7997 190.132 79.3368 190.35C78.7057 190.648 78.2083 190.674 77.3413 190.459C76.3048 190.205 75.8495 190.297 72.8694 191.366C71.0446 192.022 68.256 192.929 66.6751 193.385C65.0942 193.84 62.2726 194.522 60.4104 194.901C58.5483 195.28 55.8761 195.734 54.472 195.913C53.0678 196.092 50.4846 196.316 48.7285 196.412C46.4139 196.537 43.9924 196.436 39.9209 196.039C36.2572 195.679 33.4136 195.269 31.7417 194.852C30.3311 194.502 28.1501 193.862 26.8949 193.43C25.64 192.996 23.5454 192.147 22.2374 191.543C20.9294 190.938 18.7586 189.742 17.41 188.886C16.0618 188.029 14.2587 186.722 13.4065 185.978C12.5544 185.234 11.0228 183.566 10.0058 182.271C8.98842 180.978 7.77144 179.159 7.3015 178.229C6.82897 177.3 6.1788 175.793 5.85467 174.882C5.52793 173.97 5.06841 172.309 4.83329 171.19C4.59525 170.072 4.36652 168.319 4.32293 167.296C4.27673 166.273 4.44516 163.739 4.69757 161.662C4.98669 159.264 5.40582 157.099 5.84395 155.726C6.2223 154.539 7.1077 152.386 7.8102 150.948C8.51271 149.51 9.84129 147.234 10.7643 145.895C11.6899 144.555 13.3222 142.497 14.3942 141.321C15.4689 140.145 17.9981 137.885 20.0192 136.297C22.0401 134.712 25.098 132.622 26.8157 131.655C28.5334 130.687 31.3203 129.299 33.0089 128.569C34.6978 127.835 36.4319 127.036 36.8611 126.791C37.3047 126.536 37.7417 126.011 37.869 125.578C38.0405 124.999 38.3629 124.719 39.2004 124.42C39.8083 124.204 40.3192 123.939 40.3323 123.833C40.348 123.726 39.968 123.442 39.485 123.2C38.8873 122.902 38.5294 122.48 38.3504 121.872C38.2045 121.381 37.8944 120.764 37.6602 120.498C37.4231 120.234 35.3648 118.745 33.0845 117.191C30.8045 115.635 28.0736 113.662 27.0159 112.805C25.9582 111.949 24.1253 110.411 22.9426 109.389C21.7599 108.366 19.8409 106.561 18.678 105.378C17.5154 104.191 15.5379 101.98 14.2868 100.461C13.0327 98.9436 11.1898 96.4109 10.1887 94.8349C9.19026 93.2592 7.7782 90.7689 7.0497 89.2977C6.32381 87.8268 5.48507 85.9406 5.18323 85.1056C4.88399 84.271 4.3442 82.3607 3.98623 80.8637C3.62826 79.3667 3.22717 77.0586 3.09375 75.7344C2.91303 73.9131 2.96688 72.3768 3.32438 69.4221C3.70613 66.2485 3.95408 65.0901 4.65633 63.2451C5.13215 61.9957 6.22551 59.8711 7.08862 58.524C7.94913 57.1766 9.46108 55.2804 10.4467 54.313C11.4324 53.3455 13.2821 51.9056 14.5521 51.1184C15.8248 50.3315 17.9724 49.2636 19.3254 48.7481C20.6758 48.2323 23.0644 47.5481 24.6283 47.2302C26.1926 46.9098 28.9109 46.5751 30.666 46.4868C32.4211 46.3985 35.5626 46.4698 37.6501 46.6442C40.6505 46.8964 42.3528 47.1952 45.8003 48.0677C48.1966 48.6763 51.241 49.5388 52.5681 49.9871C53.8953 50.4354 56.3948 51.3869 58.1225 52.1037C59.8501 52.8204 62.6094 54.0892 64.2507 54.9274C65.8924 55.763 68.1762 57.0078 69.3295 57.6883C70.4825 58.3715 72.9024 59.9499 74.7132 61.1947C76.5237 62.4421 79.359 64.5339 81.0137 65.844C83.777 68.0274 84.1422 68.2386 85.455 68.4157C86.4978 68.5543 87.0771 68.7866 87.5965 69.2704C87.9877 69.6355 88.4041 69.861 88.521 69.7697C88.6376 69.6809 88.6969 69.3052 88.6525 68.9351C88.5991 68.4874 88.8612 67.8168 90.3102 65.5721L90.8868 59.4343C91.2663 55.3965 91.7258 52.0633 92.2232 49.6912C92.6411 47.7082 93.3156 44.8189 93.7224 43.2704C94.1267 41.7217 94.919 39.1427 95.4829 37.5423C96.0442 35.9415 97.0114 33.4447 97.6335 31.9941C98.2557 30.5434 99.2271 28.4646 99.7895 27.3712C100.355 26.2782 101.416 24.3875 102.153 23.1701C102.889 21.9528 104.295 19.8665 105.272 18.5335C106.253 17.2008 108.069 15.046 109.307 13.745C110.542 12.4436 112.752 10.4562 114.217 9.32832C115.683 8.19786 117.894 6.76528 119.133 6.14075C120.373 5.51622 122.255 4.71435 123.316 4.35853C124.378 4.00272 126.337 3.54317 127.67 3.33704Z" fill="#0254E9"/>
<path d="M126.756 1.63435C127.838 1.41054 129.681 1.17177 130.852 1.10421C132.023 1.03406 133.92 1.08464 135.067 1.21228C136.214 1.34253 138.186 1.74845 139.449 2.11491C140.712 2.48397 142.586 3.19226 143.616 3.69126C144.644 4.18995 146.418 5.25851 147.553 6.06367C148.689 6.86884 150.313 8.16474 151.161 8.94255C152.009 9.72037 153.622 11.4772 154.746 12.8515C155.87 14.2233 157.39 16.3121 158.122 17.4931C158.855 18.6716 159.976 20.7114 160.613 22.026C161.252 23.3409 162.246 25.6611 162.825 27.1853C163.405 28.7095 164.243 31.309 164.69 32.9623C165.137 34.6156 165.686 36.8811 165.911 37.9998C166.136 39.1159 166.454 40.9382 166.619 42.0496C166.784 43.1583 167.054 45.8678 167.217 48.0674C167.381 50.267 167.507 53.6695 167.499 55.6315C167.491 57.5934 167.245 61.7243 166.951 64.8109C166.659 67.8978 166.218 71.4421 165.971 72.6824C165.574 74.6917 165.485 74.8975 165.153 74.5635C164.949 74.3561 164.679 73.5198 164.554 72.7066C164.392 71.659 164.438 70.6607 164.717 69.2921C164.932 68.2274 165.262 65.1794 165.449 62.513C165.639 59.8468 165.766 55.8811 165.736 53.6977C165.705 51.5144 165.557 48.2863 165.406 46.5241C165.255 44.7618 164.892 41.9538 164.603 40.2829C164.311 38.6118 163.757 35.9599 163.368 34.3852C162.98 32.8105 162.142 30.063 161.505 28.278C160.865 26.4928 159.778 23.8918 159.09 22.4996C158.4 21.1071 157.086 18.8058 156.169 17.3854C155.254 15.9654 153.835 14.0264 153.016 13.0777C152.2 12.1294 150.669 10.6099 149.617 9.70402C148.565 8.79817 146.765 7.46752 145.619 6.74824C144.473 6.02896 142.853 5.17214 142.021 4.84542C141.189 4.51609 139.352 3.98401 137.938 3.65723C136.098 3.23314 134.582 3.05489 132.598 3.02271C131.076 2.99962 128.796 3.14501 127.537 3.34708C126.278 3.54915 124.378 4.00271 123.316 4.35853C122.255 4.71435 120.373 5.51622 119.133 6.14075C117.894 6.76528 115.683 8.19786 114.217 9.32832C112.752 10.4562 110.542 12.4436 109.307 13.745C108.069 15.046 106.253 17.2008 105.272 18.5335C104.295 19.8665 102.889 21.9528 102.153 23.1701C101.416 24.3875 100.355 26.2782 99.7895 27.3712C99.2271 28.4646 98.2557 30.5434 97.6335 31.9941C97.0114 33.4447 96.0442 35.9415 95.4829 37.5423C94.919 39.1427 94.1267 41.7217 93.7224 43.2704C93.3156 44.8189 92.6411 47.7082 92.2232 49.6912C91.7293 52.0347 91.2634 55.4199 90.8896 59.3686C90.3351 65.1973 90.2863 65.4872 88.8979 67.7764L88.7523 66.7017C88.665 66.0569 89.0499 61.9749 89.7097 56.5158C90.4556 50.3328 91.0167 46.6237 91.4546 44.9734C91.8118 43.6356 92.4918 41.2832 92.9689 39.7434C93.4486 38.204 94.4212 35.4701 95.1366 33.6689C95.8493 31.8675 97.0125 29.2178 97.7179 27.7774C98.4259 26.3373 99.9171 23.7278 101.036 21.9762C102.155 20.2247 103.836 17.8155 104.77 16.6224C105.704 15.4294 107.444 13.4423 108.634 12.2093C109.826 10.9767 112.094 8.99362 113.675 7.806C115.258 6.62131 117.629 5.11065 118.944 4.4531C120.259 3.79816 122.113 2.98497 123.064 2.64988C124.014 2.31479 125.674 1.85816 126.756 1.63435Z" fill="#0254EE"/>
<path d="M211.239 62.08C213.353 62.041 215.553 62.0259 216.132 62.0467C216.711 62.0676 218.945 62.2811 221.095 62.524C223.246 62.7643 226.046 63.2085 227.317 63.5098C228.588 63.8112 230.542 64.3629 231.659 64.7326C232.777 65.1023 234.704 65.8752 235.941 66.4525C237.178 67.0297 239.182 68.1476 240.393 68.9357C241.604 69.7264 243.291 70.9691 244.143 71.6972C244.994 72.4278 246.523 74.0316 247.537 75.2605C248.555 76.4897 249.878 78.4355 250.482 79.5849C251.086 80.7343 251.801 82.2963 252.072 83.0562C252.341 83.8157 252.766 85.3236 253.016 86.4084C253.263 87.493 253.514 89.5448 253.574 90.9682C253.652 92.8984 253.525 94.5129 253.073 97.3133C252.563 100.453 252.244 101.629 251.129 104.472C250.394 106.345 249.097 109.097 248.247 110.591C247.4 112.085 245.815 114.49 244.731 115.937C243.645 117.381 241.674 119.696 240.352 121.08C239.027 122.462 236.03 125.09 233.688 126.922C231.347 128.753 228.21 130.97 226.722 131.847C225.235 132.726 222.747 134.088 221.197 134.875C219.647 135.66 216.939 136.904 215.176 137.636C213.413 138.371 210.888 139.326 207.154 140.551L207.393 139.854C207.524 139.471 207.789 139.017 207.979 138.848C208.169 138.678 209.883 137.951 211.79 137.234C213.693 136.519 216.768 135.214 218.62 134.337C220.472 133.46 223.097 132.102 224.451 131.32C225.805 130.54 228.386 128.886 230.188 127.646C231.989 126.409 234.864 124.086 236.58 122.487C238.293 120.888 240.515 118.611 241.514 117.426C242.513 116.241 244.113 114.059 245.067 112.578C246.023 111.097 247.371 108.705 248.061 107.266C248.753 105.826 249.621 103.793 249.99 102.747C250.356 101.704 250.927 99.1582 251.26 97.0908C251.644 94.6994 251.834 92.6093 251.784 91.3429C251.741 90.2491 251.527 88.3788 251.308 87.1895C251.087 85.9998 250.6 84.1567 250.223 83.0933C249.843 82.0296 249.124 80.3957 248.626 79.4627C248.124 78.5293 247.044 77.0176 246.226 76.1008C245.408 75.1867 244.094 73.8787 243.306 73.1954C242.517 72.5147 241.103 71.4454 240.162 70.8226C239.221 70.1972 237.497 69.2141 236.334 68.6328C235.171 68.054 233.076 67.1839 231.682 66.7036C230.288 66.2206 228.105 65.5933 226.832 65.3076C225.558 65.0244 222.285 64.5643 219.557 64.2901C216.01 63.9286 213.424 63.8278 210.483 63.929C208.222 64.008 204.677 64.2914 202.609 64.5632C200.541 64.8324 197.193 65.4517 195.173 65.938C193.152 66.4243 189.758 67.4184 187.633 68.1509C185.508 68.8807 182.385 70.1009 180.693 70.8627C179.001 71.6245 175.895 73.177 173.794 74.3167C170.623 76.033 169.769 76.3825 168.786 76.3595C167.792 76.3379 167.654 76.2813 167.939 76.0046C168.128 75.8217 169.735 74.8327 171.513 73.8041C173.291 72.7728 175.696 71.4566 176.859 70.8755C178.02 70.2914 180.103 69.3161 181.487 68.7013C182.87 68.0892 185.863 66.9613 188.137 66.197C190.412 65.4301 193.864 64.4378 195.808 63.9949C197.752 63.552 201.155 62.9527 203.37 62.6673C205.586 62.3819 209.125 62.1164 211.239 62.08Z" fill="#0254EE"/>
<path d="M29.9576 44.7222C31.3474 44.6604 32.7792 44.601 33.1452 44.5905C33.5086 44.5796 36.0359 44.8318 38.7589 45.1477C41.4816 45.4661 44.8069 45.9774 46.1513 46.2852C47.4957 46.5929 49.6255 47.1556 50.8874 47.5325C52.1493 47.9093 54.5442 48.745 56.2092 49.3906C57.8742 50.0363 60.7518 51.2878 62.607 52.1708C64.4623 53.0538 67.0313 54.3864 68.3224 55.1288C69.6131 55.8738 72.0401 57.395 73.7214 58.5103C75.3998 59.6278 77.8083 61.3211 79.0735 62.2743C80.3386 63.2275 82.5583 64.9954 84.0088 66.2038C86.3831 68.1756 86.5795 68.4058 85.9745 68.49C85.6037 68.5396 84.9612 68.4555 84.5438 68.3038C84.1267 68.1496 82.484 66.9994 80.8941 65.7421C79.3039 64.4875 76.5237 62.4421 74.7132 61.1947C72.9024 59.9499 70.4825 58.3715 69.3295 57.6883C68.1762 57.0078 65.8924 55.763 64.2507 54.9274C62.6094 54.0892 59.8501 52.8204 58.1225 52.1037C56.3922 51.3866 53.8953 50.4354 52.5681 49.9871C51.241 49.5388 48.1966 48.6763 45.8003 48.0677C42.3528 47.1952 40.6505 46.8964 37.6501 46.6442C35.5626 46.4698 32.4211 46.3985 30.666 46.4868C28.9109 46.5751 26.1926 46.9098 24.6283 47.2302C23.0644 47.5481 20.6758 48.2323 19.3254 48.7481C17.9724 49.2636 15.8248 50.3315 14.5521 51.1184C13.2818 51.9082 11.4324 53.3455 10.4467 54.313C9.46076 55.283 7.94913 57.1766 7.08862 58.524C6.22551 59.8711 5.13215 61.9957 4.65633 63.2451C3.95408 65.0901 3.70613 66.2485 3.32438 69.4221C2.96688 72.3768 2.91303 73.9131 3.09375 75.7344C3.22717 77.0586 3.62826 79.3667 3.98623 80.8637C4.3442 82.3607 4.88399 84.271 5.18323 85.1056C5.48507 85.9406 6.32381 87.8268 7.0497 89.2977C7.7782 90.7689 9.19026 93.2592 10.1887 94.8349C11.1898 96.4109 13.0327 98.9436 14.2868 100.461C15.5379 101.98 17.567 104.245 18.7957 105.495C20.0244 106.745 22.5355 109.045 24.3788 110.606C26.2219 112.169 29.1526 114.452 30.8908 115.685C32.6293 116.916 34.7702 118.378 35.6457 118.932C36.5211 119.486 37.4572 120.235 37.7245 120.598C37.9889 120.964 38.2468 121.532 38.2957 121.865C38.3773 122.427 38.3354 122.446 37.6989 122.12C37.3237 121.925 35.0902 120.486 32.7405 118.916C30.3879 117.349 27.1121 114.97 25.4606 113.634C23.8064 112.298 21.758 110.577 20.9087 109.81C20.0595 109.043 18.3081 107.314 17.0197 105.969C15.7312 104.625 13.5978 102.154 12.2758 100.481C10.9537 98.8072 9.19744 96.3433 8.37034 95.0079C7.54355 93.67 6.36433 91.5649 5.7473 90.3267C5.13027 89.0885 4.2595 87.1401 3.81349 85.9942C3.36455 84.8506 2.71417 82.8078 2.36727 81.4575C2.01775 80.1068 1.60612 78.0352 1.45253 76.8539C1.29633 75.6723 1.18762 73.4582 1.20799 71.9363C1.23873 69.8133 1.40052 68.5386 1.90251 66.4735C2.26135 64.9932 2.96938 62.8213 3.47563 61.647C3.98188 60.4728 4.97143 58.6339 5.67702 57.5581C6.38521 56.4826 7.83039 54.6998 8.8886 53.5933C9.94941 52.4871 11.64 51.0303 12.6425 50.3555C13.6477 49.6811 15.2971 48.7106 16.3081 48.2033C17.3195 47.6934 19.2634 46.907 20.6273 46.4536C21.9915 45.9976 24.0807 45.4484 25.27 45.2325C26.4597 45.014 28.5679 44.784 29.9576 44.7222Z" fill="#0254EE"/>
<path d="M207.368 144.852C207.159 144.58 206.956 144.011 206.924 143.585C206.863 142.808 206.866 142.809 210.708 145.463C212.82 146.921 215.846 149.185 217.429 150.494C219.013 151.803 221.21 153.774 222.309 154.879C223.408 155.981 225.104 157.793 226.075 158.903C227.046 160.015 228.672 162.096 229.688 163.528C230.704 164.961 232.241 167.527 233.103 169.232C233.966 170.936 235.107 173.633 235.639 175.223C236.17 176.813 236.78 179.207 236.992 180.541C237.206 181.875 237.43 183.984 237.492 185.226C237.554 186.467 237.445 188.773 237.252 190.348C237.058 191.923 236.606 194.187 236.246 195.376C235.886 196.566 235.164 198.44 234.641 199.538C234.12 200.637 233.252 202.195 232.714 203.001C232.179 203.807 231.065 205.244 230.242 206.198C229.419 207.151 227.789 208.673 226.62 209.584C225.451 210.494 223.603 211.749 222.511 212.376C221.42 213.001 219.22 213.996 217.62 214.587C216.02 215.178 213.857 215.855 212.811 216.089C211.765 216.325 210.124 216.623 209.162 216.75C208.2 216.878 206.458 217.034 205.287 217.096C204.117 217.161 201.505 217.123 199.483 217.012C197.05 216.88 194.676 216.581 192.456 216.128C190.613 215.751 187.787 215.048 186.173 214.567C184.56 214.083 181.94 213.165 180.345 212.525C178.751 211.883 175.938 210.581 174.094 209.631C172.249 208.68 168.815 206.623 166.462 205.058C164.112 203.491 161.323 201.495 158.349 199.032L159.651 199.187C160.367 199.274 161.282 199.574 161.683 199.856C162.085 200.138 164.226 201.576 166.444 203.054C168.662 204.531 171.536 206.31 172.83 207.008C174.126 207.709 176.256 208.763 177.564 209.351C178.873 209.943 181.139 210.858 182.599 211.386C184.062 211.914 186.52 212.71 188.064 213.156C190.078 213.736 192.382 214.151 196.209 214.623C199.27 215.002 202.564 215.258 203.931 215.228C205.243 215.199 207.676 214.993 209.339 214.772C211.002 214.553 213.627 213.988 215.174 213.523C216.722 213.055 218.804 212.304 219.806 211.854C220.807 211.404 222.517 210.456 223.608 209.75C224.699 209.044 226.454 207.621 227.506 206.588C228.555 205.555 229.981 203.888 230.673 202.882C231.364 201.878 232.409 200.044 232.997 198.808C233.584 197.573 234.352 195.408 234.702 193.998C235.087 192.455 235.433 190.183 235.57 188.292C235.732 186.09 235.68 184.227 235.401 182.063C235.182 180.364 234.645 177.804 234.211 176.369C233.774 174.933 233.064 172.947 232.632 171.948C232.199 170.949 231.365 169.243 230.78 168.154C230.195 167.065 228.808 164.945 227.7 163.443C226.595 161.939 224.795 159.752 223.704 158.58C222.614 157.41 220.759 155.558 219.585 154.463C218.411 153.37 216.638 151.837 215.642 151.057C214.65 150.274 212.468 148.669 210.795 147.489C209.124 146.309 207.581 145.121 207.368 144.852Z" fill="#0254EE"/>
<path d="M30.3709 127.991C31.722 127.341 33.9781 126.357 35.3828 125.809C36.7878 125.257 37.9683 124.898 38.0024 125.007C38.0368 125.115 37.9033 125.513 37.7067 125.888C37.5126 126.263 37.0656 126.718 36.7156 126.9C36.3656 127.081 34.6985 127.83 33.0096 128.563C31.3206 129.296 28.5334 130.687 26.8157 131.655C25.098 132.622 22.0401 134.712 20.0192 136.297C17.9981 137.885 15.4689 140.145 14.3942 141.321C13.3222 142.497 11.6899 144.555 10.7643 145.895C9.84129 147.234 8.51271 149.51 7.8102 150.948C7.1077 152.386 6.2223 154.539 5.84395 155.726C5.40582 157.099 4.98669 159.264 4.69757 161.662C4.44516 163.739 4.27673 166.273 4.32293 167.296C4.36652 168.319 4.59525 170.072 4.83329 171.19C5.06841 172.309 5.52793 173.97 5.85467 174.882C6.1788 175.793 6.82897 177.3 7.3015 178.229C7.77144 179.159 8.98842 180.978 10.0058 182.271C11.0228 183.566 12.5544 185.234 13.4065 185.978C14.2613 186.722 16.0618 188.029 17.41 188.886C18.7586 189.742 20.932 190.938 22.2374 191.543C23.5454 192.147 25.64 192.996 26.8949 193.43C28.1501 193.862 30.3311 194.502 31.7417 194.852C33.4136 195.269 36.2572 195.679 39.9209 196.039C43.9924 196.436 46.4139 196.537 48.7285 196.412C50.4846 196.316 53.0704 196.092 54.472 195.913C55.8761 195.734 58.5483 195.28 60.4104 194.901C62.2752 194.522 65.0942 193.84 66.6751 193.385C68.2586 192.929 70.9851 192.033 72.7337 191.394C75.119 190.522 76.1917 190.265 77.0229 190.362C77.6325 190.434 78.1157 190.61 78.0981 190.753C78.0806 190.896 77.0946 191.414 75.9087 191.903C74.7226 192.394 72.3527 193.292 70.6424 193.898C68.9317 194.507 66.2107 195.359 64.5956 195.792C62.9805 196.226 60.2602 196.835 58.5492 197.145C56.8408 197.456 53.9964 197.849 52.2314 198.018C50.4667 198.184 47.774 198.332 46.2452 198.342C44.7189 198.353 41.9948 198.262 40.192 198.135C38.2816 198.004 35.466 197.603 33.4387 197.174C31.5276 196.768 28.8175 196.068 27.4194 195.616C26.0209 195.167 23.5271 194.168 21.8768 193.403C20.2269 192.635 17.9436 191.385 16.7999 190.627C15.6588 189.868 13.8197 188.467 12.7156 187.515C11.6118 186.56 9.98433 184.921 9.09635 183.866C8.21099 182.811 6.89625 180.927 6.18028 179.677C5.46171 178.426 4.45002 176.162 3.93323 174.646C3.41644 173.129 2.82144 170.678 2.61448 169.2C2.27097 166.746 2.29002 166.095 2.83009 161.697C3.35743 157.423 3.53451 156.584 4.42336 154.231C4.97486 152.774 6.06345 150.409 6.84146 148.98C7.61947 147.551 8.81379 145.616 9.49139 144.682C10.1716 143.748 11.4581 142.16 12.3538 141.15C13.2493 140.142 15.0514 138.358 16.358 137.187C17.6646 136.016 19.7747 134.328 21.0472 133.435C22.3193 132.545 24.3847 131.222 25.6367 130.495C26.8887 129.769 29.0195 128.644 30.3709 127.991Z" fill="#0254EE"/>
<path d="M154.515 202.381C154.633 201.96 155.036 201.235 155.41 200.774L156.092 199.933L156.159 200.998C156.199 201.584 156.045 203.586 155.822 205.448C155.599 207.31 155.087 210.576 154.682 212.706C154.278 214.835 153.528 218.014 153.017 219.766C152.503 221.521 151.578 224.258 150.959 225.854C150.34 227.451 149.098 230.27 148.197 232.12C147.296 233.97 145.644 236.919 144.528 238.671C143.411 240.422 141.681 242.826 140.687 244.011C139.693 245.197 138.251 246.803 137.487 247.581C136.723 248.359 135.105 249.809 133.891 250.804C132.677 251.799 130.404 253.351 128.84 254.25C127.22 255.182 124.692 256.327 122.963 256.915C121.295 257.482 118.72 258.111 117.241 258.318C115.246 258.596 113.676 258.62 111.151 258.411C109.051 258.235 107.018 257.914 105.837 257.57C104.786 257.262 103.022 256.601 101.92 256.101C100.819 255.599 98.9833 254.581 97.8377 253.838C96.6947 253.095 95.004 251.842 94.0831 251.055C93.1625 250.265 91.6238 248.763 90.6613 247.713C89.7011 246.665 88.2995 244.908 87.549 243.809C86.7986 242.71 85.6469 240.854 84.99 239.682C84.3302 238.513 83.2594 236.299 82.6072 234.766C81.9551 233.233 81.0092 230.562 80.5059 228.828C80.0026 227.094 79.3216 224.16 78.9921 222.302C78.6649 220.447 78.3034 217.665 78.191 216.127C78.076 214.588 77.9634 212.255 77.9394 210.944C77.9109 209.411 78.2326 205.865 78.8413 201.016C79.434 196.296 79.9231 193.239 80.1474 192.854C80.5023 192.245 80.5094 192.251 80.8906 193.474C81.2468 194.619 81.2217 195.06 80.5383 199.507C80.0957 202.38 79.7609 205.623 79.7038 207.594C79.6506 209.405 79.6712 212.38 79.7458 214.204C79.8228 216.031 80.1189 218.979 80.4079 220.758C80.6943 222.537 81.2885 225.403 81.7267 227.129C82.1675 228.855 82.9396 231.328 83.4464 232.624C83.9507 233.919 85.0496 236.313 85.8835 237.937C86.7197 239.564 88.3738 242.193 89.5581 243.783C90.7453 245.372 92.5658 247.484 93.6069 248.476C94.6476 249.47 96.379 250.866 97.4537 251.585C98.5286 252.301 100.106 253.253 100.96 253.701C101.814 254.149 103.565 254.893 104.853 255.355C106.82 256.058 107.78 256.245 110.855 256.52C113.725 256.774 115.096 256.763 117.204 256.464C118.684 256.255 120.697 255.852 121.674 255.573C122.655 255.292 124.334 254.685 125.408 254.222C126.482 253.759 128.458 252.697 129.795 251.86C131.135 251.02 133.204 249.451 134.398 248.375C135.59 247.295 137.401 245.444 138.418 244.261C139.436 243.078 141.047 240.956 141.999 239.549C142.952 238.141 144.357 235.846 145.123 234.45C145.889 233.054 147.072 230.645 147.755 229.093C148.437 227.542 149.38 225.193 149.852 223.869C150.321 222.545 151.134 219.971 151.657 218.146C152.319 215.834 152.863 213.058 153.453 208.988C153.918 205.777 154.397 202.803 154.515 202.381Z" fill="#0254EE"/>
<path d="M155.681 208.337C155.556 208.903 155.584 208.312 155.742 207.023C155.903 205.735 156.005 205.272 155.972 205.995C155.936 206.717 155.806 207.771 155.681 208.337Z" fill="#615563"/>
<path d="M89.7626 54.2766C89.6287 54.9154 89.6419 54.4414 89.7915 53.2234C89.941 52.0053 90.0498 51.485 90.0342 52.0643C90.0186 52.6436 89.8965 53.6379 89.7626 54.2766Z" fill="#384D38"/>
<path d="M166.825 68.0978C166.667 68.9503 166.697 68.3596 166.888 66.7846C167.081 65.21 167.209 64.5124 167.176 65.2349C167.14 65.957 166.982 67.2453 166.825 68.0978Z" fill="#49544C"/>
<path d="M237.247 191.933C237.105 192.642 237.125 192.111 237.292 190.749C237.459 189.388 237.576 188.808 237.551 189.46C237.524 190.112 237.387 191.223 237.247 191.933Z" fill="#49544C"/>
<path d="M78.4948 202.03C78.3522 202.739 78.3725 202.208 78.5396 200.847C78.7068 199.485 78.8229 198.905 78.7984 199.557C78.7712 200.209 78.6347 201.321 78.4948 202.03Z" fill="#49544C"/>
<path d="M136.641 1.31043C136.061 1.29477 135.007 1.1653 134.297 1.02532C133.588 0.882733 134.062 0.896015 135.351 1.05165C136.64 1.20989 137.22 1.32608 136.641 1.31043Z" fill="#88878B"/>
<path d="M40.3664 44.9699C39.7869 44.9543 38.7325 44.8248 38.0229 44.6848C37.3136 44.5422 37.7877 44.5555 39.0768 44.7111C40.3655 44.8694 40.9459 44.9856 40.3664 44.9699Z" fill="#CDCEE1"/>
<path d="M40.3345 45.2302C39.755 45.2145 38.7005 45.0851 37.9909 44.9451C37.2816 44.8025 37.7557 44.8158 39.0448 44.9714C40.3336 45.1297 40.914 45.2458 40.3345 45.2302Z" fill="#2F243B"/>
<path d="M128.832 4.64206C129.427 4.5302 130.511 4.41762 131.241 4.39362C131.971 4.36701 134.086 4.5713 135.942 4.84411C138.429 5.21023 139.778 5.54495 141.073 6.11072C142.038 6.53571 144.079 7.82194 145.61 8.97427C147.142 10.124 148.628 11.321 148.918 11.6339C149.207 11.9442 149.624 12.1645 149.849 12.1182C150.074 12.0718 150.408 12.2344 150.598 12.4744C150.856 12.8046 150.857 12.9288 150.603 12.9743C150.406 13.0108 150.655 13.4562 151.196 14.0379C151.71 14.5897 152.56 15.6293 153.088 16.3467C153.618 17.0643 154.04 17.7422 154.029 17.8493C154.019 17.9563 154.245 18.0739 154.531 18.109C154.818 18.1442 155.252 18.4643 155.493 18.8216C155.735 19.1788 155.908 19.7655 155.88 20.124C155.83 20.7255 155.85 20.7385 156.114 20.2848C156.352 19.8781 156.388 19.9512 156.327 20.7072C156.265 21.4632 156.301 21.5363 156.539 21.1296C156.697 20.8583 156.833 20.7562 156.842 20.9026C156.85 21.0489 156.811 21.4298 156.756 21.7507C156.694 22.1076 156.807 22.3513 157.046 22.3807C157.262 22.4072 157.362 22.5384 157.275 22.6729C157.187 22.8075 157.377 23.4306 157.699 24.0566C158.052 24.7392 158.494 25.2242 159.326 25.3395L158.779 25.489C158.281 25.626 158.272 25.6592 158.668 25.8532C158.907 25.9724 159.082 26.2449 159.056 26.4583C159.03 26.6717 159.451 28.0021 159.994 29.4135C160.536 30.8249 161.39 33.5161 161.892 35.3927C162.393 37.2719 163.052 40.3832 163.352 42.309C163.652 44.2348 164.018 45.9045 164.163 46.0174C164.31 46.1332 164.317 46.3982 164.179 46.6138C164.042 46.8321 164.048 47.0178 164.194 47.0357C164.347 47.0545 164.346 47.411 164.194 47.8943C164.026 48.4258 164.042 48.8769 164.238 49.1546C164.404 49.3943 164.478 50.2329 164.402 51.0241C164.326 51.8127 164.275 53.8882 164.29 55.6338C164.306 57.3794 164.406 59.344 164.51 59.9988C164.663 60.9476 164.635 61.1978 164.366 61.2361C164.181 61.2609 164.071 61.3769 164.121 61.4913C164.17 61.6056 163.983 63.6935 163.705 66.1296C163.427 68.5656 163.186 71.2996 163.173 72.2041C163.159 73.1113 163.059 73.8413 162.952 73.8282C162.845 73.8177 162.714 74.1293 162.666 74.5223C162.615 74.915 162.681 75.8451 162.809 76.5873C162.94 77.3299 163.18 78.041 163.345 78.1669C163.511 78.2957 164.963 78.5638 169.503 79.1265L172.639 77.2659C174.364 76.2413 175.921 75.4206 176.101 75.44C176.318 75.4649 176.307 75.3772 176.067 75.177C175.777 74.9353 175.819 74.8903 176.293 74.9459C176.617 74.9829 176.895 74.8665 176.912 74.6863C176.931 74.5064 176.996 74.4562 177.058 74.5722C177.121 74.6881 178.175 74.2839 179.399 73.6708C180.624 73.0576 182.237 72.2755 182.983 71.9311C183.728 71.5867 185.834 70.7515 187.661 70.075C189.488 69.3985 190.888 68.8279 190.772 68.8057C190.655 68.7835 190.732 68.6292 190.946 68.4625C191.159 68.2959 191.643 68.0408 192.025 67.8949C192.527 67.7029 192.726 67.7168 192.747 67.9386C192.763 68.1256 193.012 68.2064 193.382 68.1434C193.965 68.0485 193.969 68.0332 193.489 67.8105C193.086 67.6263 193.255 67.5176 194.35 67.2583C195.303 67.0319 195.718 67.03 195.739 67.2466C195.755 67.4176 195.948 67.518 196.173 67.4743C196.398 67.4305 196.601 67.2151 196.628 67.0017C196.661 66.7336 197.508 66.4651 199.31 66.1448C200.758 65.8893 202.909 65.5617 204.09 65.4187C205.27 65.2756 207.671 65.0923 209.425 65.0118C211.19 64.9299 213.012 64.9846 213.507 65.1351C214.07 65.3072 214.459 65.3022 214.565 65.125C214.678 64.9329 216.272 64.9991 219.561 65.3342C222.215 65.6046 225.291 66.0193 226.393 66.2524C227.751 66.538 228.455 66.8094 228.584 67.0947C228.719 67.3939 228.988 67.4877 229.527 67.4192C229.983 67.3642 231.085 67.6237 232.306 68.0748C233.419 68.4861 235.111 69.2329 236.067 69.7333C237.023 70.2312 238.682 71.2486 239.754 71.9931C240.825 72.7376 242.312 73.9505 243.056 74.6918C244.003 75.6323 244.288 76.0637 244.001 76.1209C243.712 76.1778 243.938 76.5516 244.782 77.4056C245.543 78.178 246.563 79.7722 247.619 81.8489C248.524 83.6297 249.353 85.6337 249.459 86.3019C249.597 87.1749 249.721 87.4121 249.907 87.1495C250.102 86.8723 250.209 86.9937 250.351 87.6664C250.497 88.35 250.463 88.5651 250.199 88.6226C249.947 88.6762 249.951 88.7955 250.219 89.0873C250.466 89.3529 250.539 90.0988 250.445 91.4426C250.373 92.5249 250.2 94.3451 250.064 95.4909C249.926 96.6364 249.648 98.4753 249.444 99.5757C249.237 100.676 248.982 101.567 248.876 101.553C248.769 101.54 248.655 101.735 248.625 101.985C248.594 102.235 248.096 103.452 247.516 104.689C246.938 105.926 245.924 107.88 245.264 109.036C244.602 110.191 244.032 111.368 243.996 111.654C243.942 112.073 243.895 112.093 243.754 111.756C243.624 111.439 243.446 111.592 243.02 112.393C242.711 112.973 242.503 113.571 242.558 113.723C242.614 113.875 242.298 114.489 241.862 115.091C241.423 115.692 240.95 116.168 240.807 116.15C240.664 116.133 240.532 116.235 240.514 116.378C240.497 116.522 240.134 117.042 239.709 117.534C239.284 118.026 238.73 118.405 238.483 118.375C238.179 118.336 237.977 118.553 237.877 119.027C237.792 119.415 237.614 119.66 237.479 119.572C237.345 119.485 236.781 119.711 236.228 120.079C235.675 120.447 235.206 120.865 235.189 121.008C235.171 121.152 235.339 121.23 235.563 121.186C235.894 121.119 235.869 121.216 235.435 121.694C235.141 122.02 234.728 122.244 234.514 122.196C234.301 122.146 232.914 123.049 231.427 124.2C229.941 125.349 228.711 126.437 228.694 126.618C228.677 126.798 228.401 127.15 228.082 127.401C227.57 127.803 227.499 127.808 227.478 127.417C227.459 127.079 227.131 127.208 226.075 127.971C225.303 128.531 224.869 128.988 225.088 129.015C225.304 129.041 225.407 129.173 225.316 129.307C225.226 129.441 224.86 129.515 224.503 129.471C224.144 129.427 223.838 129.509 223.821 129.652C223.803 129.795 223.679 129.838 223.544 129.75C223.41 129.662 223.228 129.698 223.138 129.832C223.047 129.966 223.18 130.115 223.427 130.164C223.859 130.246 223.858 130.251 223.411 130.294C223.155 130.318 222.535 130.672 222.035 131.084C221.289 131.695 221.094 131.756 220.954 131.413C220.803 131.046 220.716 131.043 220.256 131.373C219.969 131.578 217.719 132.636 215.26 133.723C212.801 134.809 210.628 135.802 210.431 135.926C210.233 136.052 209.984 136.14 209.878 136.125C209.772 136.106 208.6 136.438 207.276 136.862C205.945 137.285 204.724 137.846 204.546 138.117C204.367 138.386 204.057 139.922 203.854 141.533C203.542 144.01 203.549 144.536 203.896 144.959C204.121 145.235 204.917 145.808 205.663 146.233C206.412 146.66 207.675 147.497 208.474 148.095C209.273 148.695 210.276 149.238 210.704 149.306C211.132 149.372 212.27 150.024 213.235 150.753C214.451 151.674 214.934 152.195 214.81 152.455C214.703 152.677 214.791 152.849 215.022 152.877C215.239 152.904 215.397 153.013 215.379 153.119C215.36 153.225 215.941 153.833 216.667 154.466C217.395 155.1 218.252 155.657 218.574 155.699C218.896 155.744 219.872 156.519 220.742 157.418C221.611 158.32 222.301 159.203 222.274 159.382C222.247 159.561 223.485 161.335 225.027 163.323C226.57 165.312 228.02 166.977 228.252 167.022C228.482 167.066 228.879 167.426 229.132 167.819C229.385 168.215 229.722 168.909 229.886 169.365C230.046 169.821 230.215 170.555 230.256 170.996C230.327 171.715 230.362 171.746 230.61 171.303C230.846 170.883 230.881 170.877 230.849 171.267C230.829 171.518 230.957 171.745 231.137 171.769C231.371 171.801 231.372 171.854 231.141 171.968C230.92 172.073 231.259 173.38 232.217 176.124C232.985 178.326 233.776 181.158 233.976 182.416C234.271 184.254 234.268 185.48 233.97 188.624C233.756 190.878 233.37 193.354 233.058 194.456C232.762 195.511 231.98 197.317 231.325 198.471C230.668 199.624 229.994 201.029 229.825 201.589C229.646 202.185 228.896 203.298 228.015 204.273C226.746 205.678 226.497 205.854 226.3 204.855L225.96 205.342C225.774 205.609 224.853 206.416 223.914 207.133C222.974 207.852 221.249 208.948 220.076 209.567C218.903 210.19 216.893 211.065 215.608 211.518C214.324 211.968 212.048 212.613 210.554 212.95C209.058 213.29 206.876 213.629 205.703 213.707C204.531 213.783 203.399 213.969 203.187 214.117C202.939 214.29 202.751 214.288 202.66 214.105C202.573 213.931 200.232 213.543 196.53 213.088C192.827 212.634 190.462 212.444 190.335 212.592C190.2 212.747 190.02 212.706 189.82 212.481C189.651 212.289 189 211.95 188.372 211.725C187.529 211.423 187.173 211.393 186.999 211.604C186.822 211.822 186.729 211.806 186.611 211.535C186.527 211.342 185.946 210.991 185.32 210.755C184.693 210.52 183.602 210.22 182.891 210.085C182.181 209.95 181.553 209.725 181.499 209.584C181.445 209.442 180.332 208.822 179.026 208.205C177.719 207.587 176.447 207.056 176.197 207.025C175.947 206.994 175.559 206.759 175.337 206.502C175.01 206.124 174.89 206.096 174.715 206.36C174.546 206.614 174.125 206.467 172.768 205.679C171.804 205.117 171.184 204.616 171.367 204.54C171.551 204.465 170.708 203.754 169.434 202.916C168.19 202.095 166.85 201.381 166.458 201.327C166.065 201.274 165.416 200.986 165.017 200.688C164.617 200.391 164.311 199.975 164.337 199.765C164.363 199.554 163.679 198.844 162.813 198.19C161.249 197.002 161.228 196.997 158.312 196.639C155.878 196.34 155.293 196.348 154.853 196.677C154.56 196.894 154.099 197.702 153.828 198.466C153.557 199.231 153.139 200.757 152.901 201.856C152.574 203.377 152.55 203.86 152.797 203.89C153.034 203.917 153.044 204.568 152.835 206.27C152.665 207.657 152.441 208.599 152.287 208.581C152.144 208.563 151.969 209.017 151.899 209.59C151.829 210.162 151.888 210.645 152.031 210.663C152.175 210.68 152.27 210.869 152.244 211.085C152.217 211.301 152.088 211.491 151.959 211.512C151.827 211.533 151.308 213.282 150.805 215.4C150.304 217.518 149.431 220.56 148.865 222.163C148.3 223.766 147.103 226.649 146.206 228.573C145.309 230.497 144.056 232.959 143.423 234.044C142.788 235.128 142.319 236.17 142.38 236.359C142.441 236.549 141.916 237.555 141.213 238.594C140.511 239.633 139.787 240.643 139.607 240.84C139.357 241.116 139.334 241.021 139.517 240.433C139.729 239.743 139.69 239.762 139.108 240.647C138.754 241.185 138.437 241.83 138.403 242.08C138.366 242.337 138.142 242.507 137.884 242.476C137.635 242.442 137.151 242.769 136.812 243.202C136.471 243.634 135.82 244.328 135.367 244.745C134.912 245.162 134.578 245.684 134.622 245.908C134.666 246.133 134.308 246.652 133.827 247.066C133.345 247.479 132.965 247.671 132.982 247.49C132.999 247.31 132.889 247.21 132.738 247.262C132.586 247.315 132.432 247.624 132.397 247.947C132.363 248.27 132.049 248.736 131.704 248.985C131.264 249.298 131.056 249.333 131.019 249.099C130.983 248.854 130.807 248.869 130.383 249.153C130.061 249.367 129.784 249.689 129.767 249.87C129.75 250.05 129.617 250.182 129.474 250.164C129.331 250.146 129.259 250.256 129.312 250.408C129.365 250.56 129.126 250.829 128.776 251.006C128.427 251.182 127.937 251.299 127.687 251.268C127.437 251.235 126.188 251.726 124.91 252.356C123.634 252.984 121.724 253.767 120.667 254.094C119.609 254.419 118.259 254.763 117.666 254.859C117.072 254.955 116.452 255.167 116.287 255.329C116.121 255.491 115.576 255.562 115.078 255.487C114.58 255.413 112.927 255.287 111.412 255.209C109.745 255.12 108.103 254.89 107.256 254.622C106.422 254.356 105.819 254.271 105.762 254.407C105.709 254.538 105.282 254.446 104.791 254.2C104.308 253.959 103.929 253.645 103.947 253.502C103.967 253.359 103.879 253.365 103.753 253.513C103.588 253.709 103.224 253.643 102.401 253.265C101.781 252.977 100.069 251.919 98.5935 250.911C96.5459 249.508 95.9268 248.954 95.9753 248.558C96.0105 248.272 95.7904 247.891 95.4851 247.708C95.1798 247.525 94.9409 247.319 94.9576 247.247C94.9744 247.175 94.6123 246.745 94.1528 246.289C93.6438 245.786 93.3497 245.62 93.3987 245.867C93.4425 246.091 93.3924 246.262 93.2853 246.252C93.1786 246.238 92.167 245.028 91.0389 243.561C89.9109 242.094 89.1845 240.993 89.4233 241.114C89.6621 241.236 89.8658 241.277 89.8745 241.207C89.8831 241.136 89.6178 240.628 89.2863 240.078C88.9545 239.53 88.4765 239.054 88.2265 239.023C87.9766 238.992 87.7853 238.85 87.8029 238.707C87.8204 238.564 87.9607 238.433 88.1162 238.415C88.2691 238.397 87.7837 237.27 87.0363 235.91C86.2108 234.411 85.5946 233.553 85.4743 233.737C85.3582 233.907 84.8344 232.9 84.2597 231.403C83.581 229.634 83.3345 228.65 83.5074 228.404C83.676 228.171 83.5399 227.256 83.1262 225.848C82.7747 224.642 82.4353 223.145 82.3747 222.519C82.3001 221.728 82.1621 221.431 81.9216 221.539C81.6882 221.646 81.6467 221.574 81.7971 221.325C81.9174 221.121 81.9118 220.349 81.7862 219.607C81.6605 218.865 81.4591 217.234 81.3402 215.985C81.2186 214.736 81.1224 212.701 81.1232 211.467C81.124 210.234 81.1986 207.625 81.2899 205.675C81.4057 203.183 81.6816 200.979 82.2215 198.26C82.6607 196.04 83.017 193.439 83.0558 192.154C83.1039 190.644 83.0019 189.73 82.7405 189.342C82.4052 188.843 81.9546 188.703 79.414 188.302C77.5575 188.01 76.2682 187.921 75.9178 188.063C75.3895 188.275 75.3954 188.292 76.0115 188.375C76.6403 188.463 76.6332 188.478 75.7514 188.88C75.2502 189.109 74.5497 189.261 74.1904 189.216C73.8311 189.172 73.5216 189.282 73.497 189.462C73.4749 189.641 72.9867 189.98 72.4129 190.219C71.8005 190.471 71.2196 190.553 71.0046 190.41C70.7745 190.261 69.1506 190.658 66.6452 191.476C64.448 192.194 61.2474 193.077 59.5326 193.44C57.6877 193.829 56.6207 194.169 56.9205 194.266C57.2126 194.363 56.5109 194.567 55.2756 194.748C54.0917 194.92 51.4445 195.171 49.3928 195.307C46.1741 195.52 44.8225 195.465 39.5322 194.9C34.7112 194.387 33.1616 194.136 32.276 193.729C31.6556 193.444 29.9487 192.817 28.4828 192.336C27.017 191.855 25.4637 191.418 25.0341 191.365C24.6046 191.313 23.3238 190.831 22.1901 190.292C21.0537 189.754 20.1805 189.203 20.2476 189.066C20.3146 188.929 19.3754 188.119 18.1616 187.264C16.9451 186.409 15.3796 185.147 14.6844 184.459C13.7629 183.548 13.3631 183.296 13.2124 183.534C13.0687 183.756 12.4431 183.191 11.1885 181.7C9.91067 180.183 9.38433 179.346 9.41715 178.886C9.44531 178.527 9.02231 177.344 8.48143 176.261C7.93795 175.177 7.19554 173.302 6.82846 172.095C6.46137 170.887 6.06648 169.175 5.94803 168.288C5.83218 167.402 5.82853 165.322 5.9423 163.664C6.05926 161.98 6.41598 159.548 6.75156 158.149C7.13615 156.545 7.80821 154.731 8.61959 153.095C9.31534 151.69 9.95837 150.134 10.051 149.638C10.141 149.142 10.8545 147.829 11.6352 146.723C12.4158 145.617 13.1436 144.726 13.2501 144.742C13.3565 144.757 13.4242 144.916 13.3969 145.095C13.3723 145.274 14.2693 144.404 15.392 143.161C16.5146 141.917 17.842 140.576 18.3428 140.178C19.0372 139.624 19.163 139.418 18.8745 139.292C18.6133 139.181 19.192 138.578 20.7682 137.322C22.1567 136.216 23.1009 135.629 23.1995 135.816C23.3008 136.002 24.1885 135.596 25.5803 134.721C27.0898 133.77 27.6594 133.285 27.3577 133.203C27.0663 133.123 27.5869 132.714 28.893 132C29.9813 131.401 31.2185 130.753 31.6419 130.554C32.2982 130.246 32.4062 130.249 32.3653 130.582C32.3244 130.915 32.4402 130.919 33.1517 130.612C33.708 130.373 33.9091 130.155 33.7551 129.96C33.6011 129.765 33.8758 129.508 34.5792 129.189C35.1587 128.925 36.3199 128.465 37.1547 128.166C37.9896 127.867 38.9041 127.694 39.1841 127.781C39.4638 127.871 39.9272 127.756 40.214 127.53C40.6586 127.18 40.7921 126.652 41.108 123.994C41.3111 122.275 41.4088 120.726 41.3219 120.551C41.2379 120.374 40.0631 119.546 38.7126 118.706C37.3625 117.864 35.9941 117.149 35.6709 117.112C35.3477 117.075 34.7544 116.828 34.3513 116.559C33.9483 116.291 33.6396 115.899 33.6661 115.683C33.6926 115.467 33.5157 115.207 33.2747 115.104C33.0337 115 32.7786 114.969 32.7097 115.034C32.6409 115.1 32.7221 115.17 32.8887 115.191C33.0579 115.212 33.179 115.345 33.1614 115.489C33.1422 115.645 32.8824 115.586 32.5107 115.343C32.1708 115.119 31.9224 114.731 31.9556 114.482C31.9915 114.233 31.9022 114.013 31.759 113.995C31.6158 113.978 31.4843 114.081 31.4667 114.224C31.4491 114.367 31.3176 114.47 31.1744 114.452C31.0312 114.434 30.8313 114.082 30.7285 113.671C30.5739 113.057 30.4875 112.986 30.2426 113.281C29.9794 113.595 29.9097 113.581 29.6765 113.156C29.5295 112.889 29.2058 112.641 28.9565 112.605C28.7072 112.569 28.4567 112.414 28.404 112.263C28.3512 112.111 28.5117 112.009 28.762 112.037C29.1503 112.082 29.1652 112.047 28.8571 111.8C28.6166 111.607 28.4264 111.607 28.2865 111.799C28.1304 112.015 27.9113 111.948 27.4579 111.552C27.1162 111.256 26.8538 110.897 26.8714 110.753C26.889 110.61 26.6987 110.46 26.45 110.419C26.064 110.356 26.0785 110.323 26.5435 110.195C27.0573 110.058 27.0523 110.033 26.4581 109.815C26.1116 109.688 25.5383 109.514 25.1838 109.431C24.7394 109.327 24.5799 109.14 24.6628 108.831C24.7445 108.532 24.2136 107.862 23.0615 106.806C22.1134 105.939 20.9171 104.791 20.4015 104.255C19.8768 103.707 19.2577 103.304 18.9949 103.335C18.7376 103.364 18.5402 103.271 18.5578 103.128C18.5754 102.985 18.74 102.849 18.9248 102.829C19.1099 102.807 18.8821 102.489 18.417 102.122C17.9519 101.756 17.1639 100.92 16.6627 100.266C16.1253 99.5637 15.5122 99.0472 15.1656 99.0073C14.7327 98.9594 14.5954 98.7867 14.6432 98.354C14.6785 98.0017 14.1646 97.043 13.3527 95.9499C12.6061 94.9494 11.8211 94.1106 11.6076 94.0844C11.3941 94.0582 10.835 93.4242 10.3664 92.6771C9.90049 91.9304 9.36282 90.9714 9.17415 90.5493C8.97337 90.0966 8.94499 89.7682 9.1086 89.7486C9.26148 89.7304 9.09216 89.0861 8.73222 88.3154C8.23922 87.251 8.02132 87.0023 7.82868 87.2798C7.64188 87.5528 7.39191 87.2209 6.84253 85.9699C6.43769 85.0483 5.84799 83.3723 5.52955 82.242C5.21079 81.1144 5.03729 80.0522 5.14005 79.8825C5.24281 79.7129 5.20152 78.9945 5.048 78.2861C4.89449 77.5777 4.70726 76.9286 4.62997 76.8477C4.55529 76.7672 4.50412 76.5813 4.51649 76.4375C4.52886 76.2937 4.51124 75.1027 4.47416 73.7904C4.43295 72.2319 4.60096 70.2393 4.96372 68.0383C5.26772 66.1866 5.69307 64.3366 5.90983 63.9273C6.15184 63.463 6.21225 63.1217 6.06594 63.0218C5.93169 62.9314 6.24091 62.1134 6.78207 61.1283C7.30345 60.1752 8.27632 58.7306 8.9415 57.9193C9.607 57.1054 10.2616 56.5095 10.3962 56.5973C10.5311 56.6826 11.0801 56.322 11.6177 55.7962C12.1554 55.2704 12.6083 54.7237 12.6259 54.5806C12.6435 54.4374 12.8034 54.3408 12.9824 54.368C13.1617 54.3927 13.6362 54.1445 14.0415 53.8138C14.4442 53.4828 15.6691 52.7191 16.7613 52.1109C17.8531 51.5052 18.8773 50.9123 19.0378 50.7894C19.2264 50.6452 19.1647 50.6095 18.8527 50.6821C18.5913 50.7451 18.3924 50.7075 18.4107 50.6014C18.429 50.4953 18.6632 50.289 18.9293 50.1446C19.1955 50.0003 19.6195 49.9044 19.8701 49.9299C20.1207 49.9554 20.3678 49.88 20.4196 49.7596C20.4714 49.6391 21.1649 49.3069 21.9634 49.0245C22.7622 48.7395 23.4952 48.5811 23.5927 48.6697C23.6901 48.7583 23.6258 48.8085 23.4465 48.7839C23.2675 48.7566 23.1076 48.8532 23.0901 48.9964C23.0722 49.1421 23.6037 49.1176 24.2882 48.9453C24.9646 48.7748 25.5275 48.5163 25.5425 48.3728C25.5549 48.229 26.0239 48.0251 26.5869 47.9172C27.1469 47.8116 29.0443 47.6404 30.8014 47.5364C33.1362 47.3977 34.8695 47.4653 37.2453 47.7887C39.0315 48.0291 41.417 48.4673 42.5443 48.7563C43.6714 49.048 45.0986 49.284 45.7177 49.2781C46.3366 49.2748 46.831 49.3593 46.8205 49.4663C46.81 49.5734 47.1242 49.6621 47.5227 49.6661C47.9216 49.6676 48.5799 49.8594 48.9871 50.0943C49.3944 50.3292 50.2516 50.6009 50.8951 50.6984C51.5389 50.7933 52.747 51.1134 53.5828 51.4089C54.7003 51.7997 54.9594 51.9716 54.561 52.0521C54.146 52.1385 54.3145 52.2728 55.2839 52.6217C55.9801 52.871 56.7909 53.0471 57.0863 53.0094C57.3813 52.9743 57.9002 53.0962 58.8615 53.6184L57.5491 53.5445L58.1745 53.8326C58.5171 53.9909 59.1783 54.1804 59.6428 54.2506C60.1277 54.326 60.4714 54.5188 60.451 54.7065C60.4239 54.9269 60.5195 54.9166 60.7376 54.6757C60.9791 54.4094 61.0799 54.406 61.1335 54.6582C61.1713 54.8452 61.5254 55.0392 61.9182 55.0901C62.3114 55.1384 62.7969 55.3169 62.9935 55.4811C63.293 55.7318 63.2642 55.7732 62.8304 55.7331C62.543 55.7058 63.1977 56.1851 64.2855 56.7969C65.3732 57.4086 66.5955 58.1082 67.0017 58.3509C67.4077 58.5963 68.8423 59.5042 70.1892 60.3724C71.5362 61.2405 73.7324 62.7255 75.0695 63.6743C76.4065 64.6231 77.6839 65.3691 77.9048 65.3355C78.1256 65.3018 78.6311 65.5541 79.0252 65.8957C79.5413 66.3422 79.6142 66.5017 79.2861 66.4615C79.0359 66.4334 78.8757 66.5326 78.9284 66.6844C78.9811 66.8361 79.4354 67.0108 79.9379 67.0725C80.6356 67.1582 80.8211 67.284 80.7316 67.6032C80.6561 67.874 81.1438 68.4438 82.118 69.2265C82.9964 69.9288 83.7672 70.3669 83.971 70.2783C84.2278 70.1672 84.238 70.2134 84.015 70.4581C83.7586 70.7384 84.1912 70.8311 86.8056 71.0623C89.6215 71.3103 89.952 71.2875 90.4706 70.8095C90.7836 70.5204 90.9943 70.1605 90.9415 70.0087C90.8888 69.857 90.6615 69.7709 90.4368 69.8147C90.2121 69.8584 90.0438 69.8087 90.0595 69.7023C90.0726 69.5956 90.1911 69.3618 90.3215 69.1823C90.449 69.0051 90.6413 68.8808 90.7468 68.9043C90.8519 68.9304 91.0563 68.9661 91.1995 68.9837C91.3558 69.0028 91.5881 67.9931 91.7741 66.4783C91.948 65.0836 92.183 62.0505 92.295 59.7393C92.4811 55.9419 92.6318 54.9301 93.8652 49.2323C94.7286 45.2354 95.6874 41.5805 96.4836 39.2503C97.1731 37.2293 98.2746 34.3924 98.928 32.9456C99.584 31.4991 100.628 29.371 101.248 28.2109C101.869 27.0507 102.388 25.8383 102.399 25.5121C102.413 25.1861 103.204 23.7377 104.158 22.2935C105.112 20.8493 106.194 19.2887 106.566 18.8244C107.209 18.0184 107.237 18.0112 107.192 18.6371C107.156 19.1214 107.254 19.0145 107.572 18.2294C107.808 17.6428 108.181 17.1469 108.403 17.124C108.625 17.1011 109.113 16.7436 109.492 16.3251C109.871 15.9093 110.062 15.555 109.919 15.5374C109.776 15.5199 109.673 15.3884 109.691 15.2452C109.708 15.1021 109.976 14.987 110.288 14.9883C110.597 14.9892 111.074 14.7388 111.347 14.4315C111.789 13.9309 111.797 13.887 111.406 14.0186C111.023 14.1459 111.022 14.0877 111.402 13.5135C111.638 13.1568 112.007 12.8877 112.223 12.9142C112.439 12.9408 112.731 12.6491 112.873 12.2676C113.054 11.7852 113.142 11.7141 113.166 12.0393C113.19 12.4015 113.603 12.2039 115.016 11.1516C116.017 10.4079 117.119 9.65289 117.469 9.4713C117.864 9.2688 118.075 8.96717 118.03 8.67356C117.977 8.34485 118.322 7.99349 119.163 7.51552C119.827 7.14006 120.726 6.83566 121.162 6.84156C121.597 6.85006 122.395 6.65743 122.932 6.41429C123.469 6.17116 124.775 5.71854 125.831 5.40697C126.886 5.098 128.236 4.75392 128.832 4.64206Z" fill="#0255E7"/>
<path d="M142.722 100.295C143.77 100.045 145.409 99.7684 146.365 99.6825C147.322 99.5965 148.983 99.6287 150.057 99.7526C151.133 99.8794 152.872 100.246 153.921 100.57C154.972 100.893 156.61 101.588 157.563 102.112C158.517 102.635 159.895 103.529 160.624 104.091C161.353 104.653 162.668 105.954 163.547 106.978C164.422 108.002 165.552 109.605 166.056 110.538C166.56 111.472 167.207 112.978 167.493 113.885C167.78 114.792 168.096 115.946 168.377 117.36L170.448 117.714C171.586 117.91 172.766 118.25 173.069 118.467C173.37 118.686 173.707 119.171 173.816 119.549C173.926 119.925 173.921 120.46 173.808 120.737C173.695 121.014 173.258 121.494 172.839 121.807C172.199 122.283 171.789 122.349 168.46 122.062L168.215 124.079C168.071 125.274 167.65 126.919 167.181 128.113C166.746 129.222 165.826 131.012 165.136 132.089C164.446 133.167 163.319 134.635 162.632 135.348C161.944 136.062 160.441 137.283 159.292 138.056C157.949 138.964 156.223 139.806 154.445 140.42C152.624 141.049 150.915 141.431 149.419 141.541C147.738 141.665 146.346 141.576 144.043 141.195C141.58 140.79 140.521 140.483 138.939 139.72C137.841 139.192 136.339 138.337 135.604 137.824C134.869 137.308 133.586 136.178 132.756 135.313C131.925 134.447 130.766 132.968 130.184 132.025C129.6 131.081 128.814 129.5 128.436 128.508C128.058 127.516 127.597 125.916 127.414 124.948C127.229 123.979 127.052 122.473 127.019 121.597C126.987 120.721 127.036 119.419 127.129 118.704C127.226 117.958 127.172 117.259 126.998 117.061C126.833 116.874 126.021 116.431 125.192 116.078C124.029 115.584 123.087 115.397 121.064 115.254C119.623 115.154 117.864 115.192 115.868 115.604L115.711 116.84C115.625 117.519 115.336 118.881 115.072 119.866C114.806 120.85 114.253 122.386 113.839 123.281C113.428 124.176 112.629 125.621 112.065 126.498C111.5 127.374 110.285 128.829 109.363 129.732C108.44 130.636 106.735 131.936 105.57 132.622C104.405 133.306 102.523 134.166 101.387 134.528C100.254 134.891 98.5394 135.294 97.5779 135.419C96.6164 135.544 94.8274 135.586 93.6023 135.512C92.1594 135.424 90.5619 135.133 89.0789 134.684C87.8176 134.302 85.8965 133.482 84.8097 132.863C83.7233 132.241 82.1898 131.17 81.4022 130.482C80.6146 129.793 79.2508 128.265 78.373 127.085C77.4951 125.904 76.4157 124.062 75.9764 122.991C75.5371 121.92 74.9942 120.25 74.7702 119.277C74.5461 118.303 74.3119 116.552 74.2494 115.382C74.1869 114.212 74.2108 112.64 74.4709 110.521L72.9087 110.33C71.521 110.159 71.2712 110.041 70.6614 109.261C70.2046 108.677 70.0081 108.124 70.0721 107.604C70.1309 107.125 70.4463 106.601 70.8857 106.25C71.5359 105.733 71.8092 105.703 73.6994 105.935C75.7432 106.186 75.8053 106.176 76.1721 105.513C76.3766 105.139 77.2257 103.798 78.0578 102.531C79.147 100.871 80.1407 99.7516 81.6281 98.5076C82.7621 97.5584 84.389 96.4266 85.2408 95.9896C86.0923 95.5552 87.4136 94.9751 88.174 94.7012C88.9344 94.4273 90.4074 94.0534 91.4478 93.8667C92.4879 93.6827 94.3484 93.5545 95.5789 93.584C96.8414 93.6122 98.7176 93.8505 99.8732 94.1245C101.003 94.3953 102.658 94.9525 103.553 95.3663C104.449 95.7774 105.728 96.4841 106.399 96.9363C107.071 97.386 108.102 98.1784 108.694 98.6975C109.286 99.2141 110.325 100.309 111.01 101.124C111.691 101.943 112.612 103.25 113.058 104.031C113.504 104.812 114.18 106.322 114.562 107.386C114.944 108.45 115.357 109.84 115.477 110.476C115.598 111.112 115.695 111.631 115.695 111.631C115.695 111.628 116.318 111.494 117.117 111.321L117.324 111.276C118.367 111.05 119.897 110.99 121.573 111.108C123.79 111.267 124.515 111.43 128.381 113.046L128.693 112.49C128.865 112.183 129.022 111.788 129.041 111.608C129.064 111.428 129.609 110.454 130.256 109.445C130.901 108.433 132.019 106.967 132.739 106.183C133.459 105.4 134.684 104.293 135.462 103.72C136.243 103.15 137.765 102.249 138.848 101.716C139.931 101.186 141.674 100.546 142.722 100.295Z" fill="#030303"/>
<path d="M126.837 143.833C127.083 143.464 127.693 142.974 128.194 142.745C128.695 142.518 129.31 142.356 129.56 142.384C129.81 142.415 130.263 142.602 130.566 142.803C130.869 143.002 131.288 143.439 131.498 143.776C131.708 144.111 131.829 144.826 131.766 145.363C131.702 145.899 131.359 146.779 131.002 147.316C130.646 147.854 129.597 148.887 128.672 149.614C127.666 150.405 126.21 151.219 125.054 151.64C123.989 152.027 122.154 152.439 120.977 152.556C119.367 152.714 118.227 152.656 116.381 152.321C114.744 152.022 113.386 151.598 112.309 151.05C111.418 150.597 110.203 149.859 109.603 149.407C109.003 148.956 107.882 147.925 107.11 147.114C106.283 146.249 105.524 145.134 105.264 144.41C105.022 143.733 104.866 142.826 104.919 142.397C104.969 141.967 105.293 141.264 105.634 140.833C106.059 140.301 106.533 140.035 107.111 139.997C107.582 139.971 108.343 140.064 108.804 140.205C109.43 140.401 109.829 140.809 110.375 141.811C110.775 142.55 111.517 143.529 112.024 143.982C112.528 144.438 113.44 145.11 114.05 145.478C114.66 145.844 115.844 146.361 116.684 146.626C117.816 146.984 118.657 147.085 119.939 147.017C120.891 146.968 122.162 146.78 122.765 146.601C123.369 146.421 124.432 145.878 125.126 145.39C125.82 144.902 126.591 144.201 126.837 143.833Z" fill="#030303"/>
<path d="M142.074 100.194C142.011 100.128 142.93 99.8973 144.119 99.6814C145.309 99.4629 146.456 99.3105 146.672 99.3396C146.888 99.3688 145.966 99.6017 144.626 99.8547C143.287 100.105 142.137 100.26 142.074 100.194Z" fill="#736376"/>
<path d="M91.4772 93.6273C91.6377 93.5043 92.3086 93.3569 92.9715 93.2956C93.6345 93.2343 94.5861 93.2323 95.0863 93.2911C95.6074 93.3524 95.1436 93.4487 94.0014 93.5172C92.9048 93.5807 91.8219 93.6828 91.5953 93.7422C91.326 93.8113 91.2867 93.773 91.4772 93.6273Z" fill="#736376"/>
<path d="M104.063 95.5161C103.445 95.2156 102.084 94.6919 101.034 94.3543C99.3363 93.805 99.2826 93.7693 100.545 94.0327C101.323 94.1969 102.753 94.6736 103.719 95.0934C104.684 95.5157 105.408 95.9058 105.33 95.9596C105.252 96.0161 104.682 95.8166 104.063 95.5161Z" fill="#736376"/>
<path d="M138.262 101.776C138.383 101.608 139.139 101.197 139.944 100.862C140.749 100.525 141.523 100.266 141.666 100.286C141.809 100.304 141.237 100.598 140.397 100.936C139.557 101.277 138.682 101.672 138.455 101.815C138.131 102.021 138.09 102.014 138.262 101.776Z" fill="#736376"/>
<path d="M165.764 109.583C165.694 109.575 164.914 108.644 164.035 107.516C163.156 106.389 162.531 105.48 162.645 105.494C162.759 105.51 163.539 106.438 164.374 107.561C165.211 108.681 165.834 109.592 165.764 109.583Z" fill="#736376"/>
<path d="M127.817 112.451C128.296 112.618 128.43 112.518 128.661 111.825C128.812 111.371 128.964 111.123 129.001 111.273C129.04 111.423 128.908 111.853 128.712 112.228C128.518 112.603 128.211 112.885 128.033 112.85C127.854 112.817 127.319 112.572 126.844 112.305C126.315 112.007 126.225 111.901 126.613 112.034C126.961 112.153 127.503 112.341 127.817 112.451Z" fill="#736376"/>
<path d="M123.415 111.178C122.692 111.143 121.581 111.006 120.941 110.875C120.302 110.741 120.894 110.768 122.255 110.936C123.617 111.103 124.137 111.212 123.415 111.178Z" fill="#736376"/>
<path d="M116.136 111.268C116.072 111.204 116.625 111.05 117.367 110.93C118.109 110.807 118.95 110.736 119.236 110.771C119.523 110.806 118.97 110.96 118.006 111.109C117.041 111.26 116.2 111.331 116.136 111.268Z" fill="#736376"/>
<path d="M126.851 119.199C127.01 117.583 126.968 117.327 126.475 116.991C126.17 116.782 126.038 116.615 126.182 116.62C126.327 116.624 126.638 116.805 126.871 117.016C127.228 117.34 127.246 117.704 126.669 121.026L126.851 119.199Z" fill="#736376"/>
<path d="M132.823 135.72C132.304 135.207 131.473 134.225 130.976 133.538C130.33 132.645 130.501 132.785 131.576 134.032C132.405 134.992 133.233 135.971 133.423 136.214C133.613 136.454 133.342 136.23 132.823 135.72Z" fill="#736376"/>
<path d="M106.047 140.289C105.748 140.472 105.81 140.39 106.189 140.109C106.698 139.73 107.158 139.641 109.048 139.937L107.821 139.947C107.146 139.954 106.35 140.107 106.047 140.289Z" fill="#736376"/>
<path d="M118.562 152.851C117.983 152.835 116.928 152.706 116.219 152.566C115.509 152.423 115.984 152.436 117.273 152.592C118.561 152.75 119.142 152.866 118.562 152.851Z" fill="#736376"/>
<path d="M151.11 99.7816C150.458 99.757 149.463 99.6349 148.897 99.5099C148.331 99.3849 148.865 99.4055 150.081 99.5548C151.297 99.7041 151.763 99.8062 151.11 99.7816Z" fill="#88878B"/>
<path d="M74.1786 110.75L72.5612 110.469L70.9436 110.191L74.4709 110.521L73.906 114.283L74.1786 110.75Z" fill="#2757C2"/>
<path d="M145.092 103.597C145.759 103.502 146.9 103.402 147.63 103.375C148.36 103.349 149.654 103.465 150.505 103.638C151.356 103.809 152.683 104.152 153.45 104.402C154.218 104.652 155.731 105.416 156.81 106.098C158.389 107.1 159.197 107.879 160.951 110.083C162.404 111.909 163.336 113.375 163.746 114.482C164.088 115.396 164.538 116.938 164.747 117.907C165.057 119.34 165.061 120.234 164.768 122.665C164.461 125.188 164.264 125.953 163.507 127.53C163.013 128.561 162.315 129.841 161.955 130.378C161.596 130.915 160.552 132.095 159.633 132.999C158.713 133.903 157.344 135.003 156.592 135.444C155.837 135.888 154.293 136.56 153.155 136.938C152.02 137.319 150.247 137.701 149.218 137.791C148.19 137.882 146.528 137.855 145.526 137.731C144.523 137.608 142.905 137.23 141.929 136.893C140.953 136.554 139.273 135.704 138.197 135.001C137.12 134.3 135.67 133.084 134.977 132.299C134.283 131.514 133.287 130.107 132.768 129.172C132.248 128.236 131.583 126.49 131.289 125.291C130.968 123.987 130.806 122.551 130.882 121.715C130.955 120.947 130.931 120.26 130.832 120.189C130.732 120.119 130.826 118.984 131.046 117.666C131.326 115.97 131.721 114.687 132.394 113.274C132.92 112.176 133.676 110.843 134.079 110.311C134.483 109.779 135.368 108.789 136.052 108.109C136.732 107.429 137.505 106.816 137.768 106.745C138.03 106.675 138.527 106.35 138.872 106.022C139.216 105.695 140.483 105.055 141.689 104.598C142.895 104.144 144.425 103.692 145.092 103.597Z" fill="#FEFDFD"/>
<path d="M89.5239 98.2354C90.6244 97.8606 92.3041 97.483 93.2611 97.3944C94.2181 97.3059 95.937 97.3399 97.0839 97.4702C98.2304 97.603 99.9066 97.9858 100.811 98.3215C101.716 98.6572 103.227 99.416 104.173 100.005C105.118 100.594 106.413 101.664 107.052 102.385C107.69 103.103 108.701 104.318 109.297 105.083C109.975 105.954 110.668 107.331 111.144 108.75C111.583 110.059 111.975 111.985 112.069 113.289C112.177 114.776 112.114 116.084 111.882 117.096C111.688 117.944 111.419 119.1 111.283 119.665C111.151 120.23 110.713 121.423 110.315 122.32C109.914 123.217 108.991 124.646 108.26 125.499C107.529 126.35 106.24 127.59 105.395 128.252C104.551 128.912 103.011 129.824 101.975 130.278C100.939 130.732 99.1152 131.293 97.9236 131.527C96.1199 131.882 95.2753 131.894 92.8931 131.602C90.516 131.31 89.6894 131.09 88.0297 130.315C86.9298 129.802 85.3793 128.87 84.5844 128.241C83.7894 127.612 82.5399 126.36 81.8107 125.454C81.0812 124.551 80.1053 123.049 79.6458 122.121C79.1863 121.193 78.6208 119.578 78.3898 118.532C78.1613 117.487 77.9539 115.797 77.9337 114.777C77.9087 113.604 78.0827 112.122 78.403 110.74C78.6798 109.54 79.2121 107.939 79.582 107.186C79.9519 106.434 80.5187 105.433 80.8356 104.962C81.155 104.492 82.1477 103.337 83.0407 102.393C83.9336 101.448 85.0127 100.516 85.4362 100.317C85.8594 100.121 86.5027 99.7244 86.8658 99.4361C87.2286 99.1504 88.4238 98.6076 89.5239 98.2354Z" fill="#FEFDFD"/>
<path d="M162.344 111.604C162.269 111.635 161.484 110.756 160.602 109.647C159.616 108.406 159.364 107.984 159.945 108.546C160.464 109.049 161.25 109.93 161.687 110.504C162.124 111.075 162.42 111.571 162.344 111.604Z" fill="#FDFDFD"/>
<path d="M130.595 122.564C130.544 122.122 130.549 121.372 130.604 120.898C130.66 120.424 130.801 120.112 130.919 120.205C131.038 120.296 131.033 121.046 130.91 121.871C130.73 123.08 130.669 123.213 130.595 122.564Z" fill="#FDFDFD"/>
<path d="M98.1368 97.5043C97.5573 97.4887 96.6773 97.3806 96.1841 97.2646C95.6913 97.1459 96.1628 97.1589 97.238 97.2909C98.3133 97.423 98.7166 97.5174 98.1368 97.5043Z" fill="#EFF5D9"/>
<path d="M146.282 138.025C145.703 138.009 144.883 137.909 144.46 137.799C144.038 137.689 144.512 137.699 145.514 137.825C146.517 137.948 146.862 138.038 146.282 138.025Z" fill="#EFF5D9"/>
<path d="M94.3405 109.051C94.7973 108.883 95.5325 108.706 95.9749 108.655C96.4176 108.601 96.8694 108.558 96.9781 108.556C97.0864 108.556 97.708 108.767 98.3577 109.029C99.0728 109.318 99.9443 109.969 100.57 110.688C101.135 111.338 101.796 112.429 102.04 113.114C102.281 113.799 102.505 114.835 102.534 115.42C102.565 116.005 102.386 117.114 102.139 117.882C101.887 118.662 101.242 119.808 100.676 120.473C100.012 121.258 99.132 121.901 98.1264 122.342C96.9923 122.84 96.2827 122.98 95.4189 122.869C94.7579 122.785 93.7123 122.39 93.0196 121.961C92.3439 121.545 91.5334 120.764 91.2166 120.223C90.8994 119.685 90.4839 118.807 90.2928 118.276C90.099 117.745 89.9798 116.542 90.0239 115.601C90.0796 114.438 90.2903 113.497 90.6856 112.644C91.0026 111.957 91.7702 110.936 92.3864 110.373C93.005 109.812 93.8841 109.217 94.3405 109.051Z" fill="#030303"/>
<path d="M143.345 116.122C144.123 115.512 145.062 115.057 145.815 114.925C146.485 114.809 147.149 114.716 147.294 114.723C147.438 114.728 148.064 114.95 148.687 115.214C149.31 115.478 150.277 116.165 150.839 116.736C151.487 117.397 152.069 118.382 152.429 119.433C152.848 120.652 152.951 121.465 152.819 122.519C152.723 123.305 152.402 124.455 152.109 125.074C151.816 125.693 151.071 126.658 150.456 127.22C149.84 127.781 148.867 128.406 148.298 128.606C147.729 128.805 146.756 128.982 146.136 128.996C145.275 129.014 144.697 128.835 143.679 128.232C142.945 127.798 142.06 127.021 141.711 126.505C141.359 125.989 140.873 125.039 140.628 124.391C140.288 123.482 140.238 122.766 140.418 121.261C140.599 119.764 140.821 119.051 141.371 118.207C141.768 117.601 142.655 116.664 143.345 116.122Z" fill="#030303"/>
</svg>
