<svg width="640" height="548" viewBox="0 0 640 548" fill="none" xmlns="http://www.w3.org/2000/svg">
<path d="M200.078 411.551C196.478 407.951 181.911 391.051 175.078 383.051V365.051L149.078 341.551V330.551L154.578 305.051L203.078 247.551H217.578L425.078 330.551C447.744 339.051 493.878 356.651 497.078 359.051C501.078 362.051 525.078 384.551 535.578 396.051C546.078 407.551 561.578 432.551 569.578 445.051C575.978 455.051 588.244 480.551 593.578 492.051L586.578 532.551L471.078 543.551L391.078 540.551C331.078 536.051 211.378 525.251 212.578 518.051C213.778 510.851 220.744 484.051 224.078 471.551L232.078 443.551L200.078 411.551Z" fill="white"/>
<path fill-rule="evenodd" clip-rule="evenodd" d="M22.7729 0C23.7299 0 25.6545 0.582934 27.0499 1.29422C28.4453 2.00551 30.9314 3.98962 32.5727 5.70634C34.214 7.42305 36.7589 10.3859 38.2237 12.3004C39.6886 14.215 42.3458 17.8249 44.1314 20.3225C45.9171 22.82 51.9905 31.7244 67.8958 55.352L71.4618 56.5713C73.4293 57.2452 76.9578 58.7212 79.3102 59.855C81.6626 60.9941 84.9078 62.9836 86.5277 64.2832C88.2653 65.6737 90.7032 68.4921 92.4836 71.1607C94.1463 73.6422 96.4612 77.5997 97.632 79.9529C98.8082 82.306 101.631 88.3225 103.914 93.3229C106.192 98.3233 109.784 105.907 111.891 110.169C115.419 117.303 116.515 118.913 125.588 130.272C131.009 137.064 137.612 145.455 140.258 148.916C142.905 152.381 146.765 157.414 148.839 160.098C150.908 162.788 164.269 180.506 178.527 199.481C192.786 218.456 206.563 236.746 209.14 240.126C211.717 243.511 213.995 246.33 214.198 246.389C214.406 246.453 213.674 243.565 212.573 239.971C211.471 236.382 210.092 231.034 209.509 228.093C208.932 225.152 208.354 221.542 208.237 220.071C208.119 218.6 208.108 217.819 208.221 218.333C208.408 219.183 208.541 219.199 209.76 218.467C210.52 218.012 213.118 217.525 215.775 217.343C218.347 217.167 220.934 216.98 221.522 216.921C222.11 216.862 223.132 216.648 223.795 216.44C224.457 216.231 224.874 215.819 224.73 215.525C224.586 215.231 224.645 215.017 224.864 215.054C225.083 215.087 225.543 215.087 225.885 215.054C226.222 215.017 228.088 213.423 230.028 211.514C231.964 209.605 233.552 207.797 233.552 207.503C233.552 207.209 233.733 207.065 233.953 207.182C234.172 207.3 234.835 206.76 235.423 205.984C236.011 205.214 236.193 204.76 235.824 204.973C235.382 205.23 235.248 205.093 235.423 204.562C235.567 204.123 235.947 203.818 236.267 203.893C236.583 203.968 237.412 202.947 238.112 201.62C238.812 200.294 239.636 198.192 239.946 196.941C240.309 195.454 240.315 194.759 239.967 194.935C239.673 195.08 239.438 194.539 239.443 193.732C239.449 192.646 239.566 192.47 239.908 193.063C240.256 193.673 240.448 193.705 240.7 193.197C240.887 192.828 240.999 190.662 240.951 188.384C240.908 186.106 240.545 182.736 240.149 180.897C239.753 179.057 239.251 177.661 239.032 177.795C238.812 177.929 238.208 177.207 237.695 176.19C237.182 175.174 236.941 174.046 237.16 173.682C237.424 173.244 237.335 173.155 236.893 173.415C236.503 173.65 236.112 173.479 235.957 173.008C235.792 172.506 235.936 172.318 236.358 172.511C236.727 172.682 236.61 172.5 236.096 172.11C235.588 171.725 235.327 171.222 235.519 171.003C235.711 170.784 235.647 170.612 235.38 170.628C235.107 170.639 233.471 169.013 231.734 167.019C230.002 165.018 228.44 163.361 228.259 163.334C228.082 163.312 227.516 163.131 227.002 162.933C226.489 162.74 226.19 162.339 226.334 162.045C226.478 161.751 225.58 161.034 224.329 160.457C222.608 159.654 221.966 159.558 221.677 160.055C221.389 160.558 221.143 160.537 220.608 159.959C220.036 159.344 220.057 159.28 220.72 159.601C221.159 159.809 221.041 159.601 220.453 159.136C219.865 158.665 219.02 158.285 218.582 158.285C218.143 158.285 217.176 158.119 216.443 157.916C215.321 157.606 215.171 157.692 215.508 158.456C215.839 159.21 215.577 159.392 214.048 159.505C212.61 159.606 212.236 159.457 212.412 158.836C212.535 158.398 213.514 154.905 214.583 151.081C215.647 147.258 217.561 141 218.833 137.177C220.106 133.353 222.511 126.737 224.179 122.47C225.853 118.202 229.226 110.624 231.686 105.623C234.14 100.623 238.042 93.4031 240.357 89.5793C242.672 85.7555 245.538 81.1829 246.73 79.4181C247.922 77.6532 248.992 75.9044 249.109 75.5354C249.259 75.0541 250.451 75.4071 253.199 76.7387C255.332 77.7709 257.316 78.6159 257.61 78.6159C257.904 78.6159 259.166 79.0704 260.417 79.6266C261.668 80.1828 263.17 80.8246 263.758 81.0546C264.346 81.2792 264.95 81.5038 265.095 81.5573C265.239 81.6054 266.025 81.9263 266.832 82.2686C267.64 82.6162 268.543 82.8943 268.837 82.8943C269.131 82.8943 270.035 83.1724 270.842 83.52C271.649 83.8623 272.435 84.1725 272.58 84.2099C272.724 84.2473 273.809 84.6003 274.986 84.9907C276.162 85.3865 277.365 85.8999 277.659 86.1352C277.953 86.3705 279.156 86.8037 280.332 87.0978C281.508 87.392 284.636 88.392 287.282 89.3172C289.929 90.2425 292.815 91.1302 293.698 91.2853C294.58 91.4404 295.842 91.7827 296.504 92.0447C297.595 92.4779 297.985 92.0982 300.616 88.1086C302.214 85.6806 304.524 82.2525 305.748 80.4877C306.967 78.7228 309.09 75.9579 310.458 74.3481C311.827 72.7384 314.388 69.9681 316.158 68.1979C317.927 66.4277 320.691 63.8928 322.306 62.5718C323.92 61.2508 325.722 59.732 326.31 59.2026C326.898 58.6678 328.101 57.8816 328.983 57.4484C329.866 57.0206 330.646 56.6729 330.721 56.6783C330.796 56.6836 330.315 57.657 329.652 58.8389C328.989 60.0261 328.267 60.9888 328.048 60.9781C327.829 60.9727 327.647 61.3311 327.647 61.7696C327.647 62.2081 327.406 62.5718 327.112 62.5718C326.818 62.5718 326.182 63.4756 325.695 64.5773C325.209 65.679 324.423 67.1765 323.958 67.9038C323.487 68.6258 322.546 70.5511 321.862 72.1822C321.183 73.808 319.825 77.4286 318.841 80.2203C317.863 83.0119 316.917 86.1405 316.746 87.1727C316.58 88.2049 316.318 89.6435 316.163 90.3815C316.013 91.1142 315.762 93.7614 315.607 96.2643C315.446 98.7672 315.505 101.067 315.735 101.377C315.965 101.687 317.596 102.81 319.36 103.864C321.124 104.917 323.53 106.329 324.706 106.998C325.882 107.666 327.69 108.661 328.716 109.207C329.743 109.757 331.309 110.667 332.191 111.228C333.073 111.795 334.757 112.736 335.934 113.319C337.11 113.907 338.671 114.752 339.409 115.202C340.141 115.651 342.911 117.196 345.557 118.64C348.203 120.079 351.331 121.806 352.507 122.475C353.683 123.143 356.811 124.78 359.457 126.112C362.104 127.449 364.392 128.689 364.536 128.871C364.681 129.058 365.707 129.62 366.809 130.117C367.91 130.62 369.113 131.032 369.482 131.032C369.888 131.037 370.321 129.845 370.583 127.957C370.824 126.261 371.144 122.229 371.294 118.993C371.449 115.758 371.717 112.87 371.893 112.576C372.075 112.282 372.278 111.56 372.347 110.971C372.417 110.383 372.62 108.821 372.796 107.495C372.978 106.174 373.219 104.607 373.331 104.019C373.449 103.431 373.561 102.891 373.582 102.816C373.609 102.741 373.705 102.5 373.802 102.281C373.898 102.062 374.197 100.949 374.47 99.8101C374.737 98.6656 375.143 97.6441 375.363 97.5372C375.582 97.4248 375.641 97.0933 375.496 96.7991C375.352 96.505 375.47 96.1467 375.764 95.9969C376.058 95.8472 376.405 96.2697 376.539 96.9328C376.667 97.596 376.924 101.265 377.1 105.089C377.282 108.912 377.512 112.763 377.608 113.645C377.71 114.528 377.94 116.576 378.121 118.191C378.303 119.806 378.597 121.855 378.779 122.737C378.961 123.619 379.164 124.705 379.228 125.144C379.298 125.582 379.501 126.545 379.683 127.283C379.864 128.016 380.121 129.342 380.26 130.224C380.399 131.107 380.618 132.31 380.746 132.898C380.875 133.487 381.49 135.412 382.12 137.177C383.12 139.99 383.655 140.664 386.462 142.658C388.221 143.91 389.846 144.937 390.065 144.947C390.284 144.953 391.188 145.504 392.07 146.161C392.952 146.824 394.583 147.841 395.689 148.424C396.796 149.001 398.202 149.841 398.812 150.279C399.475 150.766 399.983 151.82 400.084 152.953C400.18 153.985 400.426 156.75 400.64 159.104C400.849 161.457 401.068 163.746 401.132 164.184C401.196 164.623 401.399 165.708 401.592 166.591C401.784 167.473 402.078 169.035 402.244 170.067C402.41 171.099 402.763 172.778 403.035 173.811C403.308 174.843 403.623 176.164 403.736 176.752C403.848 177.34 404.094 178.185 404.281 178.624C404.468 179.062 404.703 179.907 404.8 180.496C404.896 181.084 405.409 183.009 405.944 184.774C406.473 186.539 407.04 188.346 407.195 188.785C407.355 189.224 407.521 189.71 407.574 189.855C407.622 189.999 407.922 190.721 408.232 191.459C408.547 192.192 409.333 194.122 409.98 195.737C410.632 197.353 411.215 198.92 411.279 199.214C411.349 199.508 411.862 200.642 413.455 203.727L418.267 198.764C420.913 196.037 424.88 192.62 427.088 191.176C429.291 189.726 432.6 187.994 434.44 187.325C436.279 186.657 438.925 185.94 440.32 185.731C441.716 185.523 444.303 185.373 446.068 185.394C447.832 185.416 450.083 185.528 451.067 185.64C452.05 185.753 452.954 186.025 453.071 186.245C453.189 186.464 453.948 186.646 454.756 186.646C455.563 186.64 457.787 187.4 459.701 188.33C461.615 189.256 464.502 191.026 466.116 192.256C467.731 193.491 469.656 195.24 470.394 196.144C471.126 197.053 472.281 198.476 472.954 199.305C473.628 200.139 475.12 202.743 476.264 205.096C477.413 207.45 478.434 209.974 478.531 210.712C478.627 211.445 478.841 212.29 479.001 212.584C479.162 212.878 479.381 213.84 479.488 214.723C479.6 215.605 479.696 219.098 479.707 222.478C479.718 225.857 479.541 229.708 479.311 231.034C479.087 232.361 478.397 235.008 477.782 236.917C477.162 238.826 476.061 241.597 475.323 243.067C474.59 244.538 472.901 247.303 471.57 249.218C470.238 251.132 467.672 254.138 465.865 255.903C464.058 257.667 462.096 259.47 461.508 259.914C460.92 260.358 459.733 261.208 458.867 261.812C458.001 262.411 455.734 263.668 453.82 264.604C451.906 265.534 448.784 266.807 446.87 267.433C444.394 268.246 441.625 268.626 437.246 268.77C433.147 268.902 429.851 268.704 427.356 268.176C425.297 267.743 422.052 266.625 420.138 265.695C418.224 264.77 416.059 263.54 415.326 262.967C414.589 262.4 413.69 262.08 413.322 262.261C412.953 262.438 412.653 263.069 412.653 263.657C412.653 264.246 412.413 264.85 412.119 264.994C411.825 265.139 411.589 265.561 411.595 265.93C411.605 266.299 411.199 267.561 410.697 268.738C410.189 269.914 409.745 271 409.697 271.145C409.654 271.289 409.451 271.77 409.248 272.214C409.045 272.658 408.799 273.375 408.708 273.819C408.611 274.262 408.392 274.979 408.216 275.423C408.034 275.867 407.473 277.669 406.959 279.434C406.446 281.199 405.997 282.766 405.965 282.91C405.933 283.055 405.612 284.504 405.259 286.119C404.906 287.734 404.473 289.659 404.292 290.397C404.11 291.13 403.891 294.986 403.794 298.954C403.704 302.922 403.88 307.254 404.185 308.581C404.489 309.907 405.003 311.95 405.318 313.126C405.639 314.303 406.633 316.827 407.526 318.742C408.419 320.656 410.445 323.78 412.033 325.694C413.616 327.609 415.428 329.523 416.054 329.951C416.684 330.379 417.556 331.074 418 331.492C418.443 331.909 419.523 332.615 420.405 333.059C421.288 333.502 422.132 334.037 422.277 334.251C422.421 334.465 423.266 335.021 424.148 335.497C425.03 335.968 425.939 336.182 426.169 335.973C426.399 335.759 426.58 336.069 426.58 336.658C426.58 337.374 425.025 338.909 421.886 341.3C419.309 343.263 415.15 346.15 412.653 347.723C410.157 349.295 405.826 351.584 403.03 352.809C400.234 354.033 395.187 355.873 391.803 356.895C388.418 357.916 382.286 359.253 378.169 359.868C373.983 360.489 367.974 360.986 364.536 360.986C360.334 360.991 356.014 360.574 350.903 359.67C346.787 358.943 341.553 357.734 339.275 356.996C336.997 356.253 333.87 355.012 332.325 354.242C330.78 353.472 327.957 351.814 326.043 350.563C324.129 349.311 320.798 346.391 318.633 344.075C315.639 340.872 314.078 338.588 312.089 334.519C310.651 331.577 309.293 328.101 309.068 326.796C308.673 324.459 308.689 324.432 310.004 324.774C310.736 324.967 314.345 325.641 318.023 326.272C322.479 327.042 326.756 327.409 330.855 327.374C335.837 327.331 337.431 327.117 339.275 326.24C340.526 325.646 341.643 324.978 341.766 324.758C341.884 324.539 336.409 324.191 329.604 323.988C320.451 323.71 316.035 323.352 312.677 322.592C310.18 322.031 304.647 320.662 300.381 319.56C296.114 318.453 289.618 316.405 285.945 315.009C282.267 313.608 277.578 311.666 275.52 310.693C273.462 309.72 271.655 308.896 271.51 308.869C271.366 308.843 269.436 307.762 267.233 306.474C265.025 305.179 261 302.596 258.278 300.735C255.557 298.874 253.092 297.35 252.798 297.35C252.504 297.35 252.269 297.05 252.269 296.681C252.274 296.312 251.494 295.548 250.531 294.975C249.574 294.403 245.64 290.793 241.796 286.953C237.946 283.113 233.797 278.584 232.573 276.894C231.344 275.204 230.103 273.942 229.809 274.086C229.515 274.23 229.269 274.054 229.264 273.685C229.253 273.316 227.852 270.85 226.142 268.203C224.436 265.556 222.228 261.946 221.244 260.181C220.261 258.416 219.32 256.849 219.154 256.705C218.983 256.56 218.849 256.197 218.849 255.903C218.849 255.609 218.01 253.501 216.978 251.223C215.946 248.945 214.925 247.078 214.706 247.078C214.487 247.078 212.92 248.244 211.231 249.667C209.541 251.089 206.232 254.036 203.874 256.218C201.522 258.395 197.64 262.229 195.245 264.727C192.85 267.224 190.027 270.294 188.963 271.546C187.349 273.455 187.145 273.958 187.707 274.669C188.263 275.375 188.236 275.46 187.573 275.166C187.012 274.92 185.943 275.835 184.029 278.193C182.516 280.054 179.81 283.557 178.014 285.985C176.212 288.413 173.021 292.986 170.919 296.146C168.813 299.307 165.087 305.206 162.633 309.249C160.179 313.292 158.291 316.843 158.436 317.137C158.58 317.432 158.404 317.667 158.035 317.662C157.666 317.656 155.998 320.004 154.324 322.876C152.651 325.748 150.812 329.181 150.245 330.508C149.395 332.481 149.149 332.722 148.893 331.845C148.721 331.256 146.166 327.523 143.22 323.555C140.28 319.587 133.452 309.714 128.058 301.628C122.658 293.537 115.831 282.953 112.874 278.097C109.923 273.241 105.224 265.304 102.428 260.448C99.6316 255.592 94.1195 245.485 90.1846 237.987C86.2444 230.489 80.7591 219.777 78.0004 214.188C75.2417 208.599 71.3175 200.54 69.2805 196.272C67.2489 192.005 64.1801 185.389 62.4693 181.565C60.7531 177.741 57.2032 169.677 54.5728 163.649C51.9424 157.622 49.6328 152.205 49.4403 151.616C49.2479 151.028 47.5905 149.67 45.7567 148.6C43.9229 147.53 40.373 145.145 37.8762 143.3C35.3742 141.455 30.926 137.851 27.9855 135.294C25.0451 132.732 20.351 128.262 17.5602 125.352C14.7641 122.438 11.1232 118.373 9.46054 116.314C7.80318 114.26 5.6005 111.132 4.574 109.367C3.54216 107.602 2.03985 103.992 1.23255 101.345C0.141904 97.7725 -0.15749 95.9114 0.0724014 94.1251C0.243484 92.8042 0.820886 91.1409 1.35552 90.435C1.89015 89.7344 3.16257 88.8466 4.19441 88.4723C5.22091 88.0979 7.02796 87.7984 8.20415 87.8091C9.38034 87.8198 9.92032 87.9214 9.40708 88.0391C8.89383 88.1514 8.46612 88.4241 8.46078 88.6434C8.45543 88.8627 9.48192 90.0767 10.733 91.3335C11.9893 92.5956 13.1976 93.617 13.4168 93.6064C13.636 93.5957 13.9568 93.2908 14.1279 92.9218C14.299 92.5528 14.0584 91.4725 13.5932 90.5152C13.0301 89.3529 12.3476 88.7593 11.5456 88.7343C10.8827 88.7129 10.6421 88.5899 11.011 88.4669C11.5135 88.2958 11.4494 87.8145 10.7437 86.5042C10.1181 85.3383 9.81874 83.6216 9.83478 81.2899C9.85082 78.557 10.1395 77.3644 11.1714 75.7172C11.8931 74.5621 13.3206 73.0539 14.3524 72.3694C15.3789 71.6848 16.5818 71.1233 17.0256 71.1179C17.464 71.1126 18.1216 70.9361 18.4744 70.7168C18.9716 70.4227 18.9877 69.8719 18.5439 68.4546C18.2232 67.4225 18.1109 65.679 18.2927 64.5773C18.5012 63.3312 19.3887 61.7375 20.6343 60.3684C21.7357 59.1544 24.0827 57.4377 25.847 56.5499C28.3117 55.3145 30.0759 54.8653 33.4709 54.614C35.8981 54.4321 37.8816 54.2236 37.8816 54.1487C37.8762 54.0738 35.3848 50.2232 32.3374 45.5919C29.29 40.9605 25.2803 34.6445 23.4251 31.5533C21.57 28.4622 19.1481 23.7719 18.0467 21.1247C16.9454 18.4774 15.7692 14.7498 15.4324 12.8352C15.0795 10.8083 14.9993 8.3536 15.2346 6.95242C15.4591 5.63146 16.0686 3.97893 16.5925 3.28368C17.1111 2.58844 18.3194 1.56697 19.2871 1.01078C20.2494 0.45993 21.8159 0.00534802 22.7729 0ZM200.255 271.145C200.34 271.145 200.404 271.203 200.41 271.278C200.41 271.353 198.667 273.097 192.652 278.899L196.379 275.022C198.432 272.888 200.174 271.145 200.255 271.145ZM239.283 309.115C239.363 309.115 239.433 309.174 239.438 309.249C239.438 309.324 237.818 310.944 232.215 316.335L235.674 312.725C237.577 310.741 239.203 309.115 239.283 309.115ZM519.2 378.634C519.43 378.64 521.836 380.929 524.546 383.726C527.257 386.523 529.353 388.806 529.203 388.806C529.053 388.806 526.648 386.517 523.857 383.72C521.066 380.923 518.97 378.634 519.2 378.634ZM412.119 401.845C416.086 401.845 417.652 401.93 415.594 402.032C413.535 402.134 410.285 402.134 408.376 402.032C406.462 401.93 408.146 401.845 412.119 401.845ZM428.96 401.834C431.9 401.829 433.221 401.92 431.9 402.027C430.574 402.139 428.168 402.139 426.554 402.032C424.934 401.925 426.019 401.834 428.96 401.834ZM200.019 411.257C200.249 411.263 203.377 414.274 206.97 417.953C210.562 421.627 213.38 424.638 213.236 424.638C213.086 424.638 209.958 421.627 206.285 417.948C202.607 414.268 199.79 411.257 200.019 411.257ZM215.529 426.766C215.764 426.772 218.047 428.938 220.608 431.59C223.169 434.238 225.142 436.404 224.997 436.404C224.848 436.404 222.565 434.238 219.918 431.585C217.272 428.932 215.299 426.766 215.529 426.766ZM470.126 515.747C473.361 515.747 474.804 515.832 473.334 515.945C471.864 516.052 469.217 516.052 467.453 515.945C465.689 515.838 466.892 515.752 470.126 515.747ZM487.347 539.176C487.411 539.123 487.352 539.321 487.213 539.615C487.079 539.909 485.342 540.107 479.75 539.963L483.492 539.615C485.55 539.422 487.288 539.225 487.347 539.176ZM470.126 539.818C473.655 539.818 475.216 539.904 473.601 540.011C471.981 540.112 469.094 540.118 467.186 540.011C465.272 539.909 466.598 539.818 470.126 539.818ZM342.349 546.22C344.996 546.22 346.198 546.311 345.022 546.423C343.846 546.535 341.681 546.535 340.211 546.428C338.74 546.316 339.703 546.225 342.349 546.22ZM364.536 546.755C367.033 546.755 367.995 546.846 366.675 546.958C365.349 547.07 363.307 547.07 362.131 546.958C360.954 546.846 362.034 546.755 364.536 546.755ZM470.394 546.76C473.184 546.76 474.27 546.851 472.799 546.963C471.329 547.07 469.041 547.07 467.72 546.963C466.394 546.851 467.597 546.76 470.394 546.76ZM420.673 547.354C438.46 547.354 445.677 547.423 436.712 547.503C427.741 547.584 413.188 547.584 404.366 547.503C395.545 547.423 402.88 547.354 420.673 547.354Z" fill="#FCA07E"/>
<path d="M197.721 262.39C200.223 259.78 204.804 255.4 207.889 252.651C210.974 249.907 213.866 247.645 214.305 247.629C214.786 247.608 215.786 249.041 216.807 251.212C217.737 253.202 218.582 255.095 218.678 255.416C218.769 255.737 217.165 257.288 215.107 258.86C213.048 260.432 208.477 264.171 204.949 267.171C201.42 270.166 197.165 274.032 192.46 278.899L186.953 274.086L190.059 270.61C191.765 268.695 195.213 265 197.721 262.39Z" fill="#FDB811"/>
<path d="M216.144 285.616C217.01 284.862 220.255 282.022 223.362 279.306C226.468 276.589 229.248 274.353 229.542 274.343C229.836 274.332 232.359 276.926 235.156 280.097C237.952 283.274 241.919 287.434 243.977 289.338C246.035 291.248 248.767 293.649 252.376 296.548L248.981 299.74C247.11 301.494 241.849 306.682 237.294 311.26C232.739 315.838 226.478 322.485 223.394 326.031C220.309 329.577 216.7 333.748 215.374 335.31C214.048 336.866 210.712 341.059 207.959 344.621C205.2 348.183 200.848 353.985 198.287 357.515C195.721 361.045 190.337 368.869 186.322 374.896C182.302 380.929 178.944 386.1 178.853 386.394C178.768 386.688 177.597 385.726 176.25 384.255C174.908 382.784 172.529 380.137 170.968 378.372C169.406 376.607 167.599 374.564 166.947 373.826C166.3 373.094 164.948 371.527 163.948 370.35C162.948 369.174 160.077 365.687 157.57 362.596C155.062 359.51 150.924 354.151 148.374 350.696C145.819 347.241 143.739 344.23 143.749 344.011C143.76 343.792 145.952 339.278 148.625 333.984C151.298 328.689 153.886 323.758 154.378 323.02C154.87 322.288 155.741 320.779 156.319 319.672C156.896 318.571 157.607 317.661 157.901 317.656C158.195 317.651 159.762 318.063 161.376 318.571C162.991 319.073 166.001 320.726 168.059 322.239C170.118 323.753 172.823 326.111 174.074 327.48C175.325 328.85 176.448 329.914 176.571 329.839C176.699 329.764 178.137 327.903 179.773 325.694C181.409 323.491 183.291 320.993 183.959 320.148C184.622 319.309 185.542 318.223 186.001 317.742C186.461 317.266 188.739 314.586 191.064 311.789C193.39 308.998 199.635 302.27 204.933 296.847C210.236 291.424 215.278 286.37 216.144 285.616Z" fill="#FDB811"/>
<path d="M250.777 330.24C253.183 327.593 258.765 321.758 263.176 317.271C267.592 312.784 271.393 309.115 271.623 309.115C271.853 309.115 273.788 309.966 275.921 311.009C278.054 312.051 282.684 313.993 286.213 315.314C289.741 316.64 294.436 318.207 296.638 318.801C298.846 319.389 302.332 320.282 308.133 321.71L308.496 324.635C308.694 326.25 309.357 328.892 309.967 330.507C310.576 332.128 311.902 334.893 312.912 336.658C313.923 338.423 316.024 341.332 317.59 343.123C319.152 344.92 321.921 347.568 323.744 349.006C325.567 350.45 328.818 352.531 330.962 353.632C333.111 354.729 336.671 356.226 338.874 356.953C341.082 357.681 345.29 358.793 348.23 359.424C351.823 360.194 356.383 360.66 362.131 360.852C367.504 361.034 372.374 360.9 375.229 360.494C377.726 360.141 381.581 359.494 383.783 359.06C385.991 358.622 390.199 357.536 393.139 356.649C396.08 355.755 400.651 354.044 403.297 352.835C405.944 351.632 410.274 349.311 412.921 347.675C415.567 346.038 420.015 342.92 427.89 336.775L431.633 337.989C433.691 338.652 435.979 339.337 436.712 339.513C437.45 339.685 441.657 339.834 446.068 339.84C450.479 339.85 454.691 339.69 455.424 339.492C456.162 339.294 457.84 338.808 461.572 337.701L469.057 341.637C473.174 343.797 477.499 346.092 478.67 346.728C479.841 347.364 483.813 349.91 487.491 352.386C491.175 354.857 495.457 357.863 497.018 359.071C498.574 360.274 499.841 361.382 499.836 361.526C499.83 361.676 499.28 362.082 498.611 362.435C497.938 362.788 495.11 364.029 492.314 365.195C489.517 366.355 484.706 368.184 481.621 369.259C478.536 370.334 473.361 371.912 470.126 372.773C466.892 373.634 462.561 374.687 460.503 375.115C458.445 375.543 453.392 376.377 449.276 376.96C445.159 377.549 438.059 378.319 433.504 378.677C428.142 379.099 420.502 379.212 411.851 378.998C404.5 378.816 394.278 378.303 389.13 377.853C383.986 377.41 375.684 376.543 370.685 375.933C365.686 375.324 357.388 374.131 352.24 373.281C347.097 372.431 339.997 371.11 336.468 370.35C332.94 369.585 327.524 368.35 324.439 367.601C321.354 366.847 315.158 365.173 310.672 363.879C306.187 362.585 299.45 360.467 295.703 359.173C291.955 357.879 286.961 356.098 284.609 355.215C282.257 354.333 277.744 352.504 274.585 351.151C271.425 349.798 268.415 348.696 267.902 348.696C267.388 348.701 263.962 346.835 260.283 344.546C256.61 342.257 251.98 339.182 246.399 335.053L250.777 330.24Z" fill="#FDB811"/>
<path d="M221.399 365.296C223.976 361.9 227.104 357.75 228.35 356.076C229.595 354.402 230.793 353.017 231.012 353.001C231.231 352.985 233.546 354.595 236.161 356.579C238.77 358.563 241.758 360.67 242.801 361.259C243.849 361.847 247.302 363.82 250.489 365.639C253.67 367.462 258.439 369.826 261.085 370.896C263.732 371.96 266.319 373.056 266.832 373.329C267.346 373.602 269.393 374.452 271.377 375.211C273.36 375.971 275.226 376.661 275.52 376.736C275.814 376.811 276.413 377.03 276.857 377.217C277.301 377.41 279.765 378.287 282.337 379.169C284.908 380.057 287.004 380.597 286.993 380.378C286.977 380.158 287.277 380.255 287.662 380.597C288.041 380.939 291.72 382.228 295.836 383.469C299.953 384.704 303.679 385.817 304.123 385.929C304.567 386.047 307.689 386.87 311.073 387.758C314.457 388.646 320.232 390.063 323.904 390.913C327.583 391.758 331.309 392.587 332.191 392.753C333.073 392.924 335.96 393.544 338.607 394.133C341.253 394.726 349.075 396.047 355.982 397.069C362.89 398.085 371.914 399.294 376.031 399.748C380.148 400.208 388.809 400.935 395.278 401.374C401.747 401.813 412.814 402.171 419.871 402.165C426.928 402.16 436.792 401.796 441.791 401.358C446.79 400.919 453.767 400.069 457.295 399.465C460.824 398.866 466.721 397.657 470.394 396.785C474.072 395.914 480.562 394.095 484.829 392.742C489.095 391.395 494.388 389.576 496.591 388.705C498.799 387.833 501.563 386.688 502.739 386.164C503.915 385.64 507.62 383.913 510.972 382.324C514.324 380.741 517.329 379.153 517.655 378.8C518.099 378.319 519.767 379.693 524.461 384.415C527.883 387.86 531.529 391.635 532.566 392.812C533.603 393.988 535.164 395.796 536.036 396.823C536.907 397.85 539.81 401.46 547.375 410.995L545.91 411.776C545.103 412.209 542.997 413.092 541.232 413.739C539.468 414.391 534.533 416.284 530.272 417.947C526.011 419.611 518.553 422.424 513.699 424.194C508.844 425.964 502.231 428.323 498.996 429.44C495.762 430.553 489.266 432.687 484.561 434.179C479.857 435.671 472.217 437.981 467.587 439.318C462.957 440.655 459.043 441.746 458.899 441.746C458.755 441.746 458.632 442.227 458.632 442.816C458.632 443.714 458.183 443.928 455.825 444.163C454.28 444.313 448.928 444.795 443.929 445.228C438.931 445.666 429.97 446.019 424.014 446.019C418.059 446.025 407.954 445.661 401.56 445.212C395.166 444.768 385.12 443.917 379.239 443.324C373.358 442.73 363.013 441.415 356.25 440.398C349.487 439.382 340.703 437.965 336.736 437.259C332.769 436.548 326.631 435.35 323.103 434.601C319.574 433.853 314.04 432.628 310.806 431.879C307.571 431.125 303.845 430.243 302.519 429.911C301.193 429.579 298.066 428.745 295.569 428.061C293.072 427.371 290.426 426.681 289.688 426.531C288.956 426.381 285.101 425.28 281.134 424.092C277.167 422.905 269.709 420.52 264.56 418.792C259.417 417.07 252.317 414.535 248.789 413.161C245.26 411.787 242.132 410.765 241.838 410.893C241.544 411.016 240.849 412.658 240.293 414.535C239.737 416.413 238.353 420.894 237.219 424.499C236.086 428.103 235.156 431.531 235.156 432.12C235.156 432.954 236.118 433.585 239.566 435.008C241.993 436.008 247.345 438.024 251.462 439.484C255.578 440.944 261.23 442.88 264.026 443.778C266.822 444.677 271.152 446.025 273.649 446.768C276.146 447.511 281.925 449.116 286.48 450.33C291.035 451.549 296.815 453.009 299.311 453.576C301.808 454.143 308.908 455.694 315.083 457.02C321.258 458.352 330.277 460.154 335.132 461.031C339.986 461.908 344.798 462.732 345.824 462.86C346.851 462.988 349.978 463.459 352.775 463.903C355.571 464.352 360.019 464.962 362.665 465.272C365.312 465.577 370.845 466.176 374.962 466.609C379.078 467.042 387.077 467.759 392.738 468.208C399.175 468.716 409.686 469.016 420.807 469.01C430.585 469.01 441.47 468.775 444.999 468.492C448.527 468.208 454.365 467.55 457.969 467.026C462.363 466.395 464.523 465.86 464.518 465.411C464.518 465.042 465.657 464.491 467.052 464.186C468.448 463.876 471.276 463.133 473.334 462.534C475.392 461.93 478.402 460.999 480.017 460.464C481.632 459.929 485.24 458.849 488.036 458.058C490.833 457.266 500.092 454.212 508.62 451.266C517.147 448.319 528.818 444.105 534.549 441.901C540.281 439.703 547.862 436.703 551.39 435.232C554.919 433.767 558.469 432.227 559.276 431.81C560.709 431.066 560.784 431.104 562.259 433.323C563.093 434.574 565.596 438.607 567.814 442.281C570.038 445.96 573.519 452.095 575.561 455.918C577.598 459.742 580.031 464.374 580.966 466.213C581.902 468.053 582.608 469.668 582.533 469.807C582.458 469.946 579.394 471.294 575.716 472.797C572.043 474.305 565.542 476.813 561.281 478.369C557.02 479.931 550.765 482.065 547.381 483.118C543.996 484.167 538.228 485.889 534.549 486.948C530.877 488.007 527.508 488.958 527.065 489.06C526.621 489.162 521.809 490.344 516.372 491.681C510.935 493.018 500.467 495.307 493.115 496.767C485.764 498.227 479.092 499.499 478.29 499.596C477.387 499.703 476.825 499.515 476.82 499.104C476.815 498.735 476.232 496.569 475.531 494.29C474.826 492.012 473.126 486.295 471.746 481.589C470.372 476.883 468.961 472.358 468.613 471.54C468.223 470.604 467.592 470.053 466.919 470.064C465.951 470.075 465.881 470.321 466.202 472.626C466.395 474.027 466.918 476.375 467.362 477.845C467.806 479.316 469.292 484.37 470.666 489.076C472.04 493.782 473.484 498.355 473.874 499.237C474.264 500.12 475.569 504.029 476.766 507.928C477.964 511.827 478.948 515.137 478.948 515.281C478.948 515.431 474.077 515.549 468.121 515.549C462.166 515.549 450.799 515.185 442.86 514.747C434.921 514.303 424.693 513.693 420.138 513.394C415.583 513.089 408.12 512.5 403.565 512.083C399.01 511.661 390.707 510.821 385.12 510.206C379.533 509.596 372.198 508.73 368.814 508.286C365.429 507.837 357.132 506.628 350.369 505.596C343.606 504.564 331.576 502.537 323.637 501.088C315.698 499.644 304.39 497.387 298.509 496.071C292.628 494.756 284.93 492.969 281.401 492.092C277.873 491.215 272.82 489.905 270.174 489.178C267.527 488.45 262.475 487.006 258.947 485.958C255.418 484.915 249.644 483.097 246.115 481.915C242.587 480.733 237.535 478.936 234.888 477.92C232.242 476.899 228.633 475.46 226.869 474.722C225.094 473.973 223.698 473.059 223.741 472.668C223.784 472.278 224.677 468.593 225.719 464.475C226.767 460.357 228.478 453.982 229.521 450.303C230.568 446.629 231.429 443.377 231.44 443.083C231.445 442.789 223.142 434.248 212.979 424.098C202.816 413.953 194.507 405.348 194.513 404.979C194.518 404.61 195.213 403.289 196.058 402.037C196.897 400.786 198.945 397.657 200.602 395.085C202.26 392.512 203.612 390.165 203.612 389.87C203.612 389.576 203.794 389.277 204.013 389.202C204.232 389.127 205.965 386.785 207.857 383.988C209.75 381.196 212.038 377.907 212.936 376.688C213.834 375.468 215.053 373.794 215.641 372.971C216.23 372.147 218.823 368.692 221.399 365.296Z" fill="#FDB811"/>
<path d="M578.389 497.44C580.886 496.531 585.099 494.836 587.745 493.681C590.392 492.526 592.675 491.558 592.824 491.531C592.969 491.504 594.14 493.831 595.417 496.697C596.7 499.564 599.074 504.922 600.694 508.596C602.314 512.276 604.699 517.87 605.987 521.031C607.275 524.191 608.329 527.138 608.329 527.582C608.329 528.026 607.425 528.839 606.324 529.395C605.223 529.951 602.154 531.245 599.507 532.267C596.861 533.288 592.407 534.737 589.617 535.486C586.826 536.235 582.249 537.347 579.459 537.957C576.668 538.572 572.091 539.428 569.301 539.866C566.51 540.31 561.094 541.037 557.271 541.492C553.449 541.947 546.712 542.669 542.302 543.102C537.891 543.535 528.508 544.236 521.451 544.663C514.394 545.097 501.279 545.76 492.314 546.139C481.273 546.61 456.921 546.829 416.93 546.819C371.856 546.803 351.518 546.578 331.122 545.872C316.42 545.364 295.97 544.578 285.678 544.134C275.387 543.69 262.031 542.995 256.006 542.588C249.981 542.187 244.688 541.856 244.244 541.85C243.801 541.845 240.192 541.578 236.225 541.251C232.258 540.925 224.618 540.305 219.25 539.872C213.883 539.433 209.253 539.08 208.959 539.08C208.638 539.08 208.558 538.273 208.75 537.075C208.926 535.973 209.771 531.577 210.621 527.314C211.477 523.052 213.305 514.506 217.197 497.098L223.902 499.671C227.59 501.082 234.097 503.436 238.363 504.906C242.63 506.372 250.569 508.864 256.006 510.447C261.443 512.03 269.265 514.201 273.382 515.276C277.498 516.346 285.438 518.18 291.025 519.351C296.611 520.522 306.593 522.533 313.212 523.822C319.825 525.116 328.369 526.662 332.191 527.272C336.014 527.876 343.83 529.09 349.567 529.967C355.303 530.849 364.681 532.17 370.417 532.914C376.154 533.652 387.098 534.855 394.743 535.588C402.388 536.321 415.38 537.401 423.613 537.984C431.847 538.572 445.56 539.299 454.087 539.599C462.615 539.904 473.5 540.15 478.279 540.15C483.059 540.15 487.079 539.968 487.218 539.749C487.357 539.529 486.262 535.62 484.786 531.058C483.31 526.496 482.177 522.715 482.262 522.651C482.353 522.587 485.427 522.041 489.106 521.448C492.779 520.849 499.638 519.624 504.343 518.72C509.048 517.816 517.227 516.019 522.52 514.731C527.813 513.436 535.512 511.436 539.628 510.281C543.745 509.126 550.364 507.168 554.331 505.933C558.298 504.698 561.789 503.5 562.083 503.275C562.377 503.045 564.419 502.323 566.627 501.671C568.83 501.013 571.359 500.168 572.241 499.788C573.123 499.408 575.893 498.355 578.389 497.44Z" fill="#FDB811"/>
<path d="M349.032 12.846C351.828 12.5251 356.517 12.0598 359.457 11.8192C362.398 11.5785 369.257 11.3485 374.694 11.3164C380.132 11.279 388.675 11.5999 393.674 12.0224C398.673 12.4395 404.687 13.0439 407.04 13.354C409.392 13.6642 413.6 14.2792 416.396 14.7285C419.192 15.1724 423.282 15.8997 425.484 16.3489C427.693 16.7928 432.258 17.8517 435.642 18.7074C439.027 19.5577 443.956 20.8734 446.602 21.6328C449.249 22.3922 453.943 23.8896 457.028 24.9539C460.113 26.0235 465.769 28.2108 469.592 29.8206C473.414 31.4303 478.707 33.8316 481.354 35.1579C484 36.4896 488.09 38.6609 490.442 39.9872C492.795 41.3135 497.366 44.1533 500.6 46.2978C503.835 48.4424 509.112 52.3251 512.33 54.9135C515.543 57.5073 520.756 62.1547 523.91 65.2459C527.065 68.337 531.539 73.1502 533.854 75.9419C536.175 78.7336 539.901 83.7928 542.136 87.1727C544.376 90.5527 547.664 96.0932 549.439 99.4732C551.219 102.853 553.673 108.03 554.898 110.971C556.122 113.913 557.795 118.245 558.613 120.598C559.437 122.951 560.714 126.919 561.457 129.422C562.206 131.925 563.286 136.011 563.869 138.514C564.446 141.017 565.178 144.263 565.494 145.734C565.809 147.204 566.665 152.499 567.403 157.499C568.14 162.5 569.092 170.201 569.525 174.613C569.953 179.025 570.819 185.646 571.45 189.32C572.075 192.999 573.193 197.813 573.93 200.016C574.668 202.225 576.069 205.712 577.042 207.771C578.02 209.83 580.234 213.439 581.971 215.793C583.768 218.231 586.836 221.467 589.109 223.312C591.301 225.093 594.412 227.285 596.032 228.189C597.652 229.093 600.293 230.227 601.913 230.708C603.533 231.19 605.244 231.58 605.714 231.575C606.19 231.569 607.222 230.906 608.008 230.099C608.799 229.286 609.435 228.029 609.425 227.291C609.419 226.558 608.74 224.873 607.912 223.547C607.088 222.221 605.581 220.51 604.565 219.734C603.549 218.959 601.87 217.905 600.844 217.386C599.817 216.868 598.796 216.178 598.582 215.851C598.363 215.525 598.192 214.776 598.192 214.188C598.197 213.6 598.614 212.691 599.122 212.167C599.769 211.498 600.838 211.215 602.715 211.225C604.185 211.231 606.832 211.717 608.596 212.3C610.36 212.883 613.247 214.29 615.012 215.424C616.776 216.552 619.647 218.787 621.39 220.381C623.133 221.975 625.988 225.205 627.736 227.558C629.479 229.911 631.81 233.644 632.916 235.848C634.018 238.056 635.563 241.784 636.349 244.137C637.135 246.49 638.129 250.464 638.562 252.961C638.995 255.459 639.343 260.154 639.337 263.39C639.332 266.625 639.097 270.717 638.813 272.482C638.53 274.246 637.685 277.856 636.937 280.504C636.188 283.151 634.638 287.242 633.488 289.595C632.344 291.948 629.88 296.013 628.019 298.623C626.159 301.238 622.229 305.677 619.289 308.49C616.348 311.303 611.895 314.934 609.398 316.555C606.901 318.175 603.169 320.207 601.111 321.074C599.053 321.935 595.808 323.101 593.894 323.667C591.648 324.336 587.959 324.807 583.468 325.01C578.111 325.245 575.598 325.111 572.508 324.438C570.306 323.956 567.055 322.983 562.083 320.972L560.132 312.239C559.057 307.431 557.549 301.334 556.774 298.687C555.999 296.04 554.496 291.226 553.438 287.991C552.374 284.755 550.193 278.739 548.589 274.621C546.985 270.503 545.536 267.011 545.37 266.866C545.205 266.722 545.247 267.08 545.467 267.668C545.686 268.257 546.311 270.786 546.862 273.284C547.413 275.781 548.583 281.199 549.466 285.317C550.342 289.435 551.561 295.569 552.176 298.954C552.791 302.34 553.641 307.03 554.069 309.383C554.497 311.736 554.999 314.865 555.181 316.335C555.518 318.967 555.475 319.073 552.299 323.288C550.53 325.641 548.033 328.422 546.76 329.459C545.483 330.502 543.718 331.866 542.836 332.481C541.954 333.101 539.548 334.449 537.49 335.481C535.432 336.508 531.101 338.032 527.867 338.856C522.681 340.187 521.002 340.369 513.699 340.385C507.337 340.396 504.482 340.171 501.402 339.401C499.2 338.85 495.468 337.508 493.115 336.417C490.763 335.331 487.384 333.251 485.609 331.802C483.348 329.962 482.284 328.689 482.07 327.566C481.899 326.684 481.257 323.074 480.637 319.544C480.022 316.014 478.761 308.313 477.841 302.43C476.921 296.548 475.997 290.531 475.783 289.06C475.403 286.429 475.392 286.467 474.965 291.2C474.729 293.847 474.655 300.345 474.81 305.639C474.959 310.934 475.51 317.913 476.98 327.031L473.526 330.24C471.367 332.246 468.373 334.289 465.555 335.69C463.069 336.92 459.594 338.321 457.83 338.797C456.065 339.273 451.975 339.808 448.741 339.979C445.025 340.182 441.283 340.048 438.583 339.621C436.231 339.246 432.258 338.23 429.762 337.358C427.265 336.487 423.533 334.786 421.475 333.588C419.416 332.39 416.048 329.7 413.99 327.614C411.932 325.529 409.478 322.379 408.542 320.614C407.601 318.849 406.441 316.325 405.965 314.998C405.489 313.672 404.751 310.666 404.329 308.313C403.912 305.96 403.565 302.233 403.57 300.024C403.57 297.82 403.928 293.788 404.366 291.066C404.81 288.344 405.644 284.376 406.227 282.242C406.815 280.108 408.109 276.081 409.114 273.284C410.114 270.487 411.461 266.877 412.108 265.262C412.75 263.647 413.375 262.261 413.498 262.187C413.621 262.112 414.386 262.513 415.193 263.08C416 263.641 418.224 264.839 420.138 265.738C422.052 266.636 425.538 267.77 427.89 268.257C431.045 268.909 433.638 269.064 437.781 268.84C441.251 268.647 444.822 268.085 447.137 267.369C449.195 266.727 452.441 265.417 454.355 264.46C456.269 263.497 459.273 261.625 461.038 260.299C462.802 258.972 465.459 256.598 466.945 255.026C468.431 253.448 470.623 250.715 471.816 248.95C473.008 247.185 474.537 244.661 475.211 243.335C475.879 242.009 476.964 239.361 477.622 237.452C478.274 235.543 479.119 232.051 479.498 229.697C479.937 226.965 480.07 223.29 479.867 219.536C479.659 215.664 479.151 212.466 478.392 210.177C477.75 208.268 476.681 205.621 476.007 204.294C475.334 202.968 473.676 200.385 472.324 198.545C470.966 196.705 468.474 194.106 466.785 192.764C465.095 191.422 462.385 189.646 460.77 188.823C459.156 187.994 456.386 186.881 454.622 186.346C452.366 185.662 449.751 185.384 445.8 185.4C441.267 185.421 439.364 185.694 435.91 186.806C433.499 187.587 429.767 189.395 427.356 190.951C424.955 192.497 420.908 195.914 413.188 203.76L411.509 199.615C410.59 197.337 409.237 193.903 408.505 191.994C407.772 190.085 406.238 185.271 405.094 181.298C403.955 177.324 402.533 171.308 401.939 167.928C401.346 164.548 400.688 159.387 400.089 151.156L383.516 140.787L382.292 137.38C381.613 135.503 380.479 130.962 379.763 127.283C379.046 123.609 378.095 117.047 377.646 112.71C377.197 108.372 376.833 102.538 376.833 99.7406C376.833 96.5318 376.635 94.7562 376.298 94.9274C376.004 95.0771 375.186 97.1789 374.481 99.6069C373.775 102.035 372.818 106.426 372.347 109.367C371.882 112.308 371.262 118.202 370.963 122.47C370.669 126.737 370.428 130.406 370.423 130.625C370.417 130.845 370.059 131.026 369.615 131.026C369.172 131.026 365.985 129.545 362.532 127.732C359.078 125.924 352.518 122.395 347.963 119.897C343.408 117.4 336.067 113.325 331.657 110.838C327.246 108.351 321.953 105.34 319.895 104.142C317.836 102.949 315.96 101.709 315.73 101.388C315.495 101.072 315.457 98.7672 315.644 96.2644C315.826 93.7615 316.323 90.0339 316.746 87.9749C317.168 85.9159 318.141 82.306 318.911 79.9529C319.686 77.5998 321.343 73.5085 322.595 70.8613C323.851 68.214 326.225 64.0639 327.866 61.6359C329.513 59.2079 330.732 57.1062 330.587 56.9564C330.443 56.812 329.657 57.026 328.85 57.4431C328.042 57.8602 325.097 60.1118 322.3 62.4488C319.504 64.7859 315.634 68.4761 313.688 70.6527C311.747 72.824 308.972 76.1719 307.523 78.0811C306.08 79.9903 303.278 84.0227 297.707 92.5207L293.297 91.2051C290.869 90.4832 286.721 89.1461 284.074 88.2263C281.428 87.3118 274.932 84.9854 269.639 83.0601C264.346 81.1348 257.15 78.3218 253.643 76.8136C250.141 75.3055 247.19 73.8294 247.088 73.5353C246.987 73.2411 248.142 70.8345 249.649 68.1873C251.162 65.54 253.189 62.1707 254.156 60.7C255.119 59.2293 257.685 55.9831 259.855 53.4802C262.026 50.9773 266.196 46.9075 269.126 44.426C272.056 41.9499 277.097 38.1902 280.332 36.0778C283.566 33.96 288.859 30.9062 292.094 29.2858C295.328 27.6653 300.739 25.2534 304.123 23.9217C307.507 22.5901 312.677 20.7771 315.618 19.8893C318.558 19.0015 323.493 17.6645 326.578 16.9212C329.662 16.1724 334.838 15.0815 338.072 14.4932C341.307 13.9102 346.236 13.1669 349.032 12.846Z" fill="#111D1C"/>
<path d="M11.3692 91.9859C10.316 90.9538 9.26812 89.6595 9.04357 89.098C8.69606 88.2477 8.81368 88.1407 9.75463 88.4242C10.3748 88.6113 11.2409 88.7557 11.6793 88.7504C12.1231 88.745 12.9624 89.59 13.5505 90.6222C14.4059 92.125 14.4861 92.633 13.9515 93.1785C13.4169 93.724 12.9143 93.4941 11.3692 91.9859Z" fill="#E74F28"/>
<path d="M467.362 477.845C466.919 476.375 466.421 474.027 466.25 472.631C465.983 470.385 466.068 470.091 466.967 470.069C467.587 470.059 468.234 470.631 468.613 471.54C468.961 472.358 470.372 476.883 471.746 481.589C473.126 486.295 474.826 492.012 475.531 494.29C476.232 496.569 476.809 498.794 476.809 499.237C476.809 499.735 476.307 500.04 475.473 500.04C474.582 500.04 473.977 499.639 473.66 498.836C473.404 498.173 472.062 493.783 470.682 489.076C469.298 484.37 467.806 479.316 467.362 477.845Z" fill="#E74F28"/>
<path d="M214.203 159.505C215.513 159.403 215.845 159.162 215.641 158.483C215.428 157.777 215.62 157.665 216.577 157.943C217.24 158.13 218.143 158.285 218.582 158.285C219.02 158.285 219.865 158.665 220.453 159.136C221.041 159.601 221.159 159.809 220.72 159.601C220.057 159.28 220.036 159.344 220.608 159.959C221.143 160.537 221.389 160.558 221.677 160.055C221.966 159.558 222.608 159.654 224.329 160.457C225.58 161.034 226.478 161.751 226.334 162.045C226.19 162.339 226.489 162.74 227.002 162.933C227.516 163.131 228.082 163.312 228.259 163.334C228.44 163.361 230.002 165.018 231.734 167.019C233.471 169.013 235.107 170.639 235.38 170.628C235.647 170.612 235.711 170.784 235.519 171.003C235.327 171.222 235.588 171.725 236.096 172.11C236.61 172.5 236.727 172.682 236.358 172.511C235.936 172.318 235.792 172.506 235.957 173.008C236.118 173.484 236.497 173.645 236.888 173.409C237.326 173.146 237.415 173.235 237.155 173.677C236.936 174.046 237.059 174.939 237.428 175.661C237.797 176.383 238.278 176.864 238.497 176.731C238.716 176.597 238.722 176.907 238.508 177.421C238.23 178.084 238.31 178.239 238.775 177.955C239.245 177.667 239.636 178.511 240.149 180.897C240.545 182.736 240.908 186.106 240.951 188.384C240.999 190.662 240.887 192.828 240.7 193.197C240.448 193.705 240.256 193.673 239.908 193.063C239.566 192.47 239.449 192.646 239.443 193.732C239.438 194.539 239.673 195.085 239.967 194.935C240.315 194.759 240.309 195.454 239.946 196.941C239.636 198.192 238.812 200.299 238.112 201.62C237.412 202.947 236.583 203.968 236.267 203.893C235.947 203.818 235.567 204.123 235.423 204.562C235.248 205.093 235.382 205.23 235.824 204.973C236.193 204.76 236.011 205.214 235.423 205.984C234.835 206.76 234.172 207.3 233.953 207.182C233.733 207.065 233.552 207.209 233.552 207.503C233.552 207.797 231.964 209.605 230.028 211.514C228.088 213.429 226.222 215.017 225.885 215.054C225.543 215.087 225.083 215.087 224.864 215.054C224.645 215.017 224.586 215.231 224.73 215.525C224.874 215.819 224.457 216.231 223.795 216.44C223.132 216.648 222.11 216.862 221.522 216.921C220.934 216.98 218.347 217.167 215.775 217.343C213.118 217.525 210.52 218.012 208.424 219.269L207.857 215.659C207.547 213.675 207.157 207.84 206.986 202.69C206.799 197.053 206.922 191.095 207.285 187.715C207.622 184.63 208.387 179.212 208.991 175.682C209.589 172.153 210.621 167.099 211.29 164.452C212.476 159.708 212.519 159.638 214.203 159.505Z" fill="#FD8E68"/>
<path d="M308.764 325.561C308.667 326.074 308.432 325.411 308.24 324.09L307.892 321.678L312.56 322.646C315.794 323.32 321.007 323.732 329.604 323.988C336.409 324.191 341.884 324.539 341.766 324.758C341.643 324.978 340.526 325.646 339.275 326.24C337.431 327.117 335.837 327.331 330.855 327.374C326.756 327.409 322.479 327.042 318.023 326.272C314.35 325.641 310.801 325.01 310.138 324.871C309.293 324.7 308.881 324.903 308.764 325.561Z" fill="#FD8E68"/>
<path d="M247.853 99.1362C248.954 98.6548 251.061 97.9382 252.531 97.5424C254.023 97.1413 256.621 96.9274 258.412 97.0558C260.176 97.1841 262.7 97.6601 264.026 98.1093C265.351 98.5639 267.367 99.7191 268.511 100.676C269.661 101.634 271.04 103.318 271.585 104.42C272.131 105.522 272.59 106.848 272.596 107.361C272.606 107.875 272.125 108.96 271.526 109.768C270.933 110.576 270.019 111.228 269.506 111.217C268.992 111.201 267.244 109.934 265.629 108.394C263.512 106.372 261.978 105.409 260.15 104.939C258.754 104.58 256.648 104.286 255.471 104.286C254.295 104.286 251.708 104.8 249.724 105.431C246.837 106.345 245.875 106.452 244.912 105.966C244.068 105.538 243.71 104.88 243.71 103.751C243.71 102.858 244.185 101.671 244.779 101.077C245.367 100.489 246.752 99.6175 247.853 99.1362Z" fill="#111D1C"/>
<path d="M328.192 127.951C328.786 127.438 329.812 126.86 330.464 126.668C331.122 126.475 333.218 126.288 335.132 126.256C337.313 126.213 340.002 126.614 342.349 127.326C344.408 127.946 346.936 129.085 347.963 129.855C348.989 130.625 350.604 132.107 351.55 133.144C352.491 134.187 353.812 136.107 354.491 137.407C355.335 139.048 355.699 140.615 355.656 142.487C355.608 144.68 355.351 145.38 354.32 146.156C353.614 146.685 352.619 147.108 352.106 147.092C351.593 147.081 350.689 146.83 350.101 146.536C349.513 146.241 349.032 145.76 349.032 145.466C349.032 145.172 348.096 143.546 346.952 141.856C345.803 140.166 344.183 138.134 343.344 137.348C342.499 136.562 340.612 135.31 339.141 134.567C337.382 133.679 335.094 133.091 332.458 132.85C330.25 132.652 328.139 132.219 327.759 131.887C327.374 131.561 327.075 130.754 327.091 130.09C327.101 129.427 327.599 128.465 328.192 127.951Z" fill="#111D1C"/>
<path d="M241.026 131.829C242.245 130.652 243.891 129.406 244.683 129.064C245.468 128.721 246.597 128.411 247.185 128.384C247.773 128.352 249.099 128.673 250.125 129.096C251.152 129.518 252.504 130.427 253.13 131.112C253.75 131.802 254.696 133.567 255.226 135.037C255.974 137.112 256.108 138.487 255.83 141.188C255.621 143.204 254.841 146.012 253.975 147.873C253.151 149.637 251.408 152.237 250.098 153.648C248.607 155.264 246.821 156.542 245.313 157.077C243.416 157.75 242.512 157.809 241.036 157.355C240.01 157.039 238.385 155.916 237.428 154.868C236.471 153.814 235.449 152.049 235.161 150.948C234.867 149.846 234.626 148.103 234.621 147.07C234.615 146.044 234.979 143.813 235.417 142.124C235.861 140.434 236.807 137.904 237.513 136.508C238.224 135.112 239.807 133.005 241.026 131.829Z" fill="#111D1C"/>
<path d="M276.188 148.728C277.167 146.557 278.257 144.573 278.616 144.327C278.969 144.081 279.386 143.867 279.53 143.851C279.674 143.84 280.225 144.257 280.744 144.781C281.652 145.691 281.647 145.856 280.572 148.675C279.958 150.29 278.84 152.697 278.086 154.023C277.327 155.349 275.836 157.676 274.761 159.194C273.665 160.751 271.532 162.783 269.891 163.847C268.281 164.885 265.282 166.361 263.224 167.125C261.165 167.896 258.936 169.051 258.268 169.693C257.605 170.34 256.797 171.473 256.482 172.206C256.081 173.142 256.076 174.105 256.466 175.415C256.771 176.447 257.995 178.308 259.187 179.56C260.379 180.811 262.956 182.613 264.913 183.571C266.875 184.528 268.559 185.608 268.655 185.977C268.757 186.346 268.538 187.02 268.169 187.469C267.8 187.924 267.201 188.288 266.832 188.272C266.464 188.261 264.56 187.469 262.598 186.512C260.636 185.555 258.032 183.811 256.813 182.635C255.6 181.458 254.135 179.533 253.568 178.356C252.959 177.105 252.531 175.094 252.531 173.506C252.531 171.447 252.884 170.254 254.001 168.559C255.054 166.96 256.306 165.944 258.412 164.986L258.433 164.977C260.049 164.243 262.685 163.047 264.293 162.312C265.907 161.58 268.11 160.194 269.179 159.237C270.249 158.28 271.869 156.419 272.772 155.092C273.676 153.766 275.215 150.905 276.188 148.728Z" fill="#111D1C"/>
<path d="M317.355 158.697C318.456 157.595 320.322 156.339 321.499 155.911C322.685 155.478 324.353 155.269 325.241 155.44C326.123 155.617 327.508 156.087 328.315 156.494C329.122 156.9 330.277 157.895 330.881 158.702C331.485 159.51 332.389 161.451 332.886 163.018C333.693 165.542 333.715 166.243 333.073 169.168C332.678 170.987 331.657 173.976 330.801 175.816C329.951 177.656 328.107 180.319 326.711 181.736C325.23 183.239 323.279 184.608 322.033 185.009C320.857 185.384 319.114 185.549 318.157 185.368C317.2 185.186 315.655 184.378 314.725 183.571C313.789 182.763 312.592 181.137 312.062 179.961C311.533 178.784 311.089 176.618 311.084 175.148C311.073 173.677 311.437 171.03 311.891 169.265C312.34 167.5 313.308 164.853 314.035 163.382C314.762 161.911 316.254 159.804 317.355 158.697Z" fill="#111D1C"/>
<path d="M249.296 206.931C249.484 205.096 249.997 203.583 250.681 202.824C251.28 202.16 251.879 201.62 252.018 201.62C252.151 201.62 254.065 202.465 256.273 203.492C258.476 204.524 261.785 205.84 263.625 206.428C265.464 207.011 269.372 208.011 272.312 208.647C276.723 209.605 279.712 209.829 289.421 209.942C300.092 210.065 301.257 210.166 302.017 211.065C302.476 211.605 303.032 213.252 303.252 214.723C303.519 216.493 303.391 218.664 302.872 221.14C302.439 223.199 301.589 226.21 300.985 227.825C300.381 229.441 298.932 232.211 297.761 233.976C296.59 235.741 295.136 237.725 294.532 238.388C293.928 239.051 293.307 239.591 293.163 239.591C293.019 239.591 292.292 238.511 291.559 237.185C290.821 235.858 289.078 233.863 287.683 232.751C286.288 231.633 283.818 230.275 282.203 229.729C279.979 228.981 278.29 228.804 275.253 229.007C272.612 229.184 270.238 229.724 268.303 230.596C266.688 231.318 264.416 232.74 263.261 233.746C262.112 234.757 260.486 236.602 258.145 240.126L256.503 237.853C255.6 236.602 254.135 234.018 253.253 232.104C252.365 230.195 251.184 226.702 250.617 224.349C250.056 221.996 249.457 217.771 249.291 214.953C249.125 212.14 249.125 208.53 249.296 206.931Z" fill="#111D1C"/>
<path d="M38.9883 58.5607C38.3735 56.7959 37.8709 55.2931 37.8709 55.2182C37.8763 55.1434 38.0581 55.0738 38.2773 55.0631C38.4965 55.0524 39.0418 55.8172 39.4802 56.7638C39.9186 57.7104 40.7312 58.9832 41.2766 59.5929C41.8219 60.2026 43.0034 61.7856 43.9069 63.1065C44.8105 64.4275 46.2272 66.294 47.0559 67.2513C48.3444 68.7273 48.5689 69.4493 48.5636 72.0645C48.5582 73.7544 48.9325 77.3055 49.3869 79.9528C49.8414 82.6001 50.7021 86.4506 51.3009 88.5096C51.8943 90.5686 52.4878 92.6757 52.6108 93.1891C52.8246 94.0448 52.6963 94.0341 49.3709 92.0179L46.6977 93.3496C45.2275 94.0823 43.661 94.6705 43.2226 94.6598C42.6773 94.6492 42.3191 95.3818 42.1106 96.9274C41.9395 98.1788 41.2177 100.409 40.5067 101.88C39.7956 103.35 38.1276 105.661 36.807 107.014C35.3101 108.549 33.5939 109.704 32.2627 110.078C30.8619 110.474 29.4826 110.517 28.2529 110.196C27.2211 109.923 26.0823 109.329 25.7134 108.87C25.2429 108.276 25.2002 107.72 25.5798 106.96C25.9362 106.244 26.4263 106.001 27.05 106.233C27.5632 106.42 28.5844 106.688 29.3222 106.827C30.0546 106.966 31.3805 106.725 32.2627 106.292C33.1448 105.853 34.476 104.805 35.2245 103.955C35.973 103.11 37.1171 101.029 37.764 99.3394C38.4163 97.6494 38.9456 95.7241 38.9509 95.061C38.9509 94.2267 38.3575 93.5314 37.0102 92.788C35.9356 92.1998 33.5297 90.0926 31.6585 88.1085C29.7873 86.1244 27.3494 83.167 26.248 81.5358C24.3822 78.7762 24.302 78.5088 25.1253 77.6585C25.9487 76.7975 26.0823 76.8403 27.3387 78.3484C28.0765 79.2308 29.7285 81.1775 31.0063 82.6696C32.284 84.1617 34.2943 86.2528 35.4704 87.3063C36.6466 88.3652 38.5125 89.6113 39.6138 90.0713C40.7152 90.5365 42.2175 90.9162 42.9553 90.9162C43.6877 90.9162 45.0136 90.5526 45.8958 90.114C46.7779 89.6755 47.4997 88.8893 47.4997 88.3759C47.4997 87.8625 47.2591 86.6004 46.9704 85.5682C46.6763 84.5361 46.1738 81.1721 45.853 78.081C45.3344 73.0806 44.9869 71.8773 42.688 67.1176C41.2712 64.1762 39.6085 60.3256 38.9883 58.5607Z" fill="#E74F28"/>
<path d="M438.316 212.289C439.642 211.621 441.684 210.755 442.86 210.37C444.143 209.947 446.955 209.712 449.89 209.787C453.948 209.888 454.969 210.091 455.894 210.979C456.68 211.733 456.862 212.284 456.52 212.851C456.14 213.482 454.846 213.653 450.516 213.653C445.378 213.653 444.742 213.776 441.256 215.429C439.198 216.402 436.733 217.787 435.776 218.504C434.119 219.745 434.039 219.964 434.033 223.413C434.028 226.168 433.712 227.66 432.707 229.697C431.98 231.168 430.521 233.575 429.457 235.045C428.398 236.516 427.131 238.147 426.639 238.671C426.153 239.195 425.329 239.618 424.816 239.607C424.303 239.596 423.64 239.11 423.346 238.522C422.918 237.66 423.127 237.056 424.421 235.446C425.308 234.345 426.992 231.997 428.168 230.232C429.345 228.467 430.457 226.061 430.633 224.884C430.863 223.387 430.703 222.301 430.093 221.274C429.457 220.194 429.366 219.52 429.762 218.734C430.056 218.146 431.558 216.728 433.103 215.584C434.648 214.439 436.995 212.958 438.316 212.289Z" fill="#E74F28"/>
<path d="M266.164 231.649C267.49 230.885 269.655 229.965 270.976 229.612C272.302 229.259 274.884 228.949 276.723 228.933C278.883 228.906 281.059 229.28 282.871 229.981C284.417 230.58 286.641 231.863 287.817 232.831C288.993 233.794 290.709 235.773 293.302 239.859L291.094 242.078C289.88 243.297 287.202 245.089 285.144 246.052C282.38 247.351 280.423 247.875 277.659 248.052C275.584 248.185 272.606 247.993 270.976 247.613C269.361 247.239 266.955 246.388 265.63 245.725C264.309 245.062 262.144 243.565 260.818 242.393C258.551 240.393 258.449 240.19 259.08 238.858C259.449 238.088 260.652 236.463 261.753 235.249C262.855 234.035 264.844 232.419 266.164 231.649Z" fill="#E74F28"/>
<path d="M20.5809 73.5674C19.0305 71.9309 18.699 71.2945 19.2443 70.9896C19.7148 70.7276 20.4633 71.1875 21.4149 72.3266C22.2115 73.2839 22.8477 74.1877 22.821 74.3375C22.7996 74.4819 22.8103 74.9044 22.8424 75.2734C22.8798 75.6424 23.3877 75.9419 23.9758 75.9419C24.5639 75.9419 25.1627 76.3056 25.3124 76.7441C25.4621 77.1826 25.3391 77.664 25.0451 77.8137C24.751 77.9581 24.0881 77.5516 23.5748 76.9099C23.0616 76.2628 21.7143 74.76 20.5809 73.5674Z" fill="#FD8E68"/>
<path d="M41.5278 90.0767C41.9234 89.59 42.7628 88.9964 43.399 88.7504C44.0406 88.5097 45.0991 88.2958 45.7621 88.2744C46.425 88.2584 47.0826 88.483 47.2323 88.7771C47.382 89.0713 46.7779 89.6755 45.8958 90.114C45.0136 90.5526 43.5113 90.927 42.5543 90.9377C41.0039 90.9591 40.8916 90.8682 41.5278 90.0767Z" fill="#FD8E68"/>
<path d="M52.8459 94.1251L52.5359 92.6544C52.3006 91.5314 52.3594 91.3763 52.7818 91.9859C53.0919 92.4245 53.6532 92.7935 54.0275 92.7988C54.5087 92.8042 54.6744 93.569 54.5835 95.3391C54.4926 97.0826 54.7813 98.4517 55.5191 99.7406C56.1072 100.773 56.829 101.612 57.123 101.612C57.4171 101.612 57.54 101.976 57.3903 102.415C57.2406 102.853 57.3048 103.217 57.524 103.217C57.7432 103.222 58.3366 104.244 58.8392 105.49C59.3471 106.741 60.6088 108.907 61.646 110.303C62.6885 111.699 63.5386 112.966 63.5386 113.111C63.5386 113.255 64.378 114.458 65.4098 115.785C66.4416 117.111 67.1634 118.555 67.0137 118.993C66.864 119.432 66.447 119.801 66.0781 119.806C65.7092 119.812 63.8059 118.068 61.8438 115.929C59.8817 113.79 57.4545 110.961 56.4547 109.634C55.4496 108.308 53.7495 105.843 52.6695 104.153C51.5896 102.463 50.4668 100.955 50.1728 100.81C49.8787 100.66 49.6649 100.725 49.7023 100.944C49.7344 101.163 49.7344 101.709 49.7023 102.147C49.6595 102.666 49.1142 102.933 48.1679 102.901C47.3606 102.875 46.5159 102.81 46.2967 102.768C46.0775 102.719 46.0133 102.441 46.163 102.147C46.3127 101.853 46.0668 101.612 45.6284 101.612C45.19 101.612 44.8318 101.431 44.8425 101.211C44.8479 100.992 45.2702 100.382 45.7781 99.8582C46.6549 98.9491 46.6282 98.9063 45.2274 98.9223C44.4201 98.933 43.6663 99.1202 43.5594 99.3395C43.4525 99.5587 42.8483 99.9224 42.2228 100.142C41.1803 100.511 41.1322 100.425 41.6187 99.2058C41.9127 98.4677 42.1533 97.1468 42.1533 96.2644C42.1533 95.0878 42.4046 94.66 43.0889 94.6706C43.6022 94.676 45.2275 94.0823 49.3709 92.0179L52.8459 94.1251Z" fill="#FD8E68"/>
<path d="M338.072 193.695C338.366 193.368 339.933 192.887 341.547 192.625C343.162 192.363 345.568 192.261 346.894 192.395C348.219 192.529 350.743 192.999 352.507 193.438C354.271 193.882 356.677 194.727 357.854 195.32C359.03 195.914 360.409 196.791 360.917 197.272C361.425 197.748 361.73 198.326 361.585 198.545C361.446 198.764 361.51 198.962 361.73 198.989C361.949 199.01 362.612 199.128 363.2 199.246C363.788 199.363 364.51 199.743 364.804 200.085C365.194 200.54 365.119 200.583 364.536 200.257C363.863 199.882 363.841 199.957 364.403 200.716C364.772 201.214 365.312 201.497 365.606 201.353C365.9 201.209 366.082 201.299 366.007 201.567C365.932 201.829 366.033 202.011 366.231 201.968C366.429 201.925 367.204 202.487 367.953 203.225C368.707 203.957 369.15 204.802 368.936 205.097C368.712 205.417 368.824 205.471 369.22 205.23C369.648 204.974 370.471 205.637 371.535 207.102C372.444 208.353 373.647 210.279 374.208 211.38C374.769 212.482 375.085 213.808 374.914 214.322C374.646 215.097 374.689 215.119 375.133 214.456C375.555 213.835 375.935 214.504 376.806 217.397C377.426 219.456 378.073 222.702 378.25 224.617C378.421 226.526 378.282 229.895 377.94 232.104C377.571 234.479 376.56 237.698 375.47 239.992C374.283 242.49 373.246 243.966 372.556 244.137C371.968 244.281 371.46 244.704 371.422 245.073C371.39 245.442 371.39 245.923 371.422 246.143C371.46 246.362 370.498 247.565 369.289 248.817C368.076 250.068 367.418 250.608 367.819 250.02C368.498 249.025 368.482 249.004 367.589 249.752C367.06 250.196 366.643 250.913 366.664 251.357C366.686 251.801 366.52 251.988 366.29 251.774C366.06 251.565 365.451 251.983 364.937 252.71C364.424 253.437 363.761 253.908 363.467 253.763C363.173 253.619 362.152 253.886 361.195 254.362C360.238 254.838 358.976 255.812 358.388 256.528C357.8 257.245 356.415 258.058 355.314 258.336C354.213 258.614 352.406 259.079 351.304 259.368C350.203 259.652 348.155 259.892 346.76 259.903C345.365 259.908 344.162 259.732 344.087 259.507C344.012 259.283 342.028 258.7 339.676 258.218C337.324 257.732 335.276 257.502 335.132 257.705C334.987 257.914 334.565 258.01 334.196 257.924C333.827 257.844 333.287 257.774 332.993 257.774C332.699 257.774 332.603 257.352 332.774 256.839C333.063 255.994 332.999 255.983 332.143 256.705C331.282 257.432 331.224 257.416 331.555 256.571C331.844 255.838 331.721 255.71 330.988 255.988C330.454 256.186 330.218 256.133 330.438 255.855C330.651 255.587 329.513 254.464 327.898 253.362C326.289 252.261 324.792 251.362 324.573 251.373C324.353 251.384 323.509 250.662 322.701 249.769C321.894 248.875 321.413 248.148 321.632 248.153C321.851 248.153 321.493 247.795 320.83 247.351C320.167 246.907 319.627 246.185 319.627 245.741C319.627 245.298 319.029 244.399 318.301 243.736C317.569 243.073 316.97 242.233 316.965 241.864C316.96 241.495 316.58 241.014 316.115 240.795C315.655 240.575 314.8 239.067 314.212 237.452C313.629 235.837 313.041 233.366 312.912 231.97C312.784 230.564 312.918 229.312 313.212 229.163C313.506 229.018 313.768 229.318 313.789 229.831C313.821 230.564 313.891 230.596 314.11 229.965C314.265 229.521 314.105 228.681 313.746 228.093C313.271 227.296 313.255 226.713 313.693 225.82C314.014 225.157 314.265 223.595 314.244 222.344C314.212 220.504 314.11 220.274 313.704 221.141C313.351 221.884 313.276 221.146 313.452 218.734C313.618 216.445 314.201 214.252 315.152 212.316C316.382 209.819 316.665 209.535 317.008 210.445C317.371 211.402 317.414 211.375 317.441 210.177C317.457 209.439 317.777 208.503 318.146 208.091C318.676 207.508 318.681 207.423 318.157 207.69C317.66 207.947 317.681 207.658 318.237 206.567C318.649 205.76 320.392 203.754 322.113 202.112C323.835 200.47 325.781 198.845 326.444 198.502C327.385 198.016 327.652 198.021 327.663 198.545C327.674 198.946 327.941 198.839 328.331 198.283C328.689 197.775 329.181 197.534 329.422 197.748C329.662 197.968 329.727 197.722 329.555 197.208C329.342 196.545 329.705 196.037 330.812 195.47C331.667 195.026 332.87 194.668 333.485 194.668C334.212 194.668 334.458 194.887 334.196 195.299C333.918 195.743 334.116 195.834 334.864 195.593C335.452 195.406 336.597 195.122 337.404 194.962C338.211 194.802 338.874 194.427 338.874 194.133C338.874 193.839 338.575 193.753 338.206 193.946C337.746 194.188 337.701 194.105 338.072 193.695Z" fill="#FD8E68"/>
<path d="M318.157 329.967C318.232 329.673 319.307 329.245 320.542 329.015C322.076 328.737 324.551 328.93 328.294 329.625C331.32 330.181 334.757 330.882 335.934 331.176C337.735 331.62 337.906 331.77 337.003 332.128C336.415 332.363 333.047 332.625 329.518 332.711C325.786 332.802 321.985 332.604 320.429 332.23C318.959 331.877 317.574 331.224 317.355 330.78C317.12 330.299 317.173 330.08 317.489 330.24C317.783 330.385 318.082 330.267 318.157 329.967Z" fill="#FD8E68"/>
</svg>
