<svg width="385" height="292" viewBox="0 0 385 292" fill="none" xmlns="http://www.w3.org/2000/svg">
<path d="M385 146C385 226.634 298.815 292 192.5 292C86.1852 292 0 226.634 0 146C0 65.3664 86.1852 0 192.5 0C298.815 0 385 65.3664 385 146Z" fill="#2F69B8"/>
<path d="M337 284.5C315.8 282.5 306.5 276 298 267.5L332.5 242C332.333 242.5 333.2 245.5 338 253.5C342.8 261.5 357 276.833 363.5 283.5C363.5 284.667 358.2 286.5 337 284.5Z" fill="#2F69B8"/>
<path d="M34.0925 96.7344C33.0418 96.7344 32.5164 96.2091 32.5164 95.1583V85.8987C32.5164 84.8479 33.0418 84.3225 34.0925 84.3225H44.5343C45.585 84.3225 46.1104 84.8479 46.1104 85.8987V95.1583C46.1104 96.2091 45.585 96.7344 44.5343 96.7344H34.0925ZM34.2107 145.988C33.16 145.988 32.6346 145.463 32.6346 144.412L32.674 103.512C32.674 102.461 33.1994 101.936 34.2501 101.936H44.4949C45.5456 101.936 46.071 102.461 46.071 103.512L46.0316 144.412C46.0316 145.463 45.5062 145.988 44.4555 145.988H34.2107Z" fill="white"/>
<path d="M71.3221 130.424C71.3221 131.475 70.7967 132 69.7459 132H58.7131C57.6624 132 57.137 131.475 57.137 130.424V78.2151C57.137 77.1644 57.6624 76.639 58.7131 76.639H80.0301C84.0229 76.639 87.5166 77.4402 90.5113 79.0425C93.5321 80.6449 95.8569 82.8646 97.4856 85.7016C99.1405 88.5124 99.9679 91.6909 99.9679 95.2371C99.9679 99.0723 99.1799 102.448 97.6038 105.364C96.0277 108.279 93.7423 110.552 90.7477 112.18C87.7793 113.783 84.2593 114.584 80.1877 114.584H71.3221V130.424ZM79.045 101.778C80.3059 101.778 81.4486 101.502 82.4731 100.951C83.4975 100.399 84.2987 99.6371 84.8766 98.6652C85.4808 97.667 85.7829 96.5637 85.7829 95.3553C85.7829 94.1995 85.4808 93.175 84.8766 92.2819C84.2987 91.3888 83.4975 90.6927 82.4731 90.1936C81.4749 89.6945 80.3453 89.4449 79.0844 89.4449H71.3221V101.778H79.045Z" fill="white"/>
<path d="M138.442 85.8987C138.442 84.8479 138.967 84.3225 140.018 84.3225H150.263C151.313 84.3225 151.839 84.8479 151.839 85.8987V130.424C151.839 131.475 151.313 132 150.263 132H142.421C141.555 132 140.95 131.593 140.609 130.779L138.915 126.72C137.076 128.48 134.804 129.938 132.098 131.094C129.392 132.223 126.805 132.788 124.336 132.788C120.474 132.788 117.085 131.908 114.17 130.148C111.254 128.388 108.995 125.906 107.392 122.701C105.79 119.47 104.989 115.74 104.989 111.511V85.8987C104.989 84.8479 105.514 84.3225 106.565 84.3225H116.81C117.86 84.3225 118.386 84.8479 118.386 85.8987V110.013C118.386 112.115 118.767 113.967 119.528 115.569C120.316 117.145 121.407 118.367 122.799 119.233C124.217 120.1 125.859 120.534 127.724 120.534C129.694 120.534 131.494 120.074 133.122 119.155C134.777 118.209 136.078 116.974 137.023 115.451C137.969 113.927 138.442 112.312 138.442 110.604V85.8987Z" fill="white"/>
<path d="M184.52 133.182C179.765 133.182 175.497 132.066 171.714 129.833C167.931 127.6 164.976 124.592 162.848 120.81C160.747 117.027 159.696 112.903 159.696 108.437C159.696 103.919 160.694 99.7685 162.691 95.9858C164.713 92.1768 167.524 89.156 171.123 86.9231C174.722 84.664 178.806 83.5345 183.377 83.5345C188.316 83.5345 192.597 84.5984 196.223 86.7261C199.848 88.8539 202.606 91.7959 204.497 95.5524C206.415 99.3088 207.374 103.577 207.374 108.358C207.374 109.409 207.321 110.447 207.216 111.471C207.111 112.443 206.559 112.929 205.561 112.929H173.448C174.315 115.556 175.799 117.605 177.9 119.076C180.002 120.547 182.392 121.282 185.072 121.282C186.779 121.282 188.316 121.046 189.682 120.573C191.074 120.074 192.427 119.365 193.74 118.445C194.082 118.183 194.423 118.051 194.765 118.051C195.185 118.051 195.566 118.288 195.907 118.761L200.754 125.656C200.99 125.998 201.108 126.326 201.108 126.641C201.108 127.088 200.898 127.482 200.478 127.823C198.298 129.531 195.855 130.857 193.149 131.803C190.47 132.722 187.593 133.182 184.52 133.182ZM194.134 103.078C193.399 100.478 192.138 98.4813 190.351 97.0891C188.565 95.6968 186.385 95.0007 183.811 95.0007C181.289 95.0007 179.095 95.71 177.23 97.1285C175.392 98.547 174.091 100.53 173.329 103.078H194.134Z" fill="white"/>
<path d="M247.982 71.9106C247.982 70.8599 248.508 70.3345 249.559 70.3345H259.803C260.854 70.3345 261.379 70.8599 261.379 71.9106V130.424C261.379 131.475 260.854 132 259.803 132H251.962C251.095 132 250.491 131.593 250.15 130.779L249.165 128.414C245.881 131.488 241.757 133.024 236.792 133.024C232.3 133.024 228.163 131.921 224.38 129.715C220.597 127.482 217.603 124.474 215.396 120.691C213.19 116.882 212.086 112.719 212.086 108.201C212.086 103.709 213.19 99.5846 215.396 95.8282C217.629 92.0455 220.637 89.0509 224.42 86.8443C228.202 84.6378 232.326 83.5345 236.792 83.5345C241.179 83.5345 244.909 84.7297 247.982 87.1201V71.9106ZM237.028 120.219C239.209 120.219 241.192 119.719 242.978 118.721C244.791 117.697 246.209 116.291 247.234 114.505C248.285 112.693 248.81 110.657 248.81 108.398C248.81 106.112 248.298 104.063 247.273 102.251C246.249 100.412 244.843 98.9673 243.057 97.9165C241.271 96.8658 239.288 96.3404 237.107 96.3404C234.927 96.3404 232.944 96.8658 231.157 97.9165C229.397 98.941 228.005 100.373 226.981 102.211C225.983 104.05 225.483 106.112 225.483 108.398C225.483 110.683 225.983 112.719 226.981 114.505C227.979 116.291 229.345 117.697 231.079 118.721C232.839 119.719 234.822 120.219 237.028 120.219Z" fill="white"/>
<path d="M294.49 133.182C289.867 133.182 285.624 132.079 281.763 129.872C277.928 127.666 274.881 124.671 272.621 120.888C270.389 117.106 269.272 112.968 269.272 108.476C269.272 103.906 270.402 99.7159 272.661 95.907C274.92 92.098 277.98 89.0903 281.842 86.8837C285.729 84.6509 289.985 83.5345 294.608 83.5345C299.258 83.5345 303.513 84.6509 307.375 86.8837C311.263 89.0903 314.336 92.098 316.595 95.907C318.854 99.7159 319.984 103.906 319.984 108.476C319.984 112.968 318.841 117.106 316.556 120.888C314.297 124.671 311.21 127.666 307.296 129.872C303.408 132.079 299.14 133.182 294.49 133.182ZM294.648 120.376C296.828 120.376 298.824 119.851 300.637 118.8C302.476 117.749 303.92 116.318 304.971 114.505C306.048 112.666 306.587 110.631 306.587 108.398C306.587 106.139 306.048 104.09 304.971 102.251C303.92 100.412 302.476 98.9673 300.637 97.9165C298.824 96.8658 296.828 96.3404 294.648 96.3404C292.441 96.3404 290.418 96.8658 288.58 97.9165C286.767 98.9673 285.322 100.412 284.245 102.251C283.195 104.09 282.669 106.139 282.669 108.398C282.669 110.631 283.195 112.666 284.245 114.505C285.322 116.318 286.767 117.749 288.58 118.8C290.418 119.851 292.441 120.376 294.648 120.376Z" fill="white"/>
<path d="M80.5537 200.21C79.8941 200.869 79.1612 201.578 78.355 202.335C77.5733 203.092 76.706 203.801 75.7533 204.461C74.8005 205.12 73.7744 205.658 72.6751 206.073C71.5758 206.513 70.3909 206.732 69.1206 206.732C65.7981 206.732 62.7322 206.11 59.9228 204.864C57.1378 203.618 54.7314 201.92 52.7038 199.77C50.7005 197.596 49.1248 195.043 47.9766 192.111C46.8528 189.18 46.2909 186.028 46.2909 182.657C46.2909 179.261 46.8528 176.11 47.9766 173.203C49.1248 170.271 50.7005 167.73 52.7038 165.581C54.7314 163.406 57.1378 161.708 59.9228 160.487C62.7322 159.241 65.7981 158.618 69.1206 158.618C70.4642 158.618 71.6857 158.813 72.785 159.204C73.9088 159.595 74.9226 160.096 75.8265 160.707C76.7549 161.318 77.5977 162.014 78.355 162.796C79.1368 163.553 79.8697 164.298 80.5537 165.031V148.284C80.5537 147.502 80.7858 146.843 81.25 146.305C81.7385 145.768 82.4592 145.499 83.412 145.499H91.657C91.9746 145.499 92.3044 145.573 92.6464 145.719C93.0129 145.841 93.3427 146.024 93.6359 146.269C93.929 146.513 94.1611 146.806 94.3321 147.148C94.5275 147.49 94.6253 147.869 94.6253 148.284V203.068C94.6253 204.949 93.6359 205.89 91.657 205.89H84.4747C83.9861 205.89 83.6074 205.829 83.3387 205.706C83.07 205.584 82.8379 205.413 82.6425 205.193C82.4714 204.949 82.3126 204.656 82.1661 204.314C82.0195 203.947 81.8363 203.532 81.6164 203.068L80.5537 200.21ZM59.483 182.657C59.483 184.269 59.7273 185.784 60.2159 187.201C60.7289 188.593 61.4496 189.803 62.378 190.829C63.3063 191.855 64.4178 192.673 65.7126 193.284C67.0318 193.87 68.4854 194.163 70.0733 194.163C71.6368 194.163 73.1026 193.882 74.4707 193.321C75.8632 192.759 77.0725 191.989 78.0985 191.012C79.1246 190.01 79.943 188.838 80.5537 187.494C81.1889 186.15 81.5431 184.709 81.6164 183.17V182.657C81.6164 181.093 81.3232 179.603 80.7369 178.186C80.1506 176.769 79.3322 175.523 78.2817 174.449C77.2557 173.374 76.0342 172.531 74.6173 171.92C73.2248 171.285 71.7101 170.967 70.0733 170.967C68.4854 170.967 67.0318 171.285 65.7126 171.92C64.4178 172.531 63.3063 173.374 62.378 174.449C61.4496 175.523 60.7289 176.769 60.2159 178.186C59.7273 179.603 59.483 181.093 59.483 182.657Z" fill="white"/>
<path d="M143.36 200.32C141.21 202.298 138.791 203.85 136.104 204.974C133.417 206.073 130.571 206.623 127.566 206.623C124.219 206.623 121.055 206.012 118.075 204.79C115.095 203.569 112.481 201.883 110.233 199.733C107.985 197.559 106.202 195.006 104.883 192.075C103.564 189.143 102.904 185.955 102.904 182.51C102.904 180.361 103.161 178.284 103.674 176.281C104.211 174.253 104.956 172.36 105.909 170.601C106.886 168.842 108.059 167.23 109.427 165.764C110.819 164.274 112.371 163.003 114.081 161.953C115.791 160.902 117.647 160.084 119.651 159.498C121.654 158.911 123.767 158.618 125.99 158.618C128.018 158.618 129.984 158.887 131.89 159.424C133.796 159.962 135.579 160.719 137.24 161.696C138.926 162.673 140.465 163.846 141.857 165.214C143.25 166.582 144.447 168.085 145.449 169.721C146.45 171.334 147.22 173.068 147.757 174.925C148.319 176.757 148.6 178.65 148.6 180.605C148.6 181.875 148.576 182.913 148.527 183.72C148.502 184.526 148.319 185.173 147.977 185.662C147.635 186.126 147.061 186.456 146.255 186.651C145.473 186.822 144.313 186.908 142.773 186.908H116.389C116.634 188.471 117.122 189.778 117.855 190.829C118.612 191.879 119.48 192.722 120.457 193.357C121.434 193.968 122.472 194.408 123.572 194.676C124.671 194.945 125.709 195.079 126.686 195.079C127.566 195.079 128.47 194.994 129.398 194.823C130.327 194.628 131.218 194.383 132.073 194.09C132.953 193.772 133.747 193.418 134.455 193.027C135.188 192.612 135.774 192.185 136.214 191.745C136.605 191.427 136.935 191.195 137.203 191.049C137.497 190.878 137.802 190.792 138.12 190.792C138.437 190.792 138.755 190.902 139.072 191.122C139.414 191.342 139.793 191.659 140.208 192.075L144.093 196.472C144.361 196.79 144.532 197.083 144.606 197.351C144.679 197.596 144.716 197.852 144.716 198.121C144.716 198.61 144.581 199.037 144.313 199.404C144.044 199.746 143.726 200.051 143.36 200.32ZM125.734 169.795C124.781 169.795 123.853 169.99 122.949 170.381C122.069 170.747 121.239 171.248 120.457 171.883C119.675 172.519 118.967 173.239 118.331 174.045C117.721 174.852 117.22 175.67 116.829 176.501H135.554C135.041 175.548 134.48 174.668 133.869 173.862C133.283 173.056 132.598 172.348 131.817 171.737C131.059 171.126 130.18 170.65 129.178 170.308C128.201 169.966 127.053 169.795 125.734 169.795Z" fill="white"/>
<path d="M186.051 191.562C186.393 191.317 186.711 191.171 187.004 191.122C187.322 191.049 187.566 191.012 187.737 191.012C188.152 191.012 188.531 191.097 188.873 191.268C189.215 191.439 189.569 191.806 189.936 192.368L194.04 198.561C194.162 198.756 194.272 198.976 194.37 199.22C194.492 199.465 194.553 199.66 194.553 199.807C194.553 200.369 194.37 200.833 194.003 201.199C193.661 201.541 193.283 201.847 192.867 202.115C190.864 203.508 188.665 204.632 186.271 205.487C183.902 206.317 181.385 206.732 178.722 206.732C176.524 206.732 174.398 206.452 172.346 205.89C170.319 205.328 168.425 204.534 166.666 203.508C164.907 202.457 163.295 201.211 161.829 199.77C160.363 198.304 159.118 196.68 158.092 194.896C157.065 193.113 156.259 191.195 155.673 189.143C155.111 187.067 154.83 184.904 154.83 182.657C154.83 180.409 155.111 178.247 155.673 176.171C156.259 174.094 157.065 172.177 158.092 170.418C159.118 168.634 160.363 167.022 161.829 165.581C163.295 164.115 164.907 162.869 166.666 161.843C168.425 160.817 170.319 160.023 172.346 159.461C174.398 158.899 176.524 158.618 178.722 158.618C181.385 158.618 183.841 158.972 186.088 159.681C188.36 160.389 190.485 161.44 192.464 162.832L192.354 162.722C192.892 163.04 193.319 163.418 193.637 163.858C193.954 164.274 194.113 164.799 194.113 165.434C194.113 165.874 193.967 166.326 193.673 166.79L190.412 172.323C189.728 173.52 188.897 174.119 187.92 174.119C187.7 174.119 187.432 174.07 187.114 173.972C186.797 173.85 186.442 173.655 186.051 173.386C184.976 172.677 183.816 172.103 182.57 171.664C181.349 171.199 180.042 170.967 178.649 170.967C177.11 170.967 175.693 171.285 174.398 171.92C173.104 172.531 171.992 173.374 171.064 174.449C170.16 175.523 169.451 176.769 168.938 178.186C168.425 179.603 168.169 181.093 168.169 182.657C168.169 184.269 168.425 185.784 168.938 187.201C169.451 188.593 170.16 189.803 171.064 190.829C171.992 191.855 173.104 192.673 174.398 193.284C175.693 193.87 177.11 194.163 178.649 194.163C180.042 194.163 181.349 193.919 182.57 193.43C183.792 192.942 184.952 192.319 186.051 191.562Z" fill="white"/>
<path d="M201.456 162.209C201.456 161.427 201.676 160.756 202.116 160.194C202.555 159.632 203.239 159.351 204.168 159.351H212.559C212.852 159.351 213.17 159.424 213.512 159.571C213.854 159.693 214.172 159.888 214.465 160.157C214.758 160.401 215.002 160.695 215.198 161.037C215.418 161.379 215.527 161.769 215.527 162.209V203.068C215.527 203.996 215.271 204.705 214.758 205.193C214.245 205.658 213.512 205.89 212.559 205.89H204.168C202.36 205.89 201.456 204.949 201.456 203.068V162.209ZM201.456 143.667C201.456 142.641 201.676 141.92 202.116 141.505C202.555 141.065 203.239 140.845 204.168 140.845H212.669C213.524 140.845 214.208 141.065 214.721 141.505C215.259 141.92 215.527 142.641 215.527 143.667V150.813C215.527 151.106 215.454 151.423 215.308 151.765C215.185 152.107 215.002 152.437 214.758 152.755C214.514 153.072 214.208 153.341 213.842 153.561C213.5 153.757 213.109 153.854 212.669 153.854H204.168C202.36 153.854 201.456 152.84 201.456 150.813V143.667Z" fill="white"/>
<path d="M224.324 162.063C224.324 161.647 224.409 161.256 224.58 160.89C224.776 160.499 225.008 160.194 225.277 159.974C225.912 159.559 226.571 159.351 227.255 159.351H232.789C233.253 159.351 233.619 159.436 233.888 159.607C234.157 159.778 234.377 159.998 234.548 160.267C234.743 160.536 234.902 160.841 235.024 161.183C235.171 161.525 235.342 161.867 235.537 162.209C235.586 162.307 235.684 162.551 235.83 162.942C235.977 163.309 236.136 163.724 236.307 164.188C236.478 164.628 236.636 165.055 236.783 165.471C236.954 165.861 237.064 166.118 237.113 166.24C237.846 165.434 238.542 164.591 239.202 163.712C239.886 162.808 240.606 161.977 241.364 161.22C242.121 160.462 242.964 159.84 243.892 159.351C244.82 158.862 245.92 158.618 247.19 158.618C248.509 158.618 249.682 158.716 250.708 158.911C251.759 159.107 252.748 159.4 253.676 159.791C254.605 160.157 255.521 160.633 256.425 161.22C257.353 161.806 258.355 162.49 259.429 163.272C261.115 164.176 261.433 165.519 260.382 167.303L257.048 172.983C256.559 173.716 255.96 174.168 255.252 174.339C254.544 174.51 253.774 174.4 252.943 174.009C251.893 172.983 250.818 172.225 249.719 171.737C248.644 171.224 247.41 170.967 246.018 170.967C245.065 170.967 244.222 171.102 243.489 171.37C242.781 171.639 242.133 172.018 241.547 172.506C240.961 172.995 240.411 173.581 239.898 174.265C239.385 174.949 238.872 175.707 238.359 176.537V203.068C238.359 203.996 238.127 204.705 237.663 205.193C237.223 205.658 236.478 205.89 235.427 205.89H227.182C225.277 205.89 224.324 204.949 224.324 203.068V162.063Z" fill="white"/>
<path d="M266.48 148.321C266.48 147.539 266.675 146.88 267.066 146.342C267.457 145.805 268.129 145.536 269.081 145.536H278.059C278.304 145.536 278.56 145.609 278.829 145.756C279.098 145.878 279.342 146.061 279.562 146.305C279.806 146.55 280.001 146.843 280.148 147.185C280.319 147.527 280.405 147.906 280.405 148.321V203.068C280.405 203.996 280.136 204.705 279.598 205.193C279.085 205.658 278.413 205.89 277.583 205.89H269.081C268.129 205.89 267.457 205.658 267.066 205.193C266.675 204.705 266.48 203.996 266.48 203.068V148.321Z" fill="white"/>
<path d="M287.739 182.657C287.739 180.409 288.02 178.247 288.581 176.171C289.168 174.094 289.974 172.177 291 170.418C292.05 168.634 293.296 167.022 294.738 165.581C296.204 164.115 297.828 162.869 299.611 161.843C301.395 160.817 303.313 160.023 305.365 159.461C307.441 158.899 309.603 158.618 311.851 158.618C315.173 158.618 318.288 159.241 321.195 160.487C324.127 161.708 326.667 163.406 328.817 165.581C330.992 167.73 332.702 170.271 333.948 173.203C335.218 176.11 335.853 179.261 335.853 182.657C335.853 184.904 335.56 187.067 334.974 189.143C334.412 191.195 333.606 193.113 332.555 194.896C331.529 196.68 330.283 198.304 328.817 199.77C327.376 201.211 325.764 202.457 323.98 203.508C322.197 204.534 320.279 205.328 318.227 205.89C316.199 206.452 314.074 206.732 311.851 206.732C309.603 206.732 307.441 206.452 305.365 205.89C303.313 205.328 301.395 204.534 299.611 203.508C297.828 202.457 296.204 201.211 294.738 199.77C293.296 198.304 292.05 196.68 291 194.896C289.974 193.113 289.168 191.195 288.581 189.143C288.02 187.067 287.739 184.904 287.739 182.657ZM301.114 182.657C301.114 184.269 301.358 185.784 301.847 187.201C302.36 188.593 303.068 189.803 303.972 190.829C304.901 191.855 306.012 192.673 307.307 193.284C308.626 193.87 310.104 194.163 311.741 194.163C313.329 194.163 314.758 193.87 316.028 193.284C317.323 192.673 318.41 191.855 319.29 190.829C320.194 189.803 320.878 188.593 321.342 187.201C321.83 185.784 322.075 184.269 322.075 182.657C322.075 181.093 321.83 179.603 321.342 178.186C320.878 176.769 320.194 175.523 319.29 174.449C318.41 173.374 317.323 172.531 316.028 171.92C314.758 171.285 313.329 170.967 311.741 170.967C310.104 170.967 308.626 171.285 307.307 171.92C306.012 172.531 304.901 173.374 303.972 174.449C303.068 175.523 302.36 176.769 301.847 178.186C301.358 179.603 301.114 181.093 301.114 182.657Z" fill="white"/>
<path d="M344.708 147.185C344.708 146.11 345.307 145.573 346.504 145.573H356.032C357.107 145.573 357.644 146.11 357.644 147.185V186.688C357.644 187.152 357.51 187.543 357.241 187.86C356.972 188.154 356.569 188.3 356.032 188.3H346.504C346.138 188.3 345.747 188.154 345.331 187.86C344.916 187.567 344.708 187.176 344.708 186.688V147.185ZM344.708 195.373C344.708 194.884 344.843 194.493 345.112 194.2C345.405 193.907 345.808 193.76 346.321 193.76H355.995C356.41 193.76 356.789 193.907 357.131 194.2C357.497 194.493 357.681 194.884 357.681 195.373V204.241C357.681 204.68 357.534 205.071 357.241 205.413C356.948 205.755 356.532 205.926 355.995 205.926H346.321C345.246 205.926 344.708 205.364 344.708 204.241V195.373Z" fill="white"/>
</svg>
