<svg width="1213" height="911" viewBox="0 0 1213 911" fill="none" xmlns="http://www.w3.org/2000/svg">
<path d="M150.543 4.29445C152.931 3.13965 157.03 1.71568 159.661 1.14262C162.839 0.456679 175.187 0.0746382 196.567 0.00517621C214.238 -0.0469202 263.275 0.300389 305.548 0.769258C347.82 1.23813 421.676 2.02826 469.671 2.51449C517.666 3.00941 596.41 3.79953 644.648 4.27709C692.887 4.75464 781 5.5274 840.467 6.00495C899.924 6.47382 994.299 7.28131 1050.18 7.78491C1134.85 8.56636 1152.93 8.93972 1158.73 10.0424C1162.55 10.7718 1169 12.8035 1173.06 14.5488C1178.68 16.9626 1180.41 18.0913 1180.23 19.2461C1180.11 20.0797 1181.68 22.6237 1183.72 24.8899C1185.77 27.1561 1188.48 30.7768 1189.75 32.9215C1191.02 35.0748 1192.91 39.9545 1193.96 43.7749C1195.63 49.8875 1195.8 52.1277 1195.37 62.4428C1195.1 68.8941 1193.7 84.1236 1192.24 96.3055C1190.78 108.487 1188.81 124.898 1187.86 132.773C1186.91 140.648 1184.97 156.677 1183.53 168.372C1182.09 180.068 1180.13 196.096 1179.17 203.971C1178.21 211.847 1176.45 226.312 1175.27 236.098C1174.08 245.883 1170.74 273.633 1167.87 297.745C1164.99 321.857 1162.05 346.282 1161.35 352.012C1160.65 357.743 1159.27 369.274 1158.3 377.626C1157.33 385.988 1156.14 395.947 1155.66 399.767C1155.18 403.588 1153.44 418.236 1151.78 432.328C1150.12 446.42 1147.57 467.71 1146.1 479.649C1144.63 491.587 1143.09 504.29 1142.65 507.868C1142.23 511.453 1141.27 519.068 1140.53 524.799C1139.8 530.529 1137.06 553.382 1134.45 575.593C1131.83 597.803 1127.33 635.704 1124.44 659.816C1121.55 683.927 1118.03 713.041 1116.63 724.502C1115.22 735.963 1113.06 753.737 1111.83 764.008C1110.6 774.28 1108.63 790.691 1107.45 800.476C1106.27 810.261 1104.68 823.555 1103.92 829.997C1103.16 836.44 1101.8 844.749 1100.89 848.448C1099.98 852.147 1097.78 858.164 1095.99 861.802C1094.2 865.449 1090.95 870.633 1088.78 873.307C1086.61 875.99 1082.51 880.045 1079.66 882.32C1076.82 884.594 1072.15 887.599 1069.28 889.005C1066.42 890.412 1061.24 892.166 1057.78 892.904C1054.31 893.642 1049.43 894.25 1046.92 894.25C1044.41 894.258 1024.97 892.687 1003.72 890.777C982.472 888.858 954.728 886.314 942.067 885.124C929.406 883.926 875.679 879.037 822.665 874.253C769.651 869.469 713.58 864.407 698.053 862.992C682.535 861.585 647.948 858.477 621.202 856.08L609.756 855.058C584.133 852.771 552.089 849.91 533.496 848.257C512.004 846.347 479.37 843.412 460.987 841.754C442.595 840.087 420.521 838.107 411.924 837.369C403.327 836.622 390.432 835.441 383.267 834.755C376.103 834.069 355.002 832.151 336.375 830.492C317.749 828.842 290.786 826.472 276.457 825.23C262.129 823.989 226.569 820.828 197.435 818.215C171.544 815.892 139.809 813.035 122.168 811.446L116.242 810.913C100.724 809.506 76.6877 807.361 62.8371 806.146C48.9866 804.93 35.3097 803.376 32.444 802.69C29.5784 801.995 25.8704 800.875 24.1945 800.181C22.5185 799.495 19.2968 797.515 17.0304 795.796C14.6076 793.955 12.2804 792.835 11.3859 793.078C10.3439 793.373 9.35393 792.618 8.23372 790.69C7.3393 789.154 5.53308 785.351 4.22183 782.242C2.91927 779.134 1.36488 773.672 0.7657 770.086C0.114419 766.162 -0.154778 759.433 0.0883673 753.155C0.305461 747.424 1.32146 738.438 2.33746 733.185C3.34477 727.932 5.16836 718.355 6.38409 711.912C7.59981 705.469 9.37129 695.892 10.3091 690.639C11.2557 685.386 13.2356 674.255 14.7031 665.893C16.1794 657.541 17.9074 647.373 18.5413 643.318C19.1839 639.263 20.3389 632.613 21.103 628.558C21.8759 624.503 22.8832 619.024 23.3348 616.402C23.795 613.78 24.9499 607.137 25.9052 601.641C26.7477 596.793 28.2322 588.168 29.4168 581.286L29.8736 578.632C31.1067 571.469 32.8348 561.119 33.7292 555.623C34.615 550.126 35.987 542.121 36.7685 537.823C37.5414 533.525 38.9395 525.711 39.8686 520.457C40.7978 515.204 42.7603 504.073 44.2365 495.712C45.7041 487.359 47.6579 476.028 48.5611 470.532C49.4728 465.036 50.8188 457.221 51.5656 453.166C52.3037 449.111 53.45 442.46 54.11 438.406C54.7699 434.342 56.5067 423.801 57.9829 414.962C59.4505 406.123 61.057 396.945 61.5433 394.558C62.0295 392.17 62.7677 387.672 63.1845 384.573C63.6013 381.473 65.3641 370.724 67.1095 360.695C68.855 350.666 71.8509 333.284 73.7613 322.057C75.6717 310.83 77.8166 298.336 78.5287 294.272C79.2407 290.208 80.4217 283.375 81.1512 279.077C81.8893 274.779 83.0269 267.946 83.6781 263.882C84.3294 259.819 86.2746 248.297 88.0113 238.268C89.7481 228.24 91.7106 216.718 92.3706 212.654C93.0305 208.591 95.1841 195.897 97.1466 184.435C99.1178 172.974 101.653 157.927 102.782 151.007C103.911 144.087 105.856 132.747 107.107 125.827C108.357 118.907 109.955 109.92 110.659 105.857C111.371 101.802 112.499 95.1507 113.177 91.0958C113.845 87.041 115.773 75.71 117.449 65.9159C119.125 56.1217 121.105 45.3812 121.861 42.0383C122.607 38.6955 124.744 32.8346 126.602 29.0142C128.469 25.1938 131.491 20.1665 133.323 17.8395C135.155 15.5126 138.794 11.9874 141.425 10.0077C144.056 8.02803 148.155 5.45794 150.543 4.29445Z" fill="#01131A"/>
<path d="M1183.72 24.8899C1181.68 22.6237 1180 20.1752 1180 19.4632C1180 18.7425 1180.3 18.1434 1180.65 18.1261C1181.01 18.1087 1183.65 19.8018 1186.51 21.9031C1189.38 23.9956 1193.71 27.816 1196.14 30.4035C1198.58 32.9822 1201.95 37.2368 1203.63 39.8677C1205.31 42.4898 1207.52 46.5968 1208.53 48.9845C1209.53 51.3723 1210.96 55.6702 1211.68 58.5356C1212.51 61.7916 1213.01 67.6611 1213 74.1645C1213 80.0167 1212.03 92.3809 1210.79 102.383C1209.58 112.178 1208.02 125.453 1207.33 131.905C1206.64 138.356 1205.91 144.408 1205.69 145.363C1205.47 146.318 1204.86 151.198 1204.35 156.216C1203.83 161.235 1203.03 168.068 1202.57 171.411C1202.11 174.754 1200.93 184.322 1199.95 192.684C1198.97 201.037 1197.77 211.005 1197.29 214.825C1196.81 218.645 1195.84 226.46 1195.13 232.19C1194.42 237.921 1193.26 247.88 1192.57 254.331C1191.87 260.783 1191.1 267.026 1190.86 268.224C1190.63 269.413 1189.82 275.865 1189.08 282.55C1188.35 289.236 1187.19 299.395 1186.52 305.125C1185.85 310.856 1184.48 322.378 1183.47 330.74C1182.45 339.092 1181.04 350.432 1180.35 355.92C1179.65 361.407 1178.53 370.784 1177.86 376.758C1177.18 382.723 1175.02 401.087 1173.05 417.567C1171.09 434.047 1168.92 452.211 1168.22 457.942C1167.51 463.672 1166.35 473.241 1165.61 479.214C1164.88 485.18 1163.75 494.757 1163.09 500.487C1162.43 506.218 1161.06 517.74 1160.07 526.101C1159.07 534.454 1157.28 549.111 1156.09 558.662C1154.9 568.213 1153.34 580.907 1152.64 586.881C1151.94 592.846 1150.77 602.813 1150.05 609.021C1149.34 615.23 1146.62 637.692 1144.02 658.947C1141.41 680.203 1138.82 701.493 1138.28 706.268C1137.72 711.044 1137.15 715.732 1137 716.688C1136.85 717.643 1136.5 720.577 1136.23 723.2C1135.95 725.822 1133.18 748.683 1130.07 773.994C1126.95 799.304 1123.42 828.026 1122.21 837.812C1121 847.597 1119.21 858.346 1118.23 861.689C1117.24 865.032 1114.73 871.093 1112.64 875.148C1110.56 879.202 1106.77 885.063 1104.23 888.172C1101.67 891.28 1096.87 895.865 1093.55 898.374C1090.24 900.875 1084.78 904.07 1081.44 905.459C1078.1 906.857 1072.43 908.689 1068.85 909.531C1065.26 910.373 1059.4 911.033 1055.82 910.999C1052.25 910.955 1022.74 908.394 990.262 905.285C957.784 902.186 924.178 898.999 915.581 898.2C906.985 897.41 891.944 895.995 882.149 895.066C872.362 894.137 860.44 892.999 855.663 892.539C850.887 892.079 842.091 891.28 836.125 890.776C830.151 890.273 821.363 889.465 816.587 888.997C811.811 888.519 797.152 887.156 784.023 885.958C770.893 884.759 754.081 883.196 746.682 882.493C739.284 881.781 724.825 880.427 714.553 879.472C704.28 878.516 686.504 876.962 675.041 876.016C663.579 875.061 652.828 874.088 651.161 873.854C649.494 873.611 643.233 873.029 637.267 872.551C631.301 872.083 620.351 871.101 612.953 870.372C605.554 869.651 593.241 868.462 585.599 867.741C577.957 867.021 562.717 865.657 551.732 864.72C540.747 863.773 512.803 861.255 489.643 859.119C466.484 856.975 437.168 854.266 424.515 853.093C411.863 851.913 396.232 850.523 389.78 850.002C383.328 849.481 372.196 848.483 365.032 847.788C357.868 847.094 344.972 845.93 336.375 845.201C327.778 844.463 314.683 843.282 307.285 842.561C299.886 841.841 274.087 839.514 249.972 837.386C225.857 835.268 195.177 832.524 181.805 831.308C168.432 830.084 147.33 828.131 134.912 826.958C122.494 825.786 98.4666 823.624 81.5072 822.148C57.4185 820.047 48.9692 818.988 42.8645 817.303C38.5661 816.114 32.5135 813.726 29.4047 811.998C26.2959 810.27 21.1812 806.293 18.0377 803.15C14.8942 800.007 11.8635 796.56 11.3078 795.483C10.4915 793.894 10.5436 793.452 11.603 793.096C12.3151 792.861 14.7639 794.068 17.0304 795.796C19.2968 797.515 22.5185 799.495 24.1945 800.181C25.8617 800.875 29.5784 801.995 32.444 802.69C35.3097 803.376 48.9866 804.93 62.8371 806.146C76.6877 807.361 100.716 809.506 116.242 810.913C131.76 812.311 168.301 815.601 197.435 818.215C226.569 820.828 262.129 823.989 276.457 825.23C290.786 826.472 317.749 828.842 336.375 830.492C355.002 832.151 376.103 834.069 383.267 834.755C390.432 835.441 403.327 836.622 411.924 837.369C420.521 838.107 442.595 840.087 460.987 841.754C479.37 843.412 512.004 846.347 533.496 848.257C552.025 849.904 583.912 852.751 609.491 855.035L621.202 856.08C647.948 858.477 682.527 861.585 698.053 862.992C713.571 864.407 769.651 869.469 822.665 874.253C875.679 879.037 929.406 883.926 942.067 885.124C954.728 886.314 982.472 888.858 1003.72 890.777C1024.97 892.687 1044.41 894.258 1046.92 894.25C1049.43 894.25 1054.31 893.642 1057.78 892.904C1061.24 892.166 1066.42 890.412 1069.28 889.005C1072.15 887.599 1076.82 884.594 1079.66 882.32C1082.51 880.045 1086.61 875.99 1088.78 873.307C1090.95 870.633 1094.2 865.449 1095.99 861.802C1097.78 858.164 1099.98 852.147 1100.89 848.448C1101.8 844.749 1103.16 836.44 1103.92 829.997C1104.68 823.555 1106.27 810.261 1107.45 800.476C1108.63 790.691 1110.6 774.28 1111.83 764.008C1113.06 753.737 1115.22 735.963 1116.63 724.502C1118.03 713.041 1121.55 683.927 1124.44 659.816C1127.33 635.704 1131.83 597.803 1134.45 575.593C1137.06 553.382 1139.8 530.529 1140.53 524.799C1141.27 519.068 1142.23 511.453 1142.65 507.868C1143.09 504.29 1144.63 491.587 1146.1 479.649C1147.57 467.71 1150.12 446.42 1151.78 432.328C1153.44 418.236 1155.18 403.588 1155.66 399.767C1156.14 395.947 1157.33 385.988 1158.3 377.626C1159.27 369.274 1160.65 357.743 1161.35 352.012C1162.05 346.282 1164.99 321.857 1167.87 297.745C1170.74 273.633 1174.08 245.883 1175.27 236.098C1176.45 226.312 1178.21 211.847 1179.17 203.971C1180.13 196.096 1182.09 180.068 1183.53 168.372C1184.97 156.677 1186.91 140.648 1187.86 132.773C1188.81 124.898 1190.78 108.487 1192.24 96.3055C1193.7 84.1236 1195.1 68.8854 1195.37 62.4428C1195.8 52.1277 1195.63 49.8875 1193.96 43.7749C1192.91 39.9545 1191.02 35.0748 1189.75 32.9215C1188.48 30.7681 1185.77 27.1561 1183.72 24.8899Z" fill="#01090C"/>
<path d="M623.043 22.2851C623.338 21.2084 624.172 19.6455 624.91 18.812C625.744 17.8569 627.48 17.2925 629.582 17.2925C632.083 17.2925 633.255 17.7874 634.236 19.2461C634.957 20.3228 635.539 22.2764 635.539 23.5875C635.53 24.8986 634.653 26.8696 633.576 27.9636C632.274 29.295 630.754 29.8999 629.018 29.7783C627.585 29.6741 626.117 29.5612 625.761 29.5178C625.405 29.4831 624.528 28.2762 623.807 26.8435C623.087 25.4022 622.748 23.3618 623.043 22.2851Z" fill="#005172"/>
<path d="M78.1553 380.509C79.0931 378.99 80.3175 377.557 80.8993 377.322C81.4725 377.088 82.6274 376.862 83.461 376.828C84.2947 376.793 85.6233 377.053 86.4048 377.409C87.1864 377.765 88.4021 379.233 89.0968 380.665C90.1649 382.853 90.2083 384.442 89.3399 390.65C88.7755 394.714 87.7595 399.298 87.0822 400.853C86.4048 402.407 85.0675 404.065 84.1123 404.543C83.1571 405.02 81.2988 405.42 79.9875 405.437C78.6763 405.455 76.9482 404.769 76.1493 403.918C75.3504 403.067 74.4386 401.4 74.126 400.201C73.8047 399.012 74.2042 394.714 75.0118 390.65C75.8107 386.596 77.2261 382.029 78.1553 380.509Z" fill="#005172"/>
<path d="M1123.08 440.359C1123.34 439.283 1124.82 437.624 1126.38 436.669C1127.93 435.723 1129.89 434.941 1130.72 434.932C1131.55 434.932 1133.22 435.914 1134.41 437.103C1136.18 438.874 1136.58 440.107 1136.57 443.832C1136.55 446.342 1136.18 449.954 1135.74 451.864C1135.3 453.774 1133.94 456.214 1132.72 457.291C1131.5 458.367 1129.63 459.262 1128.55 459.279C1127.47 459.305 1125.62 458.55 1124.43 457.612C1122.41 456.032 1122.26 455.432 1122.43 449.111C1122.51 445.369 1122.81 441.436 1123.08 440.359Z" fill="#005172"/>
<path d="M175.726 41.3524C177.636 40.3799 180.762 39.0688 182.673 38.4437C185.33 37.5754 191.661 37.4104 209.593 37.7491C222.488 37.9835 256.684 38.5652 285.575 39.0341C314.466 39.4943 375.626 40.4581 421.476 41.1701C467.326 41.882 567.363 43.4276 643.78 44.5997C720.197 45.7719 793.462 46.9441 806.6 47.2046C819.73 47.4651 847.674 47.8905 868.689 48.151C889.704 48.4028 928.199 48.9845 954.224 49.4274C980.249 49.8702 1021.09 50.478 1044.97 50.7819C1068.85 51.0858 1097.58 51.6067 1108.79 51.9453C1126.49 52.475 1129.72 52.7876 1133.11 54.2897C1135.25 55.2448 1138.64 57.5718 1140.62 59.4559C1142.6 61.3401 1145.14 64.6395 1146.27 66.7842C1148.08 70.2659 1148.3 71.7854 1148.22 80.6765C1148.16 87.4491 1146 107.706 1141.5 143.626C1137.85 172.757 1134.24 201.862 1133.48 208.313C1132.73 214.764 1130.4 233.91 1128.31 250.858C1126.21 267.807 1123.31 291.65 1121.86 303.823C1120.41 315.996 1118.05 335.828 1116.61 347.888C1115.18 359.948 1114 370.203 1114 370.68C1114 371.158 1113.52 371.548 1112.92 371.548C1112.11 371.548 1111.83 374.145 1111.83 381.603C1111.83 390.138 1111.61 391.814 1110.34 392.674C1109.32 393.368 1109.13 393.967 1109.74 394.558C1110.36 395.148 1110.36 398.161 1109.75 404.109C1109.17 409.874 1108.45 413.087 1107.61 413.66C1106.68 414.311 1106.58 414.962 1107.25 416.265C1107.86 417.454 1107.86 420.484 1107.24 425.816C1106.75 430.114 1106.02 433.726 1105.62 433.847C1105.22 433.969 1105.03 435.532 1105.19 437.32C1105.36 439.109 1105.04 443.511 1104.5 447.088C1103.96 450.674 1103.24 453.696 1102.9 453.817C1102.56 453.939 1102.42 456.084 1102.59 458.593C1102.77 461.102 1102.46 466.668 1101.91 470.966C1101.36 475.264 1100.37 482.688 1099.7 487.463C1099.04 492.239 1097.89 501.225 1097.14 507.433C1096.39 513.642 1095.41 521.847 1094.96 525.667C1094.51 529.488 1093.82 532.709 1093.43 532.83C1093.04 532.952 1092.87 534.906 1093.03 537.172C1093.2 539.438 1092.91 544.031 1092.4 547.374C1091.89 550.717 1091.17 553.547 1090.79 553.669C1090.43 553.791 1090.26 555.744 1090.41 558.01C1090.58 560.277 1090.3 565.069 1089.8 568.647C1089.3 572.233 1088.49 575.254 1087.99 575.376C1087.37 575.523 1087.37 576.07 1088.01 577.112C1088.7 578.232 1088.34 583.095 1086.64 595.563C1085.38 604.88 1084.02 616.011 1083.62 620.309C1083.21 624.607 1082.66 629.591 1082.38 631.38C1082.1 633.168 1081.48 634.636 1081.01 634.636C1080.49 634.636 1080.36 635.938 1080.69 637.892C1080.99 639.68 1080.76 645.055 1080.19 649.83C1079.61 654.606 1078.61 663.002 1077.96 668.498C1077.31 673.994 1076.16 683.763 1075.41 690.205C1074.67 696.648 1073.26 708.569 1072.28 716.688C1071.3 724.806 1070.15 733.602 1069.73 736.224C1069.31 738.846 1068.52 745.488 1067.97 750.984C1067.43 756.48 1066.6 763.904 1066.14 767.482C1065.67 771.068 1064.71 778.882 1064 784.847C1063.31 790.821 1062.36 799.408 1061.9 803.949C1061.45 808.49 1060.66 815.132 1060.16 818.71C1059.65 822.296 1058.25 827.375 1057.04 829.997C1055.82 832.62 1053.56 836.336 1051.99 838.246C1050.43 840.156 1046.65 843.074 1043.59 844.732C1038.35 847.571 1037.45 847.771 1028.47 848.057C1023.22 848.222 1015.99 847.91 1012.41 847.371C1008.83 846.824 1004.72 846.39 1003.29 846.416C1001.85 846.434 996.193 846.069 990.696 845.609C985.199 845.149 973.476 844.185 964.644 843.464C955.813 842.744 945.653 841.78 942.067 841.32C938.489 840.859 929.692 840.069 922.528 839.566C915.364 839.053 905.595 838.263 900.819 837.803C896.043 837.343 884.12 836.353 874.334 835.606C864.547 834.86 855.264 833.878 853.71 833.427C852.155 832.975 850.497 832.802 850.019 833.036C849.541 833.271 845.339 833.036 840.684 832.507C836.03 831.977 828.509 831.404 823.968 831.222C819.426 831.039 813.964 830.518 811.811 830.067C809.657 829.615 803.413 829.016 797.917 828.738C792.42 828.46 783.823 827.861 778.812 827.401C773.802 826.95 765.587 826.186 760.576 825.708C755.566 825.222 741.49 824.05 729.315 823.086C717.14 822.122 705.417 821.054 703.264 820.715C701.11 820.368 698.774 820.142 698.053 820.221C697.333 820.29 688.154 819.552 677.647 818.579C667.139 817.607 654.053 816.522 648.556 816.166C643.059 815.818 638.083 815.263 637.484 814.95C636.885 814.629 632.587 814.203 627.932 813.995C623.278 813.795 608.133 812.58 594.283 811.303C580.432 810.018 568.118 808.959 566.929 808.942C565.739 808.924 560.85 808.534 556.074 808.065C551.298 807.604 546.809 807.24 546.088 807.266C545.367 807.292 538.342 806.762 530.457 806.085C522.572 805.408 512.221 804.461 507.445 803.992C502.669 803.515 493.291 802.707 486.604 802.186C479.918 801.674 470.739 800.841 466.197 800.337C461.656 799.842 457.366 799.443 456.645 799.443C455.924 799.451 446.945 798.661 436.673 797.697C426.408 796.734 413.504 795.622 408.016 795.214C402.528 794.815 393.15 794.094 387.175 793.625C381.209 793.156 371.822 792.384 366.334 791.906C360.846 791.429 348.533 790.421 338.98 789.657C329.428 788.902 317.705 787.886 312.929 787.408C308.153 786.94 300.928 786.349 296.864 786.106C292.8 785.863 287.434 785.281 284.924 784.821C282.414 784.361 280.07 784.152 279.714 784.361C279.358 784.56 275.745 784.369 271.681 783.918C267.617 783.475 259.611 782.728 253.88 782.268C248.148 781.817 238.188 781.053 231.736 780.575C225.284 780.106 215.419 779.307 209.81 778.813C204.2 778.309 195.012 777.501 189.403 777.015C183.793 776.529 172.556 775.53 164.437 774.792C156.318 774.046 147.13 773.273 144.03 773.056C140.93 772.839 137.213 772.457 135.781 772.205C134.348 771.962 128.295 771.38 122.321 770.929C116.355 770.477 106.977 769.713 101.48 769.235C95.983 768.758 86.0228 767.968 79.3363 767.473C72.6498 766.978 65.1296 766.188 62.62 765.728C60.1104 765.259 58.0611 764.486 58.0611 764.008C58.0611 763.531 57.2795 763.14 56.3243 763.14C55.3691 763.14 54.5876 762.749 54.5876 762.272C54.5876 761.794 54.0058 761.404 53.285 761.404C52.5643 761.404 51.7827 760.622 51.5483 759.667C51.3138 758.712 50.4281 757.731 49.5944 757.496C48.7608 757.253 47.1977 755.109 46.1209 752.721C44.636 749.413 44.1671 746.782 44.1758 741.65C44.1844 737.952 44.9399 730.623 45.8604 725.37C46.7809 720.117 49.9505 702.726 52.9029 686.732C55.8554 670.738 58.8166 654.128 59.4765 649.83C60.1452 645.532 61.6996 636.546 62.9413 629.86C64.1831 623.174 65.3902 616.532 65.6159 615.099C65.8504 613.667 67.3787 604.68 69.02 595.129C70.6612 585.578 73.1795 570.93 74.621 562.569C76.0538 554.216 79.536 534.28 82.3495 518.287C85.1631 502.293 90.4081 472.199 94.0118 451.43C97.6069 430.652 103.668 395.487 107.48 373.285C111.301 351.083 117.771 313.374 121.869 289.497C125.968 265.619 130.675 238.268 132.325 228.717C133.966 219.166 137.101 200.993 139.289 188.343C141.468 175.692 145.949 149.895 149.24 131.036C152.54 112.178 156.648 88.3434 158.376 78.0717C160.312 66.5931 162.266 57.7281 163.464 55.0625C164.533 52.6747 166.947 49.0106 168.831 46.9267C170.715 44.8342 173.815 42.3335 175.726 41.3524Z" fill="#FFF0E1"/>
<path d="M196.576 108.461C198.304 106.794 201.352 104.762 203.349 103.955C206.162 102.809 209.836 102.47 219.579 102.435C226.508 102.409 250.345 102.774 272.55 103.243C294.754 103.703 333.249 104.485 358.085 104.98C382.92 105.474 502.886 107.801 624.676 110.154C746.465 112.516 853.927 114.669 863.479 114.947C873.031 115.225 892.378 115.633 906.463 115.859C920.548 116.085 937.36 116.467 943.804 116.71C950.247 116.953 977.21 117.535 1003.72 118.004C1030.23 118.473 1059.54 119.08 1068.85 119.367C1078.16 119.645 1087.25 120.235 1089.04 120.678C1090.88 121.138 1094.01 123.092 1096.26 125.176C1099.06 127.78 1100.61 130.142 1101.54 133.207C1102.82 137.392 1102.7 138.886 1098.03 174.016C1095.37 194.073 1092.6 215.077 1091.87 220.686C1090.97 227.719 1089.91 232.173 1088.47 235.012C1087.31 237.279 1085.07 240.387 1083.47 241.915C1081.88 243.443 1078.62 245.544 1076.23 246.586C1073.84 247.628 1070.13 248.644 1067.98 248.853C1065.84 249.052 1041.6 248.401 1014.14 247.42C986.684 246.43 960.884 245.449 956.829 245.241C952.774 245.023 937.725 244.442 923.397 243.947C909.069 243.443 886.204 242.636 872.597 242.15C858.989 241.663 789.433 239.328 718.026 236.957C646.62 234.578 571.01 232.051 549.996 231.331C528.981 230.61 500.064 229.629 485.736 229.16C471.408 228.683 454.214 228.092 447.527 227.849C440.841 227.597 423.056 227.015 408.016 226.538C392.976 226.069 375.773 225.496 369.808 225.262C363.833 225.027 352.701 224.628 345.059 224.376C337.417 224.124 319.442 223.534 305.114 223.074C290.786 222.605 267.14 221.806 252.577 221.302C238.014 220.807 217.104 220.069 206.119 219.679C190.992 219.14 185.512 218.645 183.541 217.638C182.108 216.909 180.302 215.58 179.521 214.695C178.739 213.809 177.471 211.821 176.698 210.266C175.926 208.712 175.24 205.586 175.179 203.32C175.109 201.054 176.065 193.726 177.298 187.04C178.539 180.354 181.735 162.572 184.418 147.534C187.848 128.31 189.915 118.889 191.365 115.842C192.503 113.454 194.848 110.137 196.576 108.461Z" fill="white"/>
<path d="M168.345 252.317C170.021 250.389 173.338 247.897 175.726 246.777C179.547 244.989 180.954 244.798 187.449 245.197C191.513 245.449 206.744 246.031 221.316 246.491C235.878 246.951 255.226 247.602 264.3 247.932C273.375 248.271 282.362 248.471 284.273 248.384C286.183 248.297 292.045 248.575 297.298 248.992C303.863 249.521 307.936 250.303 310.324 251.492C312.234 252.447 314.484 254.262 315.317 255.521C316.151 256.771 317.254 259.463 317.766 261.495C318.556 264.664 318.053 268.953 314.214 291.667C311.748 306.228 307.658 330.262 305.122 345.066C302.587 359.87 297.542 389.47 293.912 410.838C290.282 432.206 286.722 450.865 286.01 452.298C285.297 453.731 283.239 456.387 281.451 458.202C279.566 460.104 276.362 462.118 273.852 462.978C269.684 464.393 267.852 464.35 228.263 461.858C205.581 460.425 177.636 458.645 166.174 457.898C154.711 457.152 143.865 456.17 142.076 455.719C140.288 455.267 137.648 453.731 136.215 452.298C134.782 450.865 133.219 448.712 132.741 447.522C132.264 446.324 131.873 443.303 131.882 440.793C131.882 438.284 135.016 418.652 138.837 397.163C142.658 375.673 146.731 353.011 147.894 346.803C149.049 340.594 151.602 326.528 153.556 315.545C155.51 304.561 158.28 288.932 159.704 280.814C161.129 272.695 162.969 263.752 163.803 260.939C164.689 257.9 166.547 254.392 168.345 252.317Z" fill="white"/>
<path d="M341.282 255.929C342.879 254.661 345.163 253.22 346.362 252.734C347.551 252.239 352.24 251.813 356.782 251.779C361.324 251.753 391.604 252.716 424.081 253.915C456.558 255.122 484.303 256.485 485.736 256.936C487.169 257.396 489.583 259.046 491.111 260.609C492.631 262.172 494.289 264.525 494.802 265.836C495.305 267.147 495.722 270.273 495.722 272.782C495.713 275.292 494.333 285.937 492.639 296.443C491.157 305.596 488.441 322.492 486.193 336.482L485.232 342.461C482.853 357.265 480.352 372.113 479.683 375.456C479.006 378.799 478.259 383.096 478.016 385.007C477.773 386.917 475.228 402.937 472.345 420.606C469.471 438.275 466.71 454.781 466.223 457.291C465.728 459.8 464.773 462.926 464.105 464.237C463.427 465.548 461.569 467.849 459.98 469.342C458.382 470.836 456.098 472.555 454.908 473.163C453.71 473.77 451.565 474.604 450.132 475.003C448.595 475.437 439.495 475.203 427.989 474.448C417.238 473.744 401.807 472.746 393.688 472.225C385.569 471.713 364.658 470.384 347.23 469.273C329.802 468.161 314.362 466.789 312.929 466.234C311.496 465.669 309.404 464.35 308.283 463.308C307.172 462.266 305.704 460.338 305.027 459.027C304.358 457.716 303.611 455.467 303.377 454.034C303.143 452.602 309.421 412.844 317.34 365.688C325.26 318.532 332.129 277.401 332.615 274.302C333.101 271.193 334.595 266.314 335.932 263.448C337.287 260.566 339.675 257.205 341.282 255.929Z" fill="white"/>
<path d="M523.944 260.409C525.855 259.515 528 258.595 528.72 258.36C529.441 258.134 530.414 257.917 530.891 257.883C531.369 257.848 562.726 258.994 600.578 260.418C664.717 262.84 669.632 263.136 672.871 264.751C674.903 265.767 677.325 268.015 678.706 270.177C680.13 272.392 681.198 275.43 681.381 277.775C681.546 279.928 679.713 294.576 677.308 310.335C674.903 326.094 669.388 362.232 665.064 390.65C660.739 419.069 656.832 444.466 656.38 447.088C655.929 449.71 655.13 454.79 654.6 458.376C654.079 461.953 653.098 467.232 652.412 470.098C651.491 473.97 650.232 476.384 647.479 479.501C644.822 482.505 642.434 484.181 639.004 485.44C634.888 486.942 632.969 487.116 625.11 486.647C620.099 486.352 610.13 485.726 602.966 485.266C595.802 484.797 580.172 483.816 568.231 483.07C556.291 482.323 534.999 481.012 520.905 480.152C498.345 478.78 494.845 478.372 491.597 476.731C489.565 475.707 486.934 473.406 485.736 471.617C484.503 469.768 483.356 466.494 483.07 464.02C482.714 460.946 483.877 451.543 487.038 431.893C489.496 416.612 492.431 398.448 493.56 391.519C494.68 384.59 497.78 365.253 500.446 348.539C503.112 331.825 505.847 315.024 506.525 311.203C507.193 307.383 508.791 297.615 510.068 289.497C511.344 281.378 513.15 272.982 514.088 270.829C515.017 268.675 516.841 265.827 518.126 264.482C519.42 263.144 522.034 261.312 523.944 260.409Z" fill="white"/>
<path d="M703.16 272.704C704.41 271.115 707.771 268.675 710.619 267.277C713.745 265.758 717.201 264.751 719.303 264.759C721.23 264.759 732.372 265.141 744.077 265.593C755.783 266.053 770.823 266.644 777.51 266.904C784.196 267.156 805.784 267.955 825.487 268.667C845.504 269.387 862.359 270.368 863.696 270.889C865.007 271.402 867.352 272.774 868.906 273.928C870.461 275.092 872.284 277.115 872.962 278.426C873.639 279.737 874.438 282.767 874.75 285.155C875.159 288.316 873.978 298.457 870.391 322.491C867.682 340.638 865.129 357.639 864.712 360.261C864.304 362.883 863.748 367.19 863.479 369.812C863.218 372.434 862.619 376.341 862.15 378.495C861.681 380.648 859.38 396.077 857.036 412.791C854.682 429.506 852.503 445.525 852.19 448.391C851.877 451.256 851.287 455.163 850.887 457.073C850.479 458.984 849.498 465.036 848.708 470.532C847.918 476.028 846.745 482.271 846.094 484.424C845.365 486.821 843.376 489.929 840.953 492.456C837.87 495.66 835.882 496.893 832 497.978C827.415 499.254 825.244 499.254 805.298 497.969C793.358 497.196 780.653 496.363 777.076 496.111C773.498 495.868 754.932 494.687 735.828 493.498C716.723 492.317 696.985 491.101 691.975 490.797C685.89 490.438 681.838 489.747 679.818 488.722C678.15 487.871 675.901 486.36 674.824 485.371C673.748 484.372 672.332 482.479 671.672 481.168C671.012 479.857 670.222 477.608 669.909 476.175C669.562 474.587 671.742 457.803 675.493 433.196C678.871 410.985 685.314 368.397 689.804 338.554C694.293 308.703 698.627 282.333 699.434 279.945C700.233 277.558 701.918 274.302 703.16 272.704Z" fill="white"/>
<path d="M901.687 276.742C903.598 275.404 906.924 273.737 909.069 273.034C911.787 272.131 915.217 271.862 920.357 272.14C924.413 272.357 933.6 272.739 940.764 272.991C947.928 273.242 970.593 274.05 991.13 274.788C1011.67 275.526 1036.48 276.429 1046.27 276.811C1061.75 277.401 1064.61 277.74 1068.2 279.372C1070.85 280.579 1073.26 282.568 1074.94 284.938C1076.44 287.057 1077.79 290.295 1078.11 292.535C1078.49 295.236 1076.45 312.705 1071.53 348.973L1069.04 367.309C1066.12 388.784 1063.69 406.693 1063.15 410.621C1062.47 415.631 1060.13 432.823 1057.97 448.825C1055.8 464.818 1053.46 481.819 1052.76 486.595C1052.06 491.37 1050.74 496.84 1049.81 498.751C1048.89 500.661 1046.84 503.526 1045.25 505.115C1043.66 506.704 1040.6 508.797 1038.46 509.76C1035.58 511.054 1032.83 511.506 1028.04 511.453C1024.46 511.419 1009.41 510.603 994.603 509.656C979.798 508.71 947.755 506.704 923.397 505.202C882.713 502.693 878.788 502.319 875.202 500.565C872.762 499.376 870.296 497.205 868.646 494.8C867.187 492.673 865.737 489.373 865.424 487.463C865.033 485.101 866.64 471.582 870.417 445.352C873.491 424.096 878.745 387.959 882.114 365.036C885.475 342.114 888.792 320.034 889.478 315.979C890.173 311.915 891.137 305.473 891.64 301.652C892.135 297.832 892.856 292.952 893.247 290.799C893.637 288.646 894.914 285.155 896.086 283.028C897.259 280.892 899.777 278.07 901.687 276.742Z" fill="white"/>
<path d="M129.268 479.9C131.413 478.034 134.348 476.176 135.781 475.767C137.213 475.359 140.826 474.995 143.813 474.951C146.8 474.908 167.311 476.054 189.403 477.487C211.494 478.928 237.971 480.691 248.235 481.402C264.621 482.549 267.313 482.939 270.205 484.65C272.029 485.718 274.417 487.967 275.52 489.634C276.614 491.301 277.795 494.236 278.125 496.146C278.576 498.751 275.424 519.103 265.551 577.329C258.291 620.075 251.11 662.273 249.572 671.103C248.044 679.933 246.038 688.694 245.126 690.561C244.206 692.428 242.096 695.128 240.42 696.57C238.744 698.002 236.113 699.704 234.558 700.338C233.004 700.972 229.687 701.484 227.177 701.467C224.668 701.449 195.655 698.966 162.7 695.953C109.686 691.099 102.357 690.249 99.0918 688.599C97.0598 687.574 94.4547 685.273 93.291 683.476C92.1361 681.687 90.9378 678.466 90.6338 676.313C90.2431 673.465 91.5456 664.131 95.4186 642.016C98.345 625.302 101.124 609.282 101.584 606.417C102.053 603.551 103.599 594.955 105.023 587.315C106.447 579.674 109.721 561.701 112.3 547.374C114.879 533.047 118.196 514.293 119.681 505.697C121.157 497.101 123.042 488.54 123.867 486.682C124.683 484.815 127.123 481.758 129.268 479.9Z" fill="white"/>
<path d="M301.284 491.153C303.386 489.365 306.477 487.55 308.153 487.124C309.829 486.69 312.365 486.291 313.798 486.239C315.23 486.187 344.538 487.915 378.926 490.094C413.313 492.265 443.203 494.505 445.356 495.069C447.814 495.712 450.393 497.257 452.303 499.219C454.101 501.078 455.846 504.099 456.576 506.626C457.748 510.663 457.609 512.191 454.205 533.482C452.216 545.898 446.668 580.282 441.883 609.89C437.089 639.498 431.784 672.51 430.09 683.259C428.084 695.962 426.391 704.011 425.245 706.268C424.281 708.178 422.449 710.87 421.181 712.242C419.913 713.614 417.117 715.524 414.963 716.479C412.002 717.79 409.475 718.172 404.543 718.025C400.965 717.92 397.439 717.834 396.727 717.825C396.015 717.816 392.88 717.478 389.78 717.07C386.68 716.661 359.908 714.143 330.297 711.478C300.685 708.804 275.676 706.442 274.721 706.225C273.765 706.008 271.421 704.523 269.51 702.943C267.6 701.354 265.351 698.619 264.517 696.865C263.684 695.111 262.998 692.115 262.998 690.205C262.998 688.295 266.706 664.556 271.238 637.457C275.771 610.359 282.762 568.846 286.774 545.203C291.15 519.433 294.745 500.661 295.761 498.316C296.708 496.137 299.139 492.977 301.284 491.153Z" fill="white"/>
<path d="M484.867 500.409C486.3 499.523 488.645 498.534 490.078 498.212C491.51 497.891 492.978 497.587 493.334 497.535C493.69 497.492 502.487 498.03 512.872 498.733C523.258 499.437 537.621 500.409 544.785 500.895C551.949 501.373 574.223 502.797 594.283 504.038C630.294 506.287 630.806 506.339 635.096 508.666C638.544 510.542 639.933 511.992 641.844 515.743C643.164 518.339 644.232 521.534 644.232 522.845C644.223 524.156 641.296 544.474 637.727 567.995C634.158 591.517 631.032 611.93 630.78 613.363C630.529 614.795 629.348 622.61 628.149 630.728C626.96 638.847 625.588 647.833 625.11 650.699C624.632 653.564 623.252 662.551 622.045 670.669C620.838 678.787 618.641 693.244 617.164 702.795C615.514 713.484 613.864 721.333 612.866 723.2C611.98 724.867 610.365 727.246 609.279 728.479C608.194 729.712 605.745 731.63 603.835 732.751C601.768 733.957 598.433 734.93 595.585 735.156C592.963 735.373 586.702 735.104 581.691 734.574C576.681 734.044 568.466 733.237 563.455 732.777C558.445 732.325 549.457 731.509 543.483 730.971C537.517 730.432 530.474 729.833 527.852 729.642C525.229 729.442 511.935 728.305 498.327 727.098C484.72 725.9 469.871 724.485 465.329 723.964C460.483 723.399 455.464 722.244 453.172 721.15C450.48 719.865 448.378 717.946 446.407 714.951C444.08 711.4 443.559 709.776 443.585 706.051C443.602 703.542 446.945 680.689 451.009 655.257C455.073 629.825 459.164 604.333 460.093 598.602C461.031 592.872 462.802 581.931 464.035 574.29C465.259 566.65 467.413 553.165 468.82 544.335C470.227 535.505 472.024 524.755 472.823 520.457C473.613 516.16 474.951 511.271 475.793 509.604C476.635 507.937 478.441 505.54 479.796 504.29C481.151 503.04 483.435 501.295 484.867 500.409Z" fill="white"/>
<path d="M668.954 514.709C670.378 513.572 673.504 511.974 675.901 511.15C678.289 510.333 680.547 509.647 680.903 509.63C681.259 509.613 708.813 511.367 742.123 513.52C775.434 515.673 806.019 517.644 810.074 517.887C814.129 518.139 819.209 518.565 821.363 518.834C823.516 519.112 826.642 519.867 828.31 520.527C829.977 521.178 832.495 522.993 833.902 524.556C835.3 526.127 836.959 528.671 837.593 530.226C838.218 531.78 838.73 534.515 838.73 536.303C838.73 538.092 832.278 584.198 824.402 638.76C813.643 713.258 809.657 738.768 808.415 741.216C807.503 743.005 805.645 745.523 804.29 746.808C802.936 748.093 800.07 749.942 797.917 750.915C795.042 752.217 792.168 752.686 787.062 752.703C783.241 752.712 774.054 752.122 766.655 751.392C759.257 750.663 749.088 749.673 744.077 749.196C739.067 748.709 732.224 748.119 728.881 747.867C725.538 747.624 708.344 746.07 690.672 744.42C673.001 742.762 655.416 741.069 651.595 740.661C647.775 740.244 643.276 739.228 641.609 738.394C639.942 737.561 637.849 736.25 636.963 735.468C636.078 734.687 634.758 732.881 634.028 731.448C633.307 730.016 632.404 726.89 632.031 724.502C631.657 722.114 631.684 718.207 632.092 715.819C632.5 713.431 634.801 698.384 637.215 682.391C639.62 666.397 645.326 628.879 649.885 599.036C654.435 569.185 658.951 540.28 659.906 534.784C660.861 529.288 662.111 523.818 662.676 522.628C663.24 521.43 664.3 519.624 665.029 518.617C665.759 517.601 667.521 515.838 668.954 514.709Z" fill="white"/>
<path d="M862.715 529.418C864.087 528.142 866.97 526.093 869.123 524.868C872.102 523.175 874.264 522.646 878.241 522.637C881.107 522.628 913.74 524.556 950.751 526.926C987.769 529.297 1020.39 531.476 1023.26 531.771C1026.13 532.075 1030.39 533.16 1032.73 534.202C1035.07 535.235 1038.1 537.354 1039.46 538.908C1040.82 540.462 1042.32 543.198 1042.79 544.986C1043.27 546.775 1043.65 549.805 1043.65 551.715C1043.64 553.626 1042.67 562.221 1041.49 570.817C1040.31 579.413 1034.24 624.147 1028 670.235C1021.05 721.593 1016.1 755.499 1015.18 757.835C1014.38 759.928 1011.94 763.288 1009.8 765.302C1007.21 767.733 1004.28 769.461 1001.12 770.408C997.591 771.467 994.517 771.719 989.393 771.363C985.572 771.094 952.166 768.15 915.147 764.825C878.137 761.499 846.476 758.547 844.809 758.252C843.142 757.965 839.85 756.507 837.497 755.004C835.153 753.511 832.261 750.724 831.071 748.814C829.89 746.903 828.761 743.969 828.561 742.302C828.37 740.634 834.684 694.13 842.612 638.977C852.754 568.343 857.487 537.667 858.616 535.218C859.493 533.308 861.343 530.694 862.715 529.418Z" fill="white"/>
<path fill-rule="evenodd" clip-rule="evenodd" d="M239.986 139.728C240.941 139.702 242.895 140.848 244.328 142.281C245.76 143.705 247.132 144.729 247.367 144.547C247.601 144.373 247.801 144.938 247.801 145.806C247.801 146.796 247.48 147.1 246.933 146.613C246.403 146.144 245.856 146.422 245.517 147.343C245.213 148.159 245.309 149.522 245.734 150.356C246.151 151.189 247.28 151.875 248.235 151.875C249.199 151.875 249.972 151.293 249.972 150.573C249.972 149.557 250.354 149.461 251.709 150.138C252.664 150.616 253.454 151.493 253.454 152.092C253.463 152.691 254.878 154.541 256.589 156.216C258.317 157.901 259.481 159.742 259.185 160.341C258.786 161.166 258.083 161.2 256.268 160.488C254.956 159.976 252.256 159.481 250.267 159.403C247.523 159.29 246.846 159.516 247.445 160.341C247.879 160.94 248.035 161.817 247.801 162.294C247.567 162.772 248.522 163.649 249.937 164.248C252.377 165.281 252.473 165.524 251.961 169.241C251.665 171.394 251.136 174.129 250.771 175.318C250.154 177.385 250.12 177.394 250.05 175.536C250.007 174.459 249.581 173.782 249.104 174.016C248.626 174.259 248.235 174.059 248.235 173.582C248.235 173.104 247.063 172.714 245.63 172.714C244.18 172.714 243.216 173.096 243.459 173.582C243.694 174.059 243.407 174.65 242.808 174.893C242.209 175.136 242.504 175.214 243.459 175.058C244.718 174.85 245.135 175.206 244.979 176.352C244.822 177.454 245.535 178.114 247.332 178.574C249.034 179.009 249.981 179.851 250.154 181.075C250.293 182.091 250.111 182.777 249.755 182.595C249.399 182.412 249.104 182.855 249.104 183.567C249.104 184.375 248.287 184.869 246.933 184.869C245.231 184.869 244.623 184.296 244.11 182.204C243.615 180.172 243.094 179.651 241.939 180.033C240.715 180.433 240.42 180.016 240.42 177.923C240.42 176.491 240.185 174.633 239.907 173.799C239.473 172.523 239.534 172.488 240.324 173.582C241.054 174.598 241.262 174.12 241.253 171.411C241.245 169.501 240.663 167.348 239.96 166.636C238.822 165.481 238.848 165.108 240.194 163.414C241.036 162.364 242.044 161.478 242.434 161.461C242.825 161.443 243.806 160.775 244.605 159.976C245.404 159.177 245.673 158.708 245.196 158.934C244.718 159.16 242.573 160.237 240.42 161.322C238.266 162.407 235.626 163.753 234.55 164.317C233.473 164.873 232.891 165.655 233.247 166.045C233.612 166.436 233.317 166.505 232.604 166.193C231.788 165.846 230.651 166.445 229.565 167.773C228.61 168.954 226.7 170.256 225.327 170.664C223.947 171.073 222.531 172.002 222.175 172.714C221.819 173.426 220.499 174.216 219.231 174.45C217.373 174.797 216.861 174.511 216.522 172.931C216.288 171.845 216.687 170.395 217.408 169.675C218.12 168.963 218.71 167.982 218.71 167.504C218.71 167.026 219.492 166.835 220.447 167.07C221.402 167.313 222.184 167.113 222.184 166.636C222.184 166.158 222.87 165.16 223.704 164.413C224.676 163.536 224.911 162.789 224.355 162.32C223.877 161.921 221.923 161.183 220.013 160.697C218.103 160.21 216.053 159.976 215.454 160.184C214.855 160.393 214.464 160.202 214.586 159.768C214.707 159.334 215.88 157.962 217.191 156.729C218.502 155.496 219.284 154.497 218.928 154.515C218.571 154.541 218.867 153.915 219.579 153.134C220.291 152.353 221.715 151.849 222.74 152.014C224.251 152.257 224.407 152.075 223.608 151.059C223.061 150.364 223.009 150.06 223.486 150.364C223.964 150.677 226.309 149.331 228.697 147.377C231.085 145.424 232.943 143.488 232.822 143.071C232.7 142.663 232.995 142.524 233.473 142.758C233.95 143.001 235.218 142.42 236.295 141.482C237.372 140.544 239.03 139.754 239.986 139.728ZM1020.82 160.549C1021.21 160.54 1022.1 161.296 1022.83 162.216C1023.92 163.614 1024.44 163.727 1026.11 162.876C1027.19 162.312 1028.08 161.669 1028.07 161.426C1028.06 161.192 1028.93 161.035 1030 161.079C1031.07 161.131 1033.03 161.912 1034.36 162.815C1035.68 163.727 1036.56 164.665 1036.31 164.899C1036.07 165.142 1036.35 165.854 1036.95 166.497C1037.82 167.452 1037.72 167.556 1036.34 167.061C1035.09 166.61 1034.7 166.809 1034.82 167.843C1034.9 168.615 1034.59 169.241 1034.11 169.241C1033.64 169.241 1033.38 169.727 1033.52 170.326C1033.68 170.925 1033.31 172.392 1032.71 173.582C1032.1 174.78 1031.78 176.048 1031.99 176.404C1032.2 176.76 1032.96 177.055 1033.68 177.055C1034.39 177.055 1034.98 176.465 1034.98 175.753C1034.98 175.041 1035.67 174.19 1036.5 173.86C1037.34 173.538 1038.93 172.662 1042.09 170.543L1040.05 168.937C1038.54 167.747 1038.8 167.799 1041.06 169.145C1042.73 170.144 1044.4 170.673 1044.78 170.317C1045.15 169.961 1045.44 170.161 1045.43 170.76C1045.41 171.359 1045.79 171.845 1046.27 171.845C1046.75 171.845 1047.92 172.627 1048.88 173.582C1049.83 174.537 1051 175.127 1051.48 174.884C1051.96 174.65 1052.25 174.876 1052.13 175.397C1052.01 175.918 1053.09 176.994 1054.52 177.802C1055.95 178.609 1057.21 180.033 1057.33 180.98C1057.44 181.926 1057.25 182.412 1056.89 182.074C1056.54 181.726 1055.57 181.822 1054.74 182.291C1053.9 182.751 1053.41 183.524 1053.65 184.001C1053.9 184.479 1053.6 185.008 1053 185.182C1052.4 185.364 1051.13 185.095 1050.18 184.592C1049.22 184.088 1046.84 183.654 1044.86 183.619C1042.05 183.576 1041.38 183.845 1041.74 184.869C1041.98 185.581 1043.01 186.858 1044.01 187.7C1045.75 189.159 1045.75 189.202 1044.1 188.586C1042.84 188.125 1042.55 188.238 1043.02 189.011C1043.43 189.697 1042.96 190.296 1041.71 190.678C1040.64 191.008 1039.37 191.338 1038.89 191.416C1038.41 191.486 1037.54 191.607 1036.94 191.685C1036.34 191.755 1036.01 192.111 1036.2 192.467C1036.4 192.823 1035.9 193.161 1035.11 193.214C1034.32 193.257 1032.9 193.639 1031.94 194.056C1030.66 194.62 1030.38 194.542 1030.86 193.752C1031.26 193.092 1031.01 192.684 1030.21 192.684C1029.49 192.684 1028.81 192.25 1028.69 191.711C1028.57 191.182 1027.1 190.687 1025.43 190.626C1023.75 190.565 1022.09 190.123 1021.72 189.645C1021.31 189.107 1020.56 189.445 1019.75 190.513C1019.04 191.468 1018.46 192.84 1018.47 193.552C1018.47 194.29 1019.88 195.289 1021.74 195.862C1024.36 196.678 1025.47 196.635 1027.38 195.645C1028.7 194.976 1029.77 194.62 1029.77 194.855C1029.77 195.098 1028.21 196.07 1026.3 197.025C1023.99 198.183 1023.05 199.124 1023.47 199.847C1023.89 200.565 1023.75 200.71 1023.03 200.281C1022.44 199.925 1021.08 199.969 1020 200.377C1018.93 200.785 1017.56 200.976 1016.96 200.811C1016.36 200.637 1015.87 199.812 1015.86 198.979C1015.85 198.145 1016.23 197.069 1016.69 196.591C1017.16 196.114 1017.95 192.111 1018.45 187.691C1018.94 183.272 1019.13 178.583 1018.85 177.272C1018.46 175.431 1018.55 175.18 1019.27 176.187C1020.03 177.255 1020.2 177.098 1020.23 175.318C1020.25 174.129 1020.94 172.401 1021.77 171.481C1022.69 170.447 1022.78 170.117 1022 170.612C1020.95 171.281 1020.84 170.777 1021.29 167.504C1021.58 165.359 1021.44 162.911 1020.97 162.077C1020.51 161.244 1020.44 160.558 1020.82 160.549ZM226.482 174.45C226.934 174.45 227.099 175.909 226.838 177.706C226.578 179.495 225.918 181.448 225.362 182.039C224.806 182.629 222.696 183.211 220.664 183.341C218.632 183.463 216.974 183.272 216.974 182.916C216.974 182.56 216.704 181.579 216.375 180.745C215.862 179.443 215.992 179.382 217.243 180.311C218.05 180.91 219.292 181.205 220.013 180.962C220.725 180.728 221.316 179.747 221.316 178.792C221.316 177.634 222.039 176.91 223.486 176.621C224.676 176.386 225.657 175.796 225.657 175.318C225.657 174.841 226.031 174.45 226.482 174.45Z" fill="#01131A"/>
<path d="M225.006 149.383C226.561 148.02 230.347 144.894 233.412 142.437C236.486 139.988 239.708 137.983 240.576 137.983C241.505 137.983 245.899 142.255 251.274 148.402C257.839 155.904 260.332 159.368 260.175 160.775C260.028 162.112 259.099 162.998 257.214 163.597C255.712 164.074 254.296 164.656 254.062 164.899C253.836 165.142 253.428 167.096 253.15 169.241C252.881 171.385 252.395 174.91 252.073 177.055C251.761 179.2 250.953 181.744 250.285 182.699C249.147 184.322 249.104 184.262 249.599 181.831C250.094 179.469 249.894 179.165 247.454 178.574C245.535 178.114 244.822 177.472 244.979 176.352C245.135 175.206 244.718 174.85 243.459 175.058C242.504 175.214 242.209 175.136 242.808 174.893C243.407 174.65 243.694 174.059 243.459 173.582C243.216 173.096 244.18 172.714 245.63 172.714C247.063 172.714 248.235 173.104 248.235 173.582C248.235 174.059 248.626 174.259 249.104 174.016C249.581 173.773 250.007 174.459 250.05 175.536C250.12 177.394 250.154 177.385 250.771 175.318C251.136 174.129 251.665 171.385 251.961 169.241C252.473 165.524 252.377 165.281 249.937 164.248C248.522 163.649 247.567 162.772 247.801 162.294C248.035 161.817 247.879 160.94 247.445 160.341C246.846 159.516 247.523 159.29 250.267 159.403C252.256 159.481 254.956 159.976 256.268 160.488C258.083 161.2 258.786 161.166 259.185 160.341C259.472 159.742 258.308 157.883 256.572 156.182C254.844 154.489 253.437 152.63 253.437 152.057C253.445 151.476 252.664 150.616 251.709 150.138C250.354 149.461 249.972 149.557 249.972 150.573C249.972 151.293 249.199 151.875 248.235 151.875C247.28 151.875 246.151 151.189 245.734 150.356C245.309 149.522 245.213 148.159 245.517 147.343C245.951 146.153 246.299 146.066 247.184 146.909C247.81 147.49 248.296 147.673 248.27 147.317C248.253 146.961 246.768 145.085 244.979 143.149C243.164 141.195 240.958 139.667 239.986 139.702C239.03 139.737 235.123 142.298 231.302 145.389C227.481 148.48 224.45 151.397 224.572 151.875C224.694 152.353 224.199 152.552 223.486 152.309C222.497 151.979 222.87 151.276 225.006 149.383Z" fill="#01090C"/>
<path d="M213.639 160.124C213.431 159.004 214.204 157.692 215.801 156.433C217.165 155.366 218.641 154.489 219.084 154.48C219.527 154.48 218.641 155.461 217.13 156.651C215.61 157.849 214.369 159.212 214.369 159.69C214.369 160.167 214.855 160.393 215.454 160.184C216.053 159.976 218.103 160.21 220.013 160.697C221.923 161.183 223.877 161.921 224.355 162.32C224.911 162.789 224.676 163.536 223.704 164.413C222.87 165.16 222.184 166.158 222.184 166.636C222.184 167.113 221.498 167.391 220.664 167.243C219.831 167.105 218.632 167.791 218.007 168.763C217.008 170.326 216.93 170.048 217.356 166.419C217.807 162.624 217.686 162.277 215.897 162.077C214.733 161.947 213.821 161.157 213.639 160.124Z" fill="#01090C"/>
<path d="M1023.04 159.186C1022.44 158.986 1022.17 158.431 1022.43 157.953C1022.7 157.475 1023.48 157.085 1024.17 157.085C1024.87 157.085 1026.6 157.771 1028.03 158.604C1029.46 159.438 1030.63 160.419 1030.63 160.775C1030.64 161.131 1030.06 161.235 1029.34 160.992C1028.62 160.749 1028.04 160.853 1028.06 161.209C1028.07 161.565 1027.19 162.286 1026.11 162.815C1024.44 163.614 1023.82 163.44 1020.22 159.69L1022.17 159.62C1023.25 159.585 1023.64 159.386 1023.04 159.186Z" fill="#01090C"/>
<path d="M232.908 165.203C234.411 164.517 237.598 162.85 239.986 161.496C242.374 160.141 244.649 158.986 245.04 158.925C245.43 158.873 245.17 159.412 244.449 160.124C243.737 160.836 242.825 161.443 242.434 161.461C242.044 161.478 241.036 162.364 240.194 163.414C238.813 165.151 238.796 165.455 240.029 166.636C241.115 167.678 241.288 169.206 240.906 174.233C240.463 179.955 240.559 180.485 241.939 180.033C243.077 179.651 243.607 180.146 244.032 181.987C244.354 183.333 244.545 184.557 244.466 184.704C244.388 184.852 243.06 184.757 241.505 184.487C238.761 184.019 238.692 183.897 239.048 180.311C239.256 178.279 239.69 175.449 240.029 174.016C240.359 172.583 240.385 170.335 240.09 169.023C239.63 166.966 239.083 166.61 236.095 166.419C234.202 166.297 231.953 166.714 231.102 167.339C230.26 167.955 229.461 169.327 229.339 170.378C229.218 171.42 228.688 174.424 228.158 177.055C227.637 179.686 226.76 182.334 226.213 182.951C225.623 183.628 223.643 184.001 217.408 183.697L220.881 183.428C222.792 183.281 224.806 182.664 225.362 182.056C225.918 181.457 226.604 179.495 226.882 177.706C227.186 175.77 227.038 174.45 226.526 174.45C226.048 174.45 225.657 174.841 225.657 175.318C225.657 175.796 224.676 176.378 223.486 176.621C222.039 176.91 221.316 177.634 221.316 178.792C221.316 179.747 220.725 180.719 220.013 180.962C219.292 181.205 218.068 180.91 217.278 180.311C216.027 179.365 215.914 179.469 216.409 181.179C216.731 182.282 216.592 183.133 216.105 183.133C215.584 183.133 215.402 181.31 215.645 178.574C215.871 176.065 216.27 173.825 216.54 173.582C216.8 173.339 217.017 173.538 217.017 174.016C217.008 174.494 218.024 174.693 219.266 174.45C220.517 174.207 221.811 173.374 222.141 172.601C222.479 171.819 223.843 170.908 225.171 170.578C226.508 170.256 228.176 169.188 228.888 168.216C229.6 167.243 231.406 165.889 232.908 165.203Z" fill="#01090C"/>
<path d="M1020.19 167.07C1020.09 166.592 1020.06 165.029 1020.13 163.597C1020.22 161.608 1020.44 161.296 1021.06 162.294C1021.51 163.006 1021.62 165.359 1021.31 167.504C1020.83 170.795 1020.94 171.281 1022 170.612C1022.79 170.109 1022.7 170.439 1021.77 171.481C1020.94 172.401 1020.25 174.129 1020.21 175.318C1020.17 177.376 1020.12 177.394 1019.21 175.753C1018.51 174.476 1018.54 173.217 1019.31 170.977C1019.89 169.301 1020.28 167.547 1020.19 167.07Z" fill="#01090C"/>
<path d="M1036.5 167.148C1037.86 167.608 1037.88 167.513 1036.74 166.28C1035.83 165.307 1035.76 164.899 1036.52 164.899C1037.11 164.899 1039.14 165.976 1041.04 167.287C1042.95 168.598 1044.51 169.97 1044.52 170.326C1044.53 170.682 1044.14 170.786 1043.67 170.543C1043.19 170.3 1041.72 170.829 1040.41 171.706C1039.1 172.583 1037.34 173.556 1036.5 173.877C1035.67 174.19 1034.98 175.041 1034.98 175.753C1034.98 176.465 1034.4 177.055 1033.68 177.055C1032.96 177.055 1032.2 176.76 1031.99 176.404C1031.78 176.048 1032.1 174.78 1032.71 173.582C1033.31 172.392 1033.68 170.925 1033.52 170.326C1033.38 169.727 1033.64 169.241 1034.11 169.241C1034.59 169.241 1034.98 168.65 1034.98 167.938C1034.99 167.076 1035.5 166.812 1036.5 167.148Z" fill="#01090C"/>
<path d="M1051.89 175.97C1049.73 174.415 1047.97 173.052 1047.98 172.931C1048 172.809 1048.2 172.714 1048.44 172.714C1048.69 172.714 1050.93 174.085 1053.44 175.761C1055.95 177.428 1057.51 178.8 1056.91 178.8C1056.31 178.792 1054.05 177.524 1051.89 175.97Z" fill="#01090C"/>
<path d="M1017.19 186.606C1017.49 183.029 1017.98 179.547 1018.28 178.887C1018.58 178.218 1018.99 177.889 1019.19 178.149C1019.39 178.401 1019.1 182.464 1018.55 187.17C1018 191.876 1017.12 196.114 1016.6 196.591C1015.93 197.208 1015.8 196.826 1016.15 195.289C1016.43 194.099 1016.89 190.192 1017.19 186.606Z" fill="#01090C"/>
<path d="M1043.57 187.275C1042.8 186.667 1041.88 185.547 1041.51 184.791C1040.97 183.628 1041.46 183.428 1044.65 183.532C1046.73 183.602 1049.22 184.071 1050.18 184.574C1051.75 185.408 1051.53 185.66 1047.79 187.353C1045.52 188.377 1043.37 189.002 1043.02 188.751C1042.66 188.499 1042.95 188.308 1043.67 188.334C1044.77 188.369 1044.75 188.204 1043.57 187.275Z" fill="#01090C"/>
<path d="M1018.41 193.708C1018.36 193.083 1018.76 191.816 1019.3 190.887C1019.83 189.966 1020.65 189.211 1021.11 189.211C1021.58 189.211 1021.96 189.506 1021.96 189.862C1021.96 190.218 1023.39 190.513 1025.14 190.513C1026.96 190.513 1028.45 190.982 1028.62 191.599C1028.77 192.198 1029.49 192.684 1030.21 192.684C1030.93 192.684 1031.32 193.075 1031.08 193.552C1030.83 194.03 1030.83 194.42 1031.08 194.42C1031.32 194.42 1033.07 193.639 1034.98 192.684C1036.89 191.729 1038.75 190.947 1039.11 190.947C1039.46 190.956 1038.39 191.79 1036.72 192.814C1035.05 193.83 1030.35 196.374 1026.3 198.458C1022.24 200.551 1018.23 202.252 1017.4 202.244C1016.56 202.235 1015.88 201.844 1015.88 201.367C1015.88 200.889 1016.76 200.551 1017.83 200.62C1018.91 200.681 1022.04 199.509 1024.78 198.015C1027.52 196.513 1029.77 195.098 1029.77 194.855C1029.77 194.611 1028.7 194.976 1027.38 195.645C1025.47 196.635 1024.36 196.678 1021.74 195.862C1019.95 195.306 1018.45 194.342 1018.41 193.708Z" fill="#01090C"/>
<path d="M1022.68 187.188C1022.6 186.068 1022.87 184.887 1023.28 184.566C1023.68 184.236 1024.43 184.105 1024.94 184.27C1025.45 184.444 1025.86 185.521 1025.86 186.667C1025.86 187.987 1025.31 188.837 1024.35 188.985C1023.29 189.141 1022.78 188.586 1022.68 187.188Z" fill="#01090C"/>
</svg>
