<svg width="1205" height="192" viewBox="0 0 1205 192" fill="none" xmlns="http://www.w3.org/2000/svg">
<path d="M-6.4373e-06 188.686V5.71776H49.6731V148.662H123.647V188.686H-6.4373e-06ZM233.423 128.65V51.4599H282.739V188.686H235.925V162.599H234.496C231.518 171.354 226.306 178.204 218.861 183.147C211.416 188.031 202.571 190.473 192.327 190.473C182.738 190.473 174.34 188.269 167.133 183.862C159.986 179.455 154.417 173.379 150.426 165.637C146.496 157.894 144.5 149.019 144.441 139.013V51.4599H193.756V128.65C193.816 135.44 195.543 140.77 198.938 144.642C202.393 148.513 207.217 150.449 213.411 150.449C217.521 150.449 221.065 149.585 224.043 147.858C227.08 146.071 229.403 143.57 231.011 140.353C232.679 137.078 233.483 133.176 233.423 128.65ZM307.822 188.686V51.4599H354.636V77.5473H356.065C358.924 68.9706 363.808 62.1807 370.717 57.1777C377.626 52.1747 385.845 49.6731 395.375 49.6731C405.024 49.6731 413.332 52.2342 420.301 57.3564C427.269 62.419 431.468 69.1493 432.898 77.5473H434.327C436.65 69.1493 441.594 62.419 449.158 57.3564C456.722 52.2342 465.596 49.6731 475.781 49.6731C488.944 49.6731 499.605 53.9019 507.765 62.3594C515.984 70.817 520.094 82.0738 520.094 96.13V188.686H470.778V108.638C470.778 102.622 469.259 97.9168 466.222 94.5219C463.184 91.0674 459.104 89.3402 453.982 89.3402C448.919 89.3402 444.899 91.0674 441.921 94.5219C439.003 97.9168 437.543 102.622 437.543 108.638V188.686H390.372V108.638C390.372 102.622 388.853 97.9168 385.815 94.5219C382.778 91.0674 378.698 89.3402 373.576 89.3402C370.181 89.3402 367.263 90.1144 364.821 91.663C362.379 93.2116 360.473 95.4451 359.103 98.3635C357.792 101.222 357.137 104.647 357.137 108.638V188.686H307.822ZM582.654 190.831C573.899 190.831 566.156 189.401 559.426 186.542C552.755 183.624 547.514 179.216 543.702 173.32C539.89 167.423 537.984 159.919 537.984 150.806C537.984 143.302 539.265 136.899 541.826 131.598C544.387 126.238 547.96 121.86 552.547 118.465C557.133 115.07 562.463 112.479 568.538 110.692C574.673 108.906 581.284 107.744 588.372 107.208C596.055 106.613 602.22 105.898 606.865 105.064C611.571 104.171 614.966 102.95 617.05 101.401C619.135 99.793 620.177 97.6786 620.177 95.0579V94.7006C620.177 91.127 618.807 88.3872 616.067 86.4813C613.328 84.5753 609.814 83.6224 605.525 83.6224C600.82 83.6224 596.978 84.6647 594 86.7493C591.082 88.7743 589.325 91.9012 588.729 96.13H543.345C543.94 87.7916 546.591 80.1083 551.296 73.0802C556.061 65.9926 562.999 60.3344 572.112 56.1056C581.225 51.8173 592.601 49.6731 606.24 49.6731C616.067 49.6731 624.882 50.8346 632.685 53.1574C640.487 55.4207 647.128 58.6071 652.608 62.7168C658.087 66.7669 662.256 71.5317 665.115 77.0112C668.034 82.4312 669.493 88.3276 669.493 94.7006V188.686H623.393V169.389H622.321C619.581 174.511 616.246 178.651 612.315 181.807C608.444 184.964 604.007 187.257 599.003 188.686C594.06 190.116 588.61 190.831 582.654 190.831ZM598.735 159.74C602.488 159.74 606.002 158.966 609.278 157.417C612.613 155.869 615.323 153.635 617.408 150.717C619.492 147.798 620.534 144.255 620.534 140.085V128.65C619.224 129.186 617.824 129.692 616.335 130.169C614.906 130.645 613.357 131.092 611.69 131.509C610.082 131.926 608.354 132.313 606.508 132.67C604.721 133.027 602.845 133.355 600.88 133.653C597.068 134.248 593.941 135.231 591.499 136.601C589.116 137.911 587.33 139.549 586.138 141.515C585.007 143.421 584.441 145.565 584.441 147.947C584.441 151.759 585.781 154.678 588.461 156.703C591.142 158.728 594.566 159.74 598.735 159.74Z" fill="#5E46FC"/>
<path d="M877.901 62.8955C875.936 56.8799 873.345 51.4897 870.129 46.7249C866.972 41.9005 863.19 37.7909 858.782 34.396C854.434 31.001 849.491 28.4102 843.952 26.6234C838.413 24.8366 832.338 23.9432 825.726 23.9432C814.887 23.9432 805.029 26.7425 796.155 32.3411C787.28 37.9398 780.223 46.1889 774.981 57.0884C769.74 67.9879 767.119 81.3591 767.119 97.2021C767.119 113.045 769.77 126.416 775.071 137.316C780.371 148.215 787.548 156.464 796.602 162.063C805.655 167.662 815.839 170.461 827.156 170.461C837.638 170.461 846.87 168.228 854.851 163.761C862.892 159.234 869.146 152.861 873.613 144.642C878.139 136.363 880.403 126.625 880.403 115.427L887.192 116.857H832.159V97.2021H901.844V116.857C901.844 131.926 898.628 145.029 892.196 156.167C885.823 167.304 877.008 175.941 865.751 182.075C854.554 188.15 841.689 191.188 827.156 191.188C810.956 191.188 796.721 187.376 784.451 179.752C772.241 172.129 762.712 161.289 755.862 147.233C749.073 133.176 745.678 116.5 745.678 97.2021C745.678 82.729 747.613 69.7151 751.485 58.1604C755.416 46.5462 760.955 36.6592 768.102 28.4995C775.249 20.3398 783.707 14.086 793.475 9.73807C803.243 5.39018 813.993 3.21624 825.726 3.21624C835.375 3.21624 844.369 4.67546 852.707 7.59391C861.105 10.4528 868.58 14.5327 875.132 19.8335C881.743 25.0748 887.252 31.3584 891.659 38.6843C896.067 45.9506 899.105 54.021 900.772 62.8955H877.901ZM936.933 188.686V51.4599H957.302V72.1868H958.732C961.233 65.397 965.76 59.8877 972.311 55.6589C978.863 51.4301 986.248 49.3158 994.468 49.3158C996.016 49.3158 997.952 49.3455 1000.27 49.4051C1002.6 49.4647 1004.35 49.554 1005.55 49.6731V71.1148C1004.83 70.9361 1003.19 70.6681 1000.63 70.3107C998.131 69.8938 995.48 69.6853 992.681 69.6853C986.01 69.6853 980.054 71.085 974.813 73.8843C969.631 76.6241 965.521 80.4359 962.484 85.3198C959.506 90.1442 958.017 95.6535 958.017 101.848V188.686H936.933ZM1030.54 188.686V51.4599H1051.62V188.686H1030.54ZM1041.26 28.5889C1037.15 28.5889 1033.61 27.1892 1030.63 24.3899C1027.71 21.5905 1026.25 18.2254 1026.25 14.2944C1026.25 10.3635 1027.71 6.99831 1030.63 4.19898C1033.61 1.39966 1037.15 0 1041.26 0C1045.37 0 1048.88 1.39966 1051.8 4.19898C1054.78 6.99831 1056.27 10.3635 1056.27 14.2944C1056.27 18.2254 1054.78 21.5905 1051.8 24.3899C1048.88 27.1892 1045.37 28.5889 1041.26 28.5889ZM1142.06 191.545C1130.62 191.545 1120.53 188.657 1111.77 182.879C1103.02 177.042 1096.17 168.823 1091.22 158.221C1086.28 147.56 1083.81 134.963 1083.81 120.431C1083.81 106.017 1086.28 93.5094 1091.22 82.9077C1096.17 72.306 1103.05 64.1165 1111.86 58.3391C1120.68 52.5618 1130.86 49.6731 1142.41 49.6731C1151.35 49.6731 1158.41 51.1621 1163.59 54.1401C1168.83 57.0586 1172.82 60.3939 1175.56 64.1462C1178.36 67.839 1180.53 70.8765 1182.08 73.2589H1183.87V5.71776H1204.95V188.686H1184.58V167.602H1182.08C1180.53 170.104 1178.33 173.26 1175.47 177.072C1172.61 180.824 1168.53 184.19 1163.23 187.168C1157.93 190.086 1150.87 191.545 1142.06 191.545ZM1144.92 172.605C1153.37 172.605 1160.52 170.401 1166.36 165.994C1172.19 161.527 1176.63 155.363 1179.67 147.501C1182.71 139.579 1184.23 130.437 1184.23 120.073C1184.23 109.829 1182.74 100.865 1179.76 93.1818C1176.78 85.439 1172.37 79.4234 1166.54 75.1351C1160.7 70.7872 1153.49 68.6132 1144.92 68.6132C1135.98 68.6132 1128.54 70.9063 1122.58 75.4924C1116.68 80.019 1112.25 86.1835 1109.27 93.9858C1106.35 101.729 1104.89 110.424 1104.89 120.073C1104.89 129.841 1106.38 138.715 1109.36 146.697C1112.4 154.618 1116.86 160.931 1122.76 165.637C1128.72 170.282 1136.1 172.605 1144.92 172.605Z" fill="#8F7EFE"/>
</svg>
