<svg width="1080" height="1080" viewBox="0 0 1080 1080" fill="none" xmlns="http://www.w3.org/2000/svg">
<g filter="url(#filter0_iii_15_426)">
<rect width="1080" height="1080" rx="190" fill="url(#paint0_radial_15_426)"/>
</g>
<rect x="5" y="5" width="1070" height="1070" rx="185" stroke="#E39932" stroke-width="10"/>
<path d="M97 295C97 227.794 97 194.191 110.079 168.521C121.584 145.942 139.942 127.584 162.521 116.079C188.191 103 221.794 103 289 103H311C378.206 103 411.809 103 437.479 116.079C460.058 127.584 478.416 145.942 489.921 168.521C503 194.191 503 227.794 503 295V317C503 384.206 503 417.809 489.921 443.479C478.416 466.058 460.058 484.416 437.479 495.921C411.809 509 378.206 509 311 509H289C221.794 509 188.191 509 162.521 495.921C139.942 484.416 121.584 466.058 110.079 443.479C97 417.809 97 384.206 97 317V295Z" fill="white" fill-opacity="0.3"/>
<path d="M577 295C577 227.794 577 194.191 590.079 168.521C601.584 145.942 619.942 127.584 642.521 116.079C668.191 103 701.794 103 769 103H791C858.206 103 891.809 103 917.479 116.079C940.058 127.584 958.416 145.942 969.921 168.521C983 194.191 983 227.794 983 295V317C983 384.206 983 417.809 969.921 443.479C958.416 466.058 940.058 484.416 917.479 495.921C891.809 509 858.206 509 791 509H769C701.794 509 668.191 509 642.521 495.921C619.942 484.416 601.584 466.058 590.079 443.479C577 417.809 577 384.206 577 317V295Z" fill="white" fill-opacity="0.3"/>
<path d="M97 762C97 694.794 97 661.191 110.079 635.521C121.584 612.942 139.942 594.584 162.521 583.079C188.191 570 221.794 570 289 570H311C378.206 570 411.809 570 437.479 583.079C460.058 594.584 478.416 612.942 489.921 635.521C503 661.191 503 694.794 503 762V784C503 851.206 503 884.809 489.921 910.479C478.416 933.058 460.058 951.416 437.479 962.921C411.809 976 378.206 976 311 976H289C221.794 976 188.191 976 162.521 962.921C139.942 951.416 121.584 933.058 110.079 910.479C97 884.809 97 851.206 97 784V762Z" fill="white" fill-opacity="0.3"/>
<path d="M577 762C577 694.794 577 661.191 590.079 635.521C601.584 612.942 619.942 594.584 642.521 583.079C668.191 570 701.794 570 769 570H791C858.206 570 891.809 570 917.479 583.079C940.058 594.584 958.416 612.942 969.921 635.521C983 661.191 983 694.794 983 762V784C983 851.206 983 884.809 969.921 910.479C958.416 933.058 940.058 951.416 917.479 962.921C891.809 976 858.206 976 791 976H769C701.794 976 668.191 976 642.521 962.921C619.942 951.416 601.584 933.058 590.079 910.479C577 884.809 577 851.206 577 784V762Z" fill="white" fill-opacity="0.3"/>
<g filter="url(#filter1_iii_15_426)">
<rect width="1080" height="1080" rx="190" fill="url(#paint1_radial_15_426)"/>
</g>
<rect x="5" y="5" width="1070" height="1070" rx="185" stroke="#CCC3B6" stroke-width="10"/>
<g filter="url(#filter2_dii_15_426)">
<rect x="97" y="103" width="406" height="406" rx="120" fill="#595959"/>
<g filter="url(#filter3_i_15_426)">
<path d="M235.549 199.927C245.403 195.044 259.616 189.719 267.133 188.119C274.649 186.498 288.167 185.088 297.137 185.004C306.107 184.919 320.804 186.309 329.774 188.14C338.743 189.95 353.904 195.149 363.463 199.717C376.033 205.695 384.477 211.631 393.994 221.145C401.995 229.143 409.828 239.668 413.955 247.982C417.703 255.518 420.5 267 422.377 272.946C424.255 278.893 424 286.5 424 287.5C424 297 424.862 293.469 423.325 303.088C421.619 313.866 417.977 325.864 413.85 334.262C409.849 342.408 402.058 353.08 394.52 360.679C386.309 368.972 376.012 376.465 365.042 382.149C355.778 386.927 342.028 392.315 334.511 394.104C326.994 395.894 311.834 397.367 300.822 397.346C289.81 397.346 277.029 396.504 272.396 395.515C264.311 393.768 262.858 394.357 236.602 410.291C221.547 419.426 207.566 426.899 205.544 426.899C203.523 426.899 200.912 425.004 199.754 422.689C198.132 419.447 199.585 412.901 214.493 370.066L204.449 360.068C198.933 354.574 191.037 343.439 186.91 335.336C182.762 327.232 178.15 313.971 176.656 305.867C174.529 294.29 174.466 287.975 176.382 276.398C177.729 268.295 181.835 255.518 185.52 247.982C189.605 239.605 197.143 229.354 204.912 221.566C213.777 212.683 223.105 206.116 235.549 199.927Z" fill="#FEFEFE"/>
</g>
<rect x="577" y="103" width="406" height="406" rx="120" fill="#303030"/>
<g filter="url(#filter4_i_15_426)">
<path d="M725.712 164.572C729.186 162.825 735.818 160.699 740.451 159.857C745.083 158.994 753.126 158.742 758.348 159.289C763.57 159.815 772.077 162.278 777.298 164.741C782.52 167.182 790.374 173.013 794.775 177.665C799.323 182.485 804.208 190.652 806.124 196.651C808.293 203.471 809.093 211.238 808.398 218.752C807.829 225.109 805.787 233.402 803.892 237.17C802.018 240.938 798.565 245.906 796.249 248.221C793.933 250.536 791.09 252.431 789.932 252.431C788.774 252.431 786.984 250.305 785.973 247.695C784.584 244.137 785.363 240.854 789.09 234.539C792.564 228.624 794.059 222.836 794.101 215.069C794.122 208.986 793.196 201.661 792.038 198.756C790.879 195.872 786.858 190.105 783.089 185.958C778.225 180.591 772.877 177.475 764.665 175.223C758.095 173.434 749.905 172.613 745.715 173.329C741.672 174.023 734.344 177.202 729.438 180.359C724.532 183.537 718.742 189.452 716.552 193.494C714.363 197.556 711.962 203.471 711.246 206.649C710.509 209.828 710.404 215.511 710.994 219.279C711.583 223.046 714.573 228.961 717.626 232.434C720.995 236.244 723.501 241.885 723.922 246.642C724.322 250.978 723.711 254.536 722.553 254.536C721.395 254.536 716.973 251.462 712.741 247.695C708.488 243.927 703.308 237.065 701.203 232.434C698.95 227.488 697.349 219.005 697.328 211.911C697.307 205.26 698.528 196.735 700.066 192.967C701.582 189.2 706.572 181.98 711.12 176.928C715.668 171.876 722.237 166.298 725.712 164.572Z" fill="#FEFEFE"/>
<path d="M736.766 213.385C738.787 209.28 742.83 205.092 745.715 204.081C748.599 203.071 751.694 202.166 752.558 202.082C753.421 201.997 757.464 203.344 761.507 205.07C765.549 206.818 769.76 209.891 770.834 211.911C771.908 213.932 773.087 230.519 773.466 248.768C773.929 271.733 774.793 280.973 776.246 278.826C777.404 277.121 781.91 274.743 786.247 273.543C790.964 272.259 796.059 272.112 798.881 273.206C801.492 274.216 804.797 276.342 806.25 277.942C807.682 279.542 809.114 282.973 809.409 285.562C809.83 289.33 810.798 289.961 814.146 288.719C816.462 287.856 822.316 287.162 827.138 287.162C833.623 287.162 837.329 288.53 841.392 292.424C844.424 295.329 846.867 299.812 846.846 302.422C846.804 305.032 847.014 307.179 847.309 307.221C847.604 307.263 850.678 305.853 854.152 304.085C857.627 302.317 863.08 300.864 866.259 300.864C869.439 300.843 874.661 303.138 883.63 311.01V353.803C883.609 394.196 883.336 397.332 878.514 409.246C875.208 417.476 869.713 425.601 862.743 432.568C855.612 439.697 847.836 444.91 839.413 448.207C828.443 452.501 823.053 453.154 798.354 453.259C772.161 453.343 769.108 452.943 759.569 448.144C752.768 444.713 746.22 438.946 740.493 431.347C735.692 424.99 719.584 402.721 704.677 381.882C685.642 355.255 677.22 341.699 676.378 336.248C675.451 330.27 676.146 327.491 679.389 324.081C682.021 321.303 686.169 319.682 690.443 319.724C694.212 319.766 700.36 321.029 704.129 322.566C708.151 324.187 715.099 330.712 720.974 338.353C726.47 345.509 730.976 352.308 730.976 353.466C730.976 354.624 731.691 355.571 732.555 355.571C733.418 355.571 733.902 325.26 733.608 288.214C733.144 227.656 733.46 220.099 736.766 213.385Z" fill="#FEFEFE"/>
</g>
<rect x="97" y="570" width="406" height="406" rx="120" fill="#BEBEBE"/>
<g filter="url(#filter5_i_15_426)">
<path d="M189.329 691.957C193.098 689.389 199.478 686.106 203.542 684.675C207.606 683.243 213.291 682.043 216.176 682.001C219.081 681.959 225.23 682.949 229.862 684.211C234.494 685.474 241.548 689.032 245.549 692.105C249.528 695.178 254.497 701.703 256.603 706.629C258.687 711.554 259.951 717.237 259.424 719.258C258.898 721.279 256.771 724.604 254.687 726.625C251.086 730.14 250.244 730.077 236.179 724.857C225.103 720.752 219.229 719.7 212.491 720.647C207.564 721.321 199.752 723.784 195.12 726.099C190.488 728.414 185.518 730.288 184.065 730.246C182.613 730.225 179.749 728.562 177.686 726.562C175.622 724.583 173.959 720.816 174.001 718.206C174.043 715.595 175.959 709.681 178.275 705.05C180.591 700.419 185.56 694.525 189.329 691.957Z" fill="#FEFEFE"/>
<path d="M366.262 688.969C369.546 687.032 374.768 684.696 377.906 683.748C381.022 682.801 387.823 682.359 393.045 682.78C398.267 683.201 405.826 685.159 409.889 687.179C413.953 689.179 419.407 692.82 422.06 695.304C426.124 699.114 426.839 701.893 426.797 713.996C426.755 721.805 425.787 728.688 424.629 729.256C423.471 729.825 418.017 728.372 412.521 725.994C407.026 723.615 398.73 721.131 394.098 720.479C387.886 719.595 382.096 720.71 371.989 724.731C359.587 729.656 357.86 729.888 353.565 727.088C350.049 724.794 348.828 721.952 348.828 716.101C348.799 710.838 350.709 705.583 354.555 700.335C357.713 695.999 362.977 690.884 366.262 688.969Z" fill="#FEFEFE"/>
<path d="M207.859 812.821C207.901 811.326 210.238 807.769 213.017 804.927C215.797 802.086 219.797 799.749 221.861 799.707C223.945 799.665 229.441 802.528 234.073 806.043C238.705 809.579 248.181 816.252 255.129 820.883C264.057 826.839 272.416 830.313 283.554 832.733C294.609 835.112 303.915 835.743 314.612 834.796C323.013 834.059 335.331 831.365 341.984 828.818C348.638 826.271 357.882 821.072 362.514 817.262C367.146 813.473 374.242 807.937 378.306 804.991C384.18 800.718 386.918 799.96 391.824 801.286C395.214 802.191 399.488 805.159 401.299 807.874C404.373 812.442 404.31 813.389 400.414 820.356C398.098 824.503 390.981 831.996 384.622 837.027C378.264 842.058 367.82 848.667 361.461 851.677C355.102 854.708 345.143 858.666 339.352 860.455C332.551 862.581 320.634 863.738 305.663 863.759C289.261 863.78 278.817 862.686 269.868 859.971C262.92 857.887 252.981 854.014 247.759 851.362C242.538 848.73 233.315 842.668 227.23 837.911C221.145 833.133 214.281 826.166 211.964 822.398C209.669 818.63 207.816 814.336 207.859 812.821Z" fill="#FEFEFE"/>
</g>
<rect x="577" y="570" width="406" height="406" rx="120" fill="#939393"/>
<g filter="url(#filter6_i_15_426)">
<path d="M752.616 687.088C760.744 667.407 768.934 650.126 770.808 648.674C772.682 647.221 776.136 646.021 778.473 646C780.831 645.979 784.347 647.179 786.305 648.631C788.243 650.105 797.149 667.407 806.077 687.088C814.984 706.769 822.395 723.04 822.522 723.271C822.648 723.482 840.293 725.208 861.706 727.123C886.131 729.291 902.428 731.712 905.397 733.564C908.008 735.206 910.619 738.932 911.188 741.815C911.756 744.72 911.061 748.74 909.609 750.761C908.156 752.803 894.175 766.758 850.105 809.172L866.97 892.652L862.233 896.694C858.695 899.704 856.295 900.272 852.758 898.883C850.147 897.873 833.576 888.864 815.91 878.886C798.244 868.909 783.316 860.742 782.747 860.742C782.179 860.742 776.725 863.689 770.64 867.309C764.555 870.909 748.215 880.002 734.319 887.495C711.178 899.998 708.652 900.904 704.23 898.315C701.577 896.757 698.945 894.063 698.355 892.316C697.787 890.568 700.65 871.877 704.756 850.744C708.862 829.611 712.231 811.151 712.252 809.698C712.273 808.246 698.65 795.238 681.995 780.756C665.34 766.295 650.643 752.782 649.316 750.761C647.674 748.214 647.569 745.288 649 741.289C650.137 738.111 653.211 734.343 655.843 732.912C658.475 731.501 677.994 728.66 737.835 722.871L752.616 687.088Z" fill="#FEFEFE"/>
</g>
</g>
<defs>
<filter id="filter0_iii_15_426" x="0" y="-11" width="1095" height="1102" filterUnits="userSpaceOnUse" color-interpolation-filters="sRGB">
<feFlood flood-opacity="0" result="BackgroundImageFix"/>
<feBlend mode="normal" in="SourceGraphic" in2="BackgroundImageFix" result="shape"/>
<feColorMatrix in="SourceAlpha" type="matrix" values="0 0 0 0 0 0 0 0 0 0 0 0 0 0 0 0 0 0 127 0" result="hardAlpha"/>
<feOffset dy="26"/>
<feGaussianBlur stdDeviation="2"/>
<feComposite in2="hardAlpha" operator="arithmetic" k2="-1" k3="1"/>
<feColorMatrix type="matrix" values="0 0 0 0 1 0 0 0 0 1 0 0 0 0 1 0 0 0 0.25 0"/>
<feBlend mode="normal" in2="shape" result="effect1_innerShadow_15_426"/>
<feColorMatrix in="SourceAlpha" type="matrix" values="0 0 0 0 0 0 0 0 0 0 0 0 0 0 0 0 0 0 127 0" result="hardAlpha"/>
<feMorphology radius="1" operator="erode" in="SourceAlpha" result="effect2_innerShadow_15_426"/>
<feOffset dx="15" dy="-11"/>
<feGaussianBlur stdDeviation="18.5"/>
<feComposite in2="hardAlpha" operator="arithmetic" k2="-1" k3="1"/>
<feColorMatrix type="matrix" values="0 0 0 0 1 0 0 0 0 1 0 0 0 0 1 0 0 0 0.1 0"/>
<feBlend mode="normal" in2="effect1_innerShadow_15_426" result="effect2_innerShadow_15_426"/>
<feColorMatrix in="SourceAlpha" type="matrix" values="0 0 0 0 0 0 0 0 0 0 0 0 0 0 0 0 0 0 127 0" result="hardAlpha"/>
<feMorphology radius="1" operator="erode" in="SourceAlpha" result="effect3_innerShadow_15_426"/>
<feOffset dx="15" dy="11"/>
<feGaussianBlur stdDeviation="18.5"/>
<feComposite in2="hardAlpha" operator="arithmetic" k2="-1" k3="1"/>
<feColorMatrix type="matrix" values="0 0 0 0 1 0 0 0 0 1 0 0 0 0 1 0 0 0 0.1 0"/>
<feBlend mode="normal" in2="effect2_innerShadow_15_426" result="effect3_innerShadow_15_426"/>
</filter>
<filter id="filter1_iii_15_426" x="0" y="-11" width="1095" height="1102" filterUnits="userSpaceOnUse" color-interpolation-filters="sRGB">
<feFlood flood-opacity="0" result="BackgroundImageFix"/>
<feBlend mode="normal" in="SourceGraphic" in2="BackgroundImageFix" result="shape"/>
<feColorMatrix in="SourceAlpha" type="matrix" values="0 0 0 0 0 0 0 0 0 0 0 0 0 0 0 0 0 0 127 0" result="hardAlpha"/>
<feOffset dy="26"/>
<feGaussianBlur stdDeviation="2"/>
<feComposite in2="hardAlpha" operator="arithmetic" k2="-1" k3="1"/>
<feColorMatrix type="matrix" values="0 0 0 0 1 0 0 0 0 1 0 0 0 0 1 0 0 0 0.25 0"/>
<feBlend mode="normal" in2="shape" result="effect1_innerShadow_15_426"/>
<feColorMatrix in="SourceAlpha" type="matrix" values="0 0 0 0 0 0 0 0 0 0 0 0 0 0 0 0 0 0 127 0" result="hardAlpha"/>
<feMorphology radius="1" operator="erode" in="SourceAlpha" result="effect2_innerShadow_15_426"/>
<feOffset dx="15" dy="-11"/>
<feGaussianBlur stdDeviation="18.5"/>
<feComposite in2="hardAlpha" operator="arithmetic" k2="-1" k3="1"/>
<feColorMatrix type="matrix" values="0 0 0 0 1 0 0 0 0 1 0 0 0 0 1 0 0 0 0.1 0"/>
<feBlend mode="normal" in2="effect1_innerShadow_15_426" result="effect2_innerShadow_15_426"/>
<feColorMatrix in="SourceAlpha" type="matrix" values="0 0 0 0 0 0 0 0 0 0 0 0 0 0 0 0 0 0 127 0" result="hardAlpha"/>
<feMorphology radius="1" operator="erode" in="SourceAlpha" result="effect3_innerShadow_15_426"/>
<feOffset dx="15" dy="11"/>
<feGaussianBlur stdDeviation="18.5"/>
<feComposite in2="hardAlpha" operator="arithmetic" k2="-1" k3="1"/>
<feColorMatrix type="matrix" values="0 0 0 0 1 0 0 0 0 1 0 0 0 0 1 0 0 0 0.1 0"/>
<feBlend mode="normal" in2="effect2_innerShadow_15_426" result="effect3_innerShadow_15_426"/>
</filter>
<filter id="filter2_dii_15_426" x="93" y="99" width="894" height="899" filterUnits="userSpaceOnUse" color-interpolation-filters="sRGB">
<feFlood flood-opacity="0" result="BackgroundImageFix"/>
<feColorMatrix in="SourceAlpha" type="matrix" values="0 0 0 0 0 0 0 0 0 0 0 0 0 0 0 0 0 0 127 0" result="hardAlpha"/>
<feOffset dy="18"/>
<feGaussianBlur stdDeviation="2"/>
<feComposite in2="hardAlpha" operator="out"/>
<feColorMatrix type="matrix" values="0 0 0 0 0 0 0 0 0 0 0 0 0 0 0 0 0 0 0.13 0"/>
<feBlend mode="normal" in2="BackgroundImageFix" result="effect1_dropShadow_15_426"/>
<feBlend mode="normal" in="SourceGraphic" in2="effect1_dropShadow_15_426" result="shape"/>
<feColorMatrix in="SourceAlpha" type="matrix" values="0 0 0 0 0 0 0 0 0 0 0 0 0 0 0 0 0 0 127 0" result="hardAlpha"/>
<feOffset dx="7" dy="-7"/>
<feGaussianBlur stdDeviation="2"/>
<feComposite in2="hardAlpha" operator="arithmetic" k2="-1" k3="1"/>
<feColorMatrix type="matrix" values="0 0 0 0 0 0 0 0 0 0 0 0 0 0 0 0 0 0 0.25 0"/>
<feBlend mode="normal" in2="shape" result="effect2_innerShadow_15_426"/>
<feColorMatrix in="SourceAlpha" type="matrix" values="0 0 0 0 0 0 0 0 0 0 0 0 0 0 0 0 0 0 127 0" result="hardAlpha"/>
<feOffset dx="-7" dy="7"/>
<feGaussianBlur stdDeviation="2"/>
<feComposite in2="hardAlpha" operator="arithmetic" k2="-1" k3="1"/>
<feColorMatrix type="matrix" values="0 0 0 0 1 0 0 0 0 1 0 0 0 0 1 0 0 0 0.25 0"/>
<feBlend mode="normal" in2="effect2_innerShadow_15_426" result="effect3_innerShadow_15_426"/>
</filter>
<filter id="filter3_i_15_426" x="175" y="185" width="252.141" height="244.798" filterUnits="userSpaceOnUse" color-interpolation-filters="sRGB">
<feFlood flood-opacity="0" result="BackgroundImageFix"/>
<feBlend mode="normal" in="SourceGraphic" in2="BackgroundImageFix" result="shape"/>
<feColorMatrix in="SourceAlpha" type="matrix" values="0 0 0 0 0 0 0 0 0 0 0 0 0 0 0 0 0 0 127 0" result="hardAlpha"/>
<feOffset dx="4" dy="4"/>
<feGaussianBlur stdDeviation="1.45"/>
<feComposite in2="hardAlpha" operator="arithmetic" k2="-1" k3="1"/>
<feColorMatrix type="matrix" values="0 0 0 0 0.631373 0 0 0 0 0.572549 0 0 0 0 0.996078 0 0 0 0.46 0"/>
<feBlend mode="normal" in2="shape" result="effect1_innerShadow_15_426"/>
</filter>
<filter id="filter4_i_15_426" x="676" y="159" width="210.53" height="297.169" filterUnits="userSpaceOnUse" color-interpolation-filters="sRGB">
<feFlood flood-opacity="0" result="BackgroundImageFix"/>
<feBlend mode="normal" in="SourceGraphic" in2="BackgroundImageFix" result="shape"/>
<feColorMatrix in="SourceAlpha" type="matrix" values="0 0 0 0 0 0 0 0 0 0 0 0 0 0 0 0 0 0 127 0" result="hardAlpha"/>
<feOffset dx="4" dy="4"/>
<feGaussianBlur stdDeviation="1.45"/>
<feComposite in2="hardAlpha" operator="arithmetic" k2="-1" k3="1"/>
<feColorMatrix type="matrix" values="0 0 0 0 0.631373 0 0 0 0 0.572549 0 0 0 0 0.996078 0 0 0 0.46 0"/>
<feBlend mode="normal" in2="shape" result="effect1_innerShadow_15_426"/>
</filter>
<filter id="filter5_i_15_426" x="174" y="682" width="255.699" height="184.66" filterUnits="userSpaceOnUse" color-interpolation-filters="sRGB">
<feFlood flood-opacity="0" result="BackgroundImageFix"/>
<feBlend mode="normal" in="SourceGraphic" in2="BackgroundImageFix" result="shape"/>
<feColorMatrix in="SourceAlpha" type="matrix" values="0 0 0 0 0 0 0 0 0 0 0 0 0 0 0 0 0 0 127 0" result="hardAlpha"/>
<feOffset dx="4" dy="4"/>
<feGaussianBlur stdDeviation="1.45"/>
<feComposite in2="hardAlpha" operator="arithmetic" k2="-1" k3="1"/>
<feColorMatrix type="matrix" values="0 0 0 0 0.631373 0 0 0 0 0.572549 0 0 0 0 0.996078 0 0 0 0.46 0"/>
<feBlend mode="normal" in2="shape" result="effect1_innerShadow_15_426"/>
</filter>
<filter id="filter6_i_15_426" x="648" y="646" width="266.286" height="256.502" filterUnits="userSpaceOnUse" color-interpolation-filters="sRGB">
<feFlood flood-opacity="0" result="BackgroundImageFix"/>
<feBlend mode="normal" in="SourceGraphic" in2="BackgroundImageFix" result="shape"/>
<feColorMatrix in="SourceAlpha" type="matrix" values="0 0 0 0 0 0 0 0 0 0 0 0 0 0 0 0 0 0 127 0" result="hardAlpha"/>
<feOffset dx="4" dy="4"/>
<feGaussianBlur stdDeviation="1.45"/>
<feComposite in2="hardAlpha" operator="arithmetic" k2="-1" k3="1"/>
<feColorMatrix type="matrix" values="0 0 0 0 0.631373 0 0 0 0 0.572549 0 0 0 0 0.996078 0 0 0 0.46 0"/>
<feBlend mode="normal" in2="shape" result="effect1_innerShadow_15_426"/>
</filter>
<radialGradient id="paint0_radial_15_426" cx="0" cy="0" r="1" gradientUnits="userSpaceOnUse" gradientTransform="translate(540 540) rotate(90) scale(540)">
<stop stop-color="white"/>
<stop offset="0.625" stop-color="#DDDDDD"/>
<stop offset="1" stop-color="#C8C8C8"/>
</radialGradient>
<radialGradient id="paint1_radial_15_426" cx="0" cy="0" r="1" gradientUnits="userSpaceOnUse" gradientTransform="translate(540 540) rotate(90) scale(540)">
<stop stop-color="white"/>
<stop offset="0.625" stop-color="#DDDDDD"/>
<stop offset="1" stop-color="#C8C8C8"/>
</radialGradient>
</defs>
</svg>
