<svg width="512" height="512" viewBox="0 0 512 512" fill="none" xmlns="http://www.w3.org/2000/svg">
<g filter="url(#filter0_i_610_102)">
<path d="M0 144.119C0 93.6723 0 68.4492 9.81749 49.1813C18.4532 32.2328 32.2328 18.4532 49.1813 9.81749C68.4492 0 93.6723 0 144.119 0H367.881C418.328 0 443.551 0 462.819 9.81749C479.767 18.4532 493.547 32.2328 502.183 49.1813C512 68.4492 512 93.6723 512 144.119V367.881C512 418.328 512 443.551 502.183 462.819C493.547 479.767 479.767 493.547 462.819 502.183C443.551 512 418.328 512 367.881 512H144.119C93.6723 512 68.4492 512 49.1813 502.183C32.2328 493.547 18.4532 479.767 9.81749 462.819C0 443.551 0 418.328 0 367.881V144.119Z" fill="url(#paint0_radial_610_102)"/>
<path d="M45.9852 139.852C45.9852 107.991 45.9852 92.0607 52.1857 79.8915C57.6398 69.1872 66.3427 60.4843 77.0471 55.0301C89.2163 48.8296 105.147 48.8296 137.007 48.8296H147.437C179.298 48.8296 195.228 48.8296 207.397 55.0301C218.102 60.4843 226.805 69.1872 232.259 79.8915C238.459 92.0607 238.459 107.991 238.459 139.852V150.281C238.459 182.142 238.459 198.073 232.259 210.242C226.805 220.946 218.102 229.649 207.397 235.103C195.228 241.304 179.298 241.304 147.437 241.304H137.007C105.147 241.304 89.2163 241.304 77.0471 235.103C66.3427 229.649 57.6398 220.946 52.1857 210.242C45.9852 198.073 45.9852 182.142 45.9852 150.281V139.852Z" fill="white" fill-opacity="0.3"/>
<path d="M111.668 94.7804C116.339 92.4653 123.077 89.9407 126.641 89.1823C130.204 88.4139 136.613 87.7453 140.865 87.7054C145.117 87.6655 152.085 88.3241 156.337 89.1923C160.589 90.0504 167.777 92.5152 172.308 94.6806C178.268 97.5146 182.27 100.329 186.782 104.839C190.575 108.631 194.289 113.62 196.245 117.562C198.022 121.134 199.348 126.578 200.238 129.397C201.128 132.216 201.007 135.822 201.007 136.296C201.007 140.8 201.416 139.126 200.687 143.686C199.879 148.796 198.152 154.483 196.195 158.465C194.299 162.327 190.605 167.386 187.032 170.988C183.139 174.92 178.258 178.472 173.057 181.167C168.665 183.432 162.147 185.986 158.583 186.835C155.019 187.683 147.832 188.381 142.612 188.371C137.391 188.371 131.332 187.972 129.136 187.503C125.303 186.675 124.614 186.954 112.167 194.508C105.029 198.839 98.4014 202.382 97.4431 202.382C96.4849 202.382 95.2471 201.483 94.6981 200.386C93.9295 198.849 94.6182 195.746 101.685 175.439L96.9241 170.699C94.3088 168.094 90.5655 162.816 88.609 158.974C86.6426 155.132 84.4565 148.845 83.7478 145.004C82.7396 139.515 82.7097 136.522 83.618 131.033C84.2569 127.191 86.2034 121.134 87.9502 117.562C89.8867 113.59 93.4603 108.731 97.1437 105.039C101.346 100.828 105.768 97.7141 111.668 94.7804Z" fill="#FEFEFE"/>
<path d="M273.541 139.852C273.541 107.991 273.541 92.0607 279.741 79.8915C285.195 69.1872 293.898 60.4843 304.603 55.0301C316.772 48.8296 332.702 48.8296 364.563 48.8296H374.993C406.853 48.8296 422.784 48.8296 434.953 55.0301C445.657 60.4843 454.36 69.1872 459.814 79.8915C466.015 92.0607 466.015 107.991 466.015 139.852V150.281C466.015 182.142 466.015 198.073 459.814 210.242C454.36 220.946 445.657 229.649 434.953 235.103C422.784 241.304 406.853 241.304 374.993 241.304H364.563C332.702 241.304 316.772 241.304 304.603 235.103C293.898 229.649 285.195 220.946 279.741 210.242C273.541 198.073 273.541 182.142 273.541 150.281V139.852Z" fill="white" fill-opacity="0.3"/>
<path d="M344.041 78.0194C345.688 77.1912 348.832 76.1833 351.028 75.7842C353.225 75.375 357.038 75.2553 359.513 75.5147C361.989 75.7642 366.022 76.9317 368.497 78.0993C370.973 79.2568 374.696 82.0209 376.782 84.2262C378.938 86.5114 381.254 90.3831 382.162 93.2271C383.191 96.4602 383.57 100.142 383.241 103.705C382.971 106.718 382.003 110.65 381.104 112.436C380.216 114.222 378.579 116.577 377.481 117.675C376.383 118.773 375.035 119.671 374.486 119.671C373.937 119.671 373.089 118.663 372.61 117.426C371.951 115.739 372.32 114.183 374.087 111.189C375.734 108.385 376.443 105.641 376.463 101.959C376.473 99.0747 376.033 95.602 375.484 94.225C374.935 92.8579 373.029 90.1237 371.242 88.1579C368.936 85.6133 366.401 84.1364 362.508 83.0687C359.393 82.2205 355.51 81.8313 353.524 82.1706C351.607 82.4999 348.134 84.0067 345.808 85.5035C343.482 87.0103 340.737 89.8143 339.699 91.7303C338.661 93.6562 337.523 96.4602 337.183 97.967C336.834 99.4738 336.784 102.168 337.064 103.954C337.343 105.74 338.761 108.545 340.208 110.191C341.805 111.997 342.993 114.671 343.193 116.927C343.382 118.982 343.093 120.669 342.544 120.669C341.995 120.669 339.899 119.212 337.892 117.426C335.876 115.639 333.42 112.386 332.422 110.191C331.354 107.846 330.595 103.825 330.585 100.462C330.575 97.3084 331.154 93.267 331.883 91.4808C332.602 89.6946 334.967 86.2719 337.124 83.877C339.28 81.4821 342.394 78.8377 344.041 78.0194Z" fill="#FEFEFE"/>
<path d="M349.282 101.16C350.24 99.2144 352.156 97.2286 353.524 96.7496C354.892 96.2706 356.359 95.8415 356.768 95.8016C357.177 95.7617 359.094 96.4003 361.011 97.2186C362.927 98.0468 364.923 99.5037 365.433 100.462C365.942 101.42 366.501 109.283 366.68 117.935C366.9 128.821 367.309 133.202 367.998 132.184C368.547 131.376 370.683 130.248 372.739 129.68C374.975 129.071 377.391 129.001 378.729 129.52C379.966 129.999 381.534 131.007 382.222 131.765C382.901 132.524 383.58 134.15 383.72 135.377C383.919 137.164 384.378 137.463 385.966 136.874C387.064 136.465 389.839 136.136 392.125 136.136C395.199 136.136 396.956 136.784 398.882 138.631C400.32 140.008 401.478 142.133 401.468 143.37C401.448 144.608 401.548 145.626 401.687 145.646C401.827 145.666 403.284 144.997 404.931 144.159C406.579 143.321 409.164 142.632 410.671 142.632C412.178 142.622 414.654 143.71 418.906 147.442V167.729C418.896 186.878 418.767 188.365 416.481 194.013C414.914 197.914 412.308 201.766 409.004 205.069C405.624 208.449 401.937 210.92 397.944 212.484C392.743 214.519 390.188 214.828 378.479 214.878C366.061 214.918 364.614 214.729 360.092 212.454C356.868 210.827 353.764 208.093 351.048 204.491C348.773 201.477 341.136 190.919 334.069 181.04C325.045 168.417 321.052 161.991 320.653 159.406C320.214 156.572 320.543 155.255 322.081 153.639C323.328 152.321 325.295 151.553 327.321 151.573C329.108 151.593 332.023 152.192 333.809 152.92C335.716 153.689 339.01 156.782 341.795 160.404C344.4 163.797 346.537 167.02 346.537 167.569C346.537 168.118 346.876 168.567 347.285 168.567C347.694 168.567 347.924 154.197 347.784 136.635C347.565 107.926 347.714 104.343 349.282 101.16Z" fill="#FEFEFE"/>
<path d="M45.9852 361.244C45.9852 329.384 45.9852 313.453 52.1857 301.284C57.6398 290.58 66.3427 281.877 77.0471 276.423C89.2163 270.222 105.147 270.222 137.007 270.222H147.437C179.298 270.222 195.228 270.222 207.397 276.423C218.102 281.877 226.805 290.58 232.259 301.284C238.459 313.453 238.459 329.384 238.459 361.244V371.674C238.459 403.535 238.459 419.465 232.259 431.634C226.805 442.339 218.102 451.042 207.397 456.496C195.228 462.696 179.298 462.696 147.437 462.696H137.007C105.147 462.696 89.2163 462.696 77.0471 456.496C66.3427 451.042 57.6398 442.339 52.1857 431.634C45.9852 419.465 45.9852 403.535 45.9852 371.674V361.244Z" fill="white" fill-opacity="0.3"/>
<path d="M89.7562 328.039C91.543 326.822 94.5675 325.265 96.4941 324.586C98.4206 323.908 101.116 323.339 102.483 323.319C103.861 323.299 106.776 323.768 108.972 324.367C111.168 324.966 114.512 326.652 116.408 328.109C118.295 329.566 120.651 332.659 121.649 334.994C122.637 337.329 123.236 340.024 122.986 340.982C122.737 341.94 121.729 343.516 120.74 344.474C119.033 346.141 118.634 346.111 111.966 343.636C106.716 341.69 103.931 341.191 100.736 341.64C98.4006 341.959 94.6973 343.127 92.5012 344.225C90.3052 345.322 87.9494 346.21 87.2607 346.191C86.5719 346.181 85.2144 345.392 84.2361 344.444C83.2579 343.506 82.4693 341.72 82.4893 340.483C82.5092 339.245 83.4176 336.441 84.5156 334.246C85.6136 332.051 87.9694 329.256 89.7562 328.039Z" fill="#FEFEFE"/>
<path d="M173.635 326.622C175.192 325.704 177.668 324.596 179.155 324.147C180.633 323.698 183.857 323.489 186.332 323.688C188.808 323.888 192.391 324.816 194.318 325.774C196.245 326.722 198.83 328.448 200.088 329.626C202.014 331.432 202.354 332.749 202.334 338.487C202.314 342.189 201.854 345.452 201.305 345.721C200.756 345.991 198.171 345.302 195.566 344.175C192.96 343.047 189.028 341.87 186.831 341.56C183.887 341.141 181.142 341.67 176.35 343.576C170.471 345.911 169.652 346.021 167.616 344.694C165.949 343.606 165.37 342.259 165.37 339.485C165.357 336.99 166.262 334.499 168.085 332.011C169.583 329.955 172.078 327.53 173.635 326.622Z" fill="#FEFEFE"/>
<path d="M98.5404 385.337C98.5603 384.629 99.6684 382.942 100.986 381.595C102.304 380.248 104.2 379.14 105.178 379.12C106.167 379.101 108.772 380.458 110.968 382.124C113.164 383.801 117.656 386.964 120.95 389.159C125.182 391.983 129.145 393.63 134.426 394.777C139.666 395.905 144.078 396.204 149.149 395.755C153.132 395.406 158.972 394.129 162.126 392.921C165.28 391.714 169.662 389.249 171.858 387.443C174.054 385.647 177.418 383.022 179.345 381.625C182.13 379.599 183.428 379.24 185.753 379.869C187.361 380.298 189.387 381.705 190.245 382.992C191.703 385.158 191.673 385.607 189.826 388.91C188.728 390.875 185.354 394.428 182.34 396.813C179.325 399.198 174.374 402.331 171.359 403.758C168.345 405.195 163.623 407.071 160.878 407.919C157.654 408.927 152.004 409.476 144.907 409.486C137.131 409.496 132.18 408.977 127.937 407.69C124.643 406.702 119.932 404.866 117.456 403.608C114.981 402.361 110.609 399.487 107.724 397.232C104.839 394.967 101.585 391.664 100.487 389.878C99.3988 388.091 98.5204 386.056 98.5404 385.337Z" fill="#FEFEFE"/>
<path d="M273.541 361.244C273.541 329.384 273.541 313.453 279.741 301.284C285.195 290.58 293.898 281.877 304.603 276.423C316.772 270.222 332.702 270.222 364.563 270.222H374.993C406.853 270.222 422.784 270.222 434.953 276.423C445.657 281.877 454.36 290.58 459.814 301.284C466.015 313.453 466.015 329.384 466.015 361.244V371.674C466.015 403.535 466.015 419.465 459.814 431.634C454.36 442.339 445.657 451.042 434.953 456.496C422.784 462.696 406.853 462.696 374.993 462.696H364.563C332.702 462.696 316.772 462.696 304.603 456.496C293.898 451.042 285.195 442.339 279.741 431.634C273.541 419.465 273.541 403.535 273.541 371.674V361.244Z" fill="white" fill-opacity="0.3"/>
<path d="M356.796 325.731C360.649 316.4 364.532 308.208 365.42 307.519C366.309 306.831 367.946 306.262 369.054 306.252C370.172 306.242 371.839 306.811 372.767 307.499C373.685 308.198 377.908 316.4 382.14 325.731C386.363 335.061 389.876 342.774 389.936 342.884C389.996 342.984 398.361 343.802 408.513 344.71C420.092 345.738 427.818 346.886 429.225 347.764C430.463 348.542 431.701 350.308 431.97 351.675C432.24 353.052 431.911 354.958 431.222 355.916C430.533 356.884 423.905 363.5 403.013 383.607L411.008 423.183L408.762 425.099C407.085 426.526 405.947 426.796 404.27 426.137C403.033 425.658 395.177 421.387 386.802 416.657C378.427 411.927 371.35 408.055 371.08 408.055C370.811 408.055 368.225 409.453 365.34 411.169C362.456 412.875 354.71 417.186 348.121 420.739C337.151 426.666 335.953 427.095 333.857 425.868C332.599 425.129 331.352 423.852 331.072 423.024C330.803 422.195 332.16 413.334 334.107 403.316C336.053 393.297 337.65 384.546 337.66 383.857C337.67 383.168 331.212 377.002 323.316 370.136C315.42 363.281 308.453 356.874 307.824 355.916C307.045 354.709 306.995 353.322 307.674 351.426C308.213 349.919 309.671 348.133 310.918 347.454C312.166 346.786 321.419 345.439 349.788 342.694L356.796 325.731Z" fill="#FEFEFE"/>
</g>
<defs>
<filter id="filter0_i_610_102" x="0" y="0" width="512.483" height="512.483" filterUnits="userSpaceOnUse" color-interpolation-filters="sRGB">
<feFlood flood-opacity="0" result="BackgroundImageFix"/>
<feBlend mode="normal" in="SourceGraphic" in2="BackgroundImageFix" result="shape"/>
<feColorMatrix in="SourceAlpha" type="matrix" values="0 0 0 0 0 0 0 0 0 0 0 0 0 0 0 0 0 0 127 0" result="hardAlpha"/>
<feOffset dx="0.666667" dy="0.666667"/>
<feGaussianBlur stdDeviation="0.241667"/>
<feComposite in2="hardAlpha" operator="arithmetic" k2="-1" k3="1"/>
<feColorMatrix type="matrix" values="0 0 0 0 0.631373 0 0 0 0 0.572549 0 0 0 0 0.996078 0 0 0 0.46 0"/>
<feBlend mode="normal" in2="shape" result="effect1_innerShadow_610_102"/>
</filter>
<radialGradient id="paint0_radial_610_102" cx="0" cy="0" r="1" gradientUnits="userSpaceOnUse" gradientTransform="translate(256 256) rotate(90) scale(256)">
<stop stop-color="white"/>
<stop offset="0.625" stop-color="#8E8E8E"/>
<stop offset="1" stop-color="#3B3B3B"/>
</radialGradient>
</defs>
</svg>
